<?xml version="1.0" encoding="utf-8"?>
<!-- Generator: Adobe Illustrator 21.0.0, SVG Export Plug-In . SVG Version: 6.00 Build 0)  -->
<svg version="1.1" id="Ebene_1" xmlns="http://www.w3.org/2000/svg" xmlns:xlink="http://www.w3.org/1999/xlink" x="0px" y="0px"
	 viewBox="0 0 1126 901" style="enable-background:new 0 0 1126 901;" xml:space="preserve">
<style type="text/css">
	.st0{fill:#004570;fill-opacity:0.15;stroke:#0071AA;stroke-width:1.5;stroke-miterlimit:10;}
	.st1{fill:none;stroke:#005081;stroke-width:1.5;stroke-miterlimit:10;}
	.st2{fill:#005081;}
</style>
<g id="Plan">
	<rect x="102.2" y="19" class="st0" width="126.5" height="425.8"/>
	<rect x="345.5" y="155.1" class="st0" width="85.7" height="108.8"/>
	<rect x="345.5" y="1.7" class="st0" width="152.1" height="108.6"/>
	<rect x="497.7" y="1.7" class="st0" width="148.7" height="108.6"/>
	<rect x="431.3" y="155.1" class="st0" width="88.5" height="108.8"/>
	<polygon class="st0" points="646.3,1.7 646.3,110.3 717,110.3 717,2.1 	"/>
	<polygon class="st0" points="519.8,155.1 519.8,263.9 612.8,263.9 612.8,154.9 	"/>
	<rect x="647.3" y="154.5" class="st0" width="31.1" height="28.2"/>
	<polygon class="st0" points="612.8,154.9 612.8,245.5 665,245.5 665,182.7 647.3,182.7 647.3,154.5 	"/>
	<polygon class="st0" points="678.5,154.5 717,154.5 717,245.5 665,245.5 665,182.7 678.5,182.7 	"/>
	<rect x="835" y="1.7" class="st0" width="60.8" height="102.7"/>
	<rect x="835" y="104.4" class="st0" width="60.8" height="91.7"/>
	<rect x="835" y="196.1" class="st0" width="60.8" height="80.7"/>
	<rect x="612.8" y="263.9" class="st0" width="69.8" height="93.6"/>
	<rect x="612.8" y="357.5" class="st0" width="104.1" height="154.2"/>
	<rect x="764.3" y="379.7" class="st0" width="131.4" height="131.9"/>
	<rect x="895.8" y="276.8" class="st0" width="229" height="234.8"/>
	<rect x="764.3" y="276.8" class="st0" width="78" height="103"/>
	<rect x="842.3" y="276.8" class="st0" width="53.4" height="103"/>
	<rect x="812.5" y="245.5" class="st0" width="22.5" height="31.3"/>
	<rect x="764.3" y="245.5" class="st0" width="48.2" height="31.3"/>
	<rect x="682.7" y="297.2" class="st0" width="34.3" height="60.2"/>
	<rect x="682.7" y="279" class="st0" width="34.3" height="18.3"/>
	<rect x="682.7" y="263.9" class="st0" width="34.3" height="15.1"/>
	<rect x="612.8" y="245.5" class="st0" width="104.1" height="18.4"/>
	<polygon class="st0" points="102.2,776 205.5,776 205.5,790.2 228.8,790.2 228.8,879 102.2,879 	"/>
	<rect x="345.5" y="790.2" class="st0" width="152.5" height="109.9"/>
	<rect x="498" y="790.2" class="st0" width="109.8" height="109.9"/>
	<rect x="607.8" y="790.2" class="st0" width="107.7" height="109.9"/>
	<rect x="715.5" y="790.2" class="st0" width="180.3" height="109.9"/>
	<rect x="839.7" y="651.8" class="st0" width="56.1" height="93"/>
	<rect x="718.5" y="651.8" class="st0" width="53.1" height="93"/>
	<rect x="631" y="651.8" class="st0" width="87.4" height="93"/>
	<rect x="577" y="651.8" class="st0" width="54" height="93"/>
	<rect x="525.2" y="651.8" class="st0" width="51.9" height="93"/>
	<rect x="497" y="651.8" class="st0" width="28.1" height="93"/>
	<rect x="457.7" y="651.8" class="st0" width="39.4" height="93"/>
	<polygon class="st0" points="457.7,651.8 457.7,744.8 424.5,744.8 424.5,716.9 412,716.9 412,651.8 	"/>
	<rect x="389.2" y="716.9" class="st0" width="35.3" height="28"/>
	<polygon class="st0" points="345.5,651.8 345.5,744.8 389.2,744.8 389.2,716.9 412,716.9 412,651.8 	"/>
	<rect x="228.8" y="655.4" class="st0" width="3.6" height="89.4"/>
	<rect x="102.2" y="444.7" class="st0" width="89.6" height="65.9"/>
	<polygon class="st0" points="228.8,510.6 191.9,510.6 191.9,444.7 228.6,444.7 	"/>
	<rect x="192" y="547.1" class="st0" width="26.6" height="71.8"/>
	<g>
		<rect x="771.5" y="651.8" class="st0" width="68" height="93"/>
		<rect x="804" y="691" class="st1" width="3.2" height="53.8"/>
		<line class="st1" x1="776.5" y1="741.5" x2="801.3" y2="741.5"/>
		<line class="st1" x1="776.5" y1="736.9" x2="801.3" y2="736.9"/>
		<line class="st1" x1="776.5" y1="732.3" x2="801.3" y2="732.3"/>
		<line class="st1" x1="776.5" y1="727.9" x2="801.3" y2="727.9"/>
		<line class="st1" x1="776.5" y1="723.1" x2="801.3" y2="723.1"/>
		<line class="st1" x1="776.5" y1="718.6" x2="801.3" y2="718.6"/>
		<line class="st1" x1="776.5" y1="713.9" x2="801.3" y2="713.9"/>
		<line class="st1" x1="776.5" y1="709.4" x2="801.3" y2="709.4"/>
		<line class="st1" x1="776.5" y1="704.6" x2="801.3" y2="704.6"/>
		<line class="st1" x1="776.5" y1="700.2" x2="801.3" y2="700.2"/>
		<line class="st1" x1="776.5" y1="695.7" x2="801.3" y2="695.7"/>
		<polyline class="st1" points="776.5,699.8 789,695.7 801.3,699.8 		"/>
		<line class="st1" x1="834.5" y1="695.7" x2="809.8" y2="695.7"/>
		<line class="st1" x1="834.5" y1="700.2" x2="809.8" y2="700.2"/>
		<line class="st1" x1="834.5" y1="704.8" x2="809.8" y2="704.8"/>
		<line class="st1" x1="834.5" y1="709.2" x2="809.8" y2="709.2"/>
		<line class="st1" x1="834.5" y1="714" x2="809.8" y2="714"/>
		<line class="st1" x1="834.5" y1="718.6" x2="809.8" y2="718.6"/>
		<line class="st1" x1="834.5" y1="723.3" x2="809.8" y2="723.3"/>
		<line class="st1" x1="834.5" y1="727.7" x2="809.8" y2="727.7"/>
		<line class="st1" x1="834.5" y1="732.5" x2="809.8" y2="732.5"/>
		<line class="st1" x1="834.5" y1="736.9" x2="809.8" y2="736.9"/>
		<line class="st1" x1="834.5" y1="741.5" x2="809.8" y2="741.5"/>
		<polyline class="st1" points="834.5,737.3 822.2,741.5 809.8,737.3 		"/>
	</g>
	<g>
		<rect x="269" y="155.1" class="st0" width="76.5" height="89.4"/>
		<rect x="305.5" y="155.1" class="st1" width="3.6" height="51.8"/>
		<line class="st1" x1="274.6" y1="158.3" x2="302.5" y2="158.3"/>
		<line class="st1" x1="274.6" y1="162.7" x2="302.5" y2="162.7"/>
		<line class="st1" x1="274.6" y1="167.1" x2="302.5" y2="167.1"/>
		<line class="st1" x1="274.6" y1="171.3" x2="302.5" y2="171.3"/>
		<line class="st1" x1="274.6" y1="175.9" x2="302.5" y2="175.9"/>
		<line class="st1" x1="274.6" y1="180.3" x2="302.5" y2="180.3"/>
		<line class="st1" x1="274.6" y1="184.8" x2="302.5" y2="184.8"/>
		<line class="st1" x1="274.6" y1="189.1" x2="302.5" y2="189.1"/>
		<line class="st1" x1="274.6" y1="193.7" x2="302.5" y2="193.7"/>
		<line class="st1" x1="274.6" y1="197.9" x2="302.5" y2="197.9"/>
		<line class="st1" x1="274.6" y1="202.3" x2="302.5" y2="202.3"/>
		<polyline class="st1" points="274.6,198.3 288.6,202.3 302.5,198.3 		"/>
		<line class="st1" x1="340" y1="202.3" x2="312" y2="202.3"/>
		<line class="st1" x1="340" y1="197.9" x2="312" y2="197.9"/>
		<line class="st1" x1="340" y1="193.5" x2="312" y2="193.5"/>
		<line class="st1" x1="340" y1="189.3" x2="312" y2="189.3"/>
		<line class="st1" x1="340" y1="184.7" x2="312" y2="184.7"/>
		<line class="st1" x1="340" y1="180.3" x2="312" y2="180.3"/>
		<line class="st1" x1="340" y1="175.8" x2="312" y2="175.8"/>
		<line class="st1" x1="340" y1="171.5" x2="312" y2="171.5"/>
		<line class="st1" x1="340" y1="166.9" x2="312" y2="166.9"/>
		<line class="st1" x1="340" y1="162.7" x2="312" y2="162.7"/>
		<line class="st1" x1="340" y1="158.3" x2="312" y2="158.3"/>
		<polyline class="st1" points="340,162.3 326,158.3 312,162.3 		"/>
	</g>
	<g>
		<rect x="764" y="156.1" class="st0" width="71" height="89.4"/>
		<rect x="797.8" y="156.1" class="st1" width="3.3" height="51.8"/>
		<line class="st1" x1="769.2" y1="159.3" x2="795.2" y2="159.3"/>
		<line class="st1" x1="769.2" y1="163.7" x2="795.2" y2="163.7"/>
		<line class="st1" x1="769.2" y1="168.1" x2="795.2" y2="168.1"/>
		<line class="st1" x1="769.2" y1="172.3" x2="795.2" y2="172.3"/>
		<line class="st1" x1="769.2" y1="176.9" x2="795.2" y2="176.9"/>
		<line class="st1" x1="769.2" y1="181.3" x2="795.2" y2="181.3"/>
		<line class="st1" x1="769.2" y1="185.8" x2="795.2" y2="185.8"/>
		<line class="st1" x1="769.2" y1="190.1" x2="795.2" y2="190.1"/>
		<line class="st1" x1="769.2" y1="194.7" x2="795.2" y2="194.7"/>
		<line class="st1" x1="769.2" y1="198.9" x2="795.2" y2="198.9"/>
		<line class="st1" x1="769.2" y1="203.3" x2="795.2" y2="203.3"/>
		<polyline class="st1" points="769.2,199.3 782.2,203.3 795.2,199.3 		"/>
		<line class="st1" x1="829.8" y1="203.3" x2="803.8" y2="203.3"/>
		<line class="st1" x1="829.8" y1="198.9" x2="803.8" y2="198.9"/>
		<line class="st1" x1="829.8" y1="194.5" x2="803.8" y2="194.5"/>
		<line class="st1" x1="829.8" y1="190.3" x2="803.8" y2="190.3"/>
		<line class="st1" x1="829.8" y1="185.7" x2="803.8" y2="185.7"/>
		<line class="st1" x1="829.8" y1="181.3" x2="803.8" y2="181.3"/>
		<line class="st1" x1="829.8" y1="176.8" x2="803.8" y2="176.8"/>
		<line class="st1" x1="829.8" y1="172.5" x2="803.8" y2="172.5"/>
		<line class="st1" x1="829.8" y1="167.9" x2="803.8" y2="167.9"/>
		<line class="st1" x1="829.8" y1="163.7" x2="803.8" y2="163.7"/>
		<line class="st1" x1="829.8" y1="159.3" x2="803.8" y2="159.3"/>
		<polyline class="st1" points="829.8,163.3 816.8,159.3 803.8,163.3 		"/>
	</g>
	<rect x="715.7" y="390" class="st2" width="2.6" height="14.3"/>
	<rect x="715.7" y="318.2" class="st2" width="2.6" height="14.3"/>
	<rect x="681.3" y="318.2" class="st2" width="2.6" height="14.3"/>
	<rect x="763" y="390" class="st2" width="2.6" height="14.3"/>
	<rect x="763" y="336.7" class="st2" width="2.6" height="14.3"/>
	<rect x="763" y="248.5" class="st2" width="2.6" height="14.3"/>
	<rect x="833.7" y="72.5" class="st2" width="2.6" height="14.3"/>
	<rect x="833.7" y="116.3" class="st2" width="2.6" height="14.3"/>
	<rect x="833.7" y="254" class="st2" width="2.6" height="14.3"/>
	<rect x="841" y="336.7" class="st2" width="2.6" height="14.3"/>
	<rect x="726.3" y="510.3" class="st2" width="28.6" height="2.6"/>
	<rect x="914.8" y="510.3" class="st2" width="28.6" height="2.6"/>
	<rect x="774.1" y="0.5" class="st2" width="28.6" height="2.6"/>
	<rect x="233.8" y="100.5" class="st2" width="33.4" height="2.6"/>
	<rect x="388.4" y="153.8" class="st2" width="14.3" height="2.6"/>
	<rect x="271.9" y="277.9" class="st2" width="2.6" height="14.3"/>
	<rect x="388.4" y="109.1" class="st2" width="14.3" height="2.6"/>
	<rect x="473.6" y="153.8" class="st2" width="14.3" height="2.6"/>
	<rect x="561.8" y="153.8" class="st2" width="14.3" height="2.6"/>
	<rect x="619.1" y="153.8" class="st2" width="14.3" height="2.6"/>
	<rect x="626.2" y="262.6" class="st2" width="14.3" height="2.6"/>
	<rect x="685.6" y="296" class="st2" width="14.3" height="2.6"/>
	<rect x="685.5" y="277.7" class="st2" width="14.3" height="2.6"/>
	<rect x="649.9" y="153.8" class="st2" width="14.3" height="2.6"/>
	<rect x="698.6" y="153.8" class="st2" width="14.3" height="2.6"/>
	<rect x="650" y="109" class="st2" width="14.3" height="2.6"/>
	<rect x="561.8" y="109.1" class="st2" width="14.3" height="2.6"/>
	<rect x="227.4" y="399.2" class="st2" width="2.6" height="33.4"/>
	<rect x="217.2" y="549" class="st2" width="2.6" height="32"/>
	<rect x="217.2" y="584.5" class="st2" width="2.6" height="32"/>
	<rect x="344.3" y="549" class="st2" width="2.6" height="32"/>
	<rect x="344.3" y="584.5" class="st2" width="2.6" height="32"/>
	<rect x="190.5" y="549" class="st2" width="2.6" height="32"/>
	<rect x="190.5" y="584.5" class="st2" width="2.6" height="32"/>
	<rect x="190.7" y="457.8" class="st2" width="2.6" height="14.3"/>
	<rect x="155.5" y="443.5" class="st2" width="14.3" height="2.6"/>
	<rect x="119.5" y="509.3" class="st2" width="14.3" height="2.6"/>
	<rect x="119.5" y="650.6" class="st2" width="14.3" height="2.6"/>
	<rect x="209.3" y="788.9" class="st2" width="14.3" height="2.6"/>
	<rect x="382.1" y="788.9" class="st2" width="14.3" height="2.6"/>
	<rect x="552.9" y="788.9" class="st2" width="14.3" height="2.6"/>
	<rect x="667.6" y="788.9" class="st2" width="14.3" height="2.6"/>
	<rect x="816.1" y="788.9" class="st2" width="14.3" height="2.6"/>
	<rect x="367.8" y="743.6" class="st2" width="14.3" height="2.6"/>
	<rect x="391.3" y="743.6" class="st2" width="14.3" height="2.6"/>
	<rect x="439.5" y="743.6" class="st2" width="14.3" height="2.6"/>
	<rect x="460.3" y="743.6" class="st2" width="14.3" height="2.6"/>
	<rect x="508.2" y="743.5" class="st2" width="14.3" height="2.6"/>
	<rect x="551.1" y="743.6" class="st2" width="14.3" height="2.6"/>
	<rect x="587.8" y="743.5" class="st2" width="14.3" height="2.6"/>
	<rect x="723.8" y="743.5" class="st2" width="14.3" height="2.6"/>
	<rect x="844.3" y="743.5" class="st2" width="14.3" height="2.6"/>
	<rect x="666.3" y="743.5" class="st2" width="14.3" height="2.6"/>
	<rect x="232.3" y="797.1" class="st2" width="33.4" height="2.6"/>
	<rect x="894.5" y="751.5" class="st2" width="2.6" height="32"/>
	<rect x="273.1" y="263.9" class="st0" width="31.5" height="38.8"/>
	<g>
		<rect x="271.9" y="651.8" class="st0" width="73.8" height="93"/>
		<rect x="305.5" y="693.1" class="st1" width="3.6" height="51.8"/>
		<line class="st1" x1="274.6" y1="741.6" x2="302.5" y2="741.6"/>
		<line class="st1" x1="274.6" y1="737.2" x2="302.5" y2="737.2"/>
		<line class="st1" x1="274.6" y1="732.8" x2="302.5" y2="732.8"/>
		<line class="st1" x1="274.6" y1="728.6" x2="302.5" y2="728.6"/>
		<line class="st1" x1="274.6" y1="724" x2="302.5" y2="724"/>
		<line class="st1" x1="274.6" y1="719.6" x2="302.5" y2="719.6"/>
		<line class="st1" x1="274.6" y1="715.1" x2="302.5" y2="715.1"/>
		<line class="st1" x1="274.6" y1="710.8" x2="302.5" y2="710.8"/>
		<line class="st1" x1="274.6" y1="706.2" x2="302.5" y2="706.2"/>
		<line class="st1" x1="274.6" y1="702" x2="302.5" y2="702"/>
		<line class="st1" x1="274.6" y1="697.6" x2="302.5" y2="697.6"/>
		<polyline class="st1" points="274.6,701.6 288.6,697.6 302.5,701.6 		"/>
		<line class="st1" x1="340" y1="697.6" x2="312" y2="697.6"/>
		<line class="st1" x1="340" y1="702" x2="312" y2="702"/>
		<line class="st1" x1="340" y1="706.4" x2="312" y2="706.4"/>
		<line class="st1" x1="340" y1="710.6" x2="312" y2="710.6"/>
		<line class="st1" x1="340" y1="715.2" x2="312" y2="715.2"/>
		<line class="st1" x1="340" y1="719.6" x2="312" y2="719.6"/>
		<line class="st1" x1="340" y1="724.1" x2="312" y2="724.1"/>
		<line class="st1" x1="340" y1="728.4" x2="312" y2="728.4"/>
		<line class="st1" x1="340" y1="733" x2="312" y2="733"/>
		<line class="st1" x1="340" y1="737.2" x2="312" y2="737.2"/>
		<line class="st1" x1="340" y1="741.6" x2="312" y2="741.6"/>
		<polyline class="st1" points="340,737.6 326,741.6 312,737.6 		"/>
	</g>
	<polygon class="st1" points="895.8,1.7 345.5,1.7 345.5,101.6 228.8,101.6 228.8,19 102.2,19 102.2,510.6 192,510.6 192,651.8 
		102.2,651.8 102.2,879 228.8,879 228.8,798.6 345.5,798.6 345.5,900.1 895.8,900.1 895.8,651.8 345.5,651.8 345.5,263.9 
		612.8,263.9 612.8,511.6 1124.8,511.6 1124.8,276.8 895.8,276.8 	"/>
</g>
<g id="Label">
	<g>
		<path class="st2" d="M424.7,600.5h-28.1v-51.4h28.1v3.3h-24.5v19.4h23.1v3.3h-23.1v22h24.5V600.5z"/>
		<path class="st2" d="M456.5,574.6h18.9V598c-5,2.1-10.6,3.2-16.8,3.2c-8.1,0-14.3-2.3-18.7-6.9s-6.5-11.1-6.5-19.5
			c0-5.2,1.1-9.9,3.2-13.9s5.2-7.2,9.2-9.4s8.6-3.3,13.8-3.3c5.6,0,10.6,1,15.1,3.1l-1.4,3.2c-4.5-2.1-9.1-3.1-13.9-3.1
			c-6.8,0-12.1,2.1-16.1,6.3s-6,9.8-6,16.9c0,7.7,1.9,13.6,5.7,17.5s9.3,5.9,16.6,5.9c4.7,0,8.8-0.7,12.1-2v-18.1h-15.3L456.5,574.6
			L456.5,574.6L456.5,574.6z"/>
	</g>
	<g>
		<path class="st2" d="M386.6,56h-7V43.2h7V44h-6.1v4.9h5.8v0.8h-5.8v5.5h6.1V56z"/>
		<path class="st2" d="M389.1,55.3c0-0.6,0.2-0.9,0.7-0.9s0.7,0.3,0.7,0.9s-0.2,0.9-0.7,0.9S389.1,55.9,389.1,55.3z"/>
		<path class="st2" d="M403.1,56h-0.9v-6.3h-7.5V56h-0.9V43.2h0.9v5.7h7.5v-5.7h0.9V56z"/>
		<path class="st2" d="M411.9,49.6h4.7v5.9c-1.2,0.5-2.6,0.8-4.2,0.8c-2,0-3.6-0.6-4.7-1.7s-1.6-2.8-1.6-4.9c0-1.3,0.3-2.5,0.8-3.5
			s1.3-1.8,2.3-2.3s2.1-0.8,3.4-0.8c1.4,0,2.7,0.3,3.8,0.8l-0.4,0.8c-1.1-0.5-2.3-0.8-3.5-0.8c-1.7,0-3,0.5-4,1.6S407,48,407,49.7
			c0,1.9,0.5,3.4,1.4,4.4s2.3,1.5,4.2,1.5c1.2,0,2.2-0.2,3-0.5v-4.5h-3.8L411.9,49.6C411.8,49.6,411.9,49.6,411.9,49.6z"/>
		<path class="st2" d="M419.4,55.3c0-0.6,0.2-0.9,0.7-0.9s0.7,0.3,0.7,0.9s-0.2,0.9-0.7,0.9S419.4,55.9,419.4,55.3z"/>
		<path class="st2" d="M431.5,49.6c0,2.3-0.3,3.9-1,5s-1.7,1.6-3.1,1.6c-1.3,0-2.4-0.6-3.1-1.7s-1-2.8-1-5s0.3-3.9,1-5
			s1.7-1.6,3.1-1.6s2.4,0.6,3.1,1.7S431.5,47.4,431.5,49.6z M424.2,49.6c0,2,0.3,3.5,0.8,4.4s1.3,1.4,2.4,1.4s1.9-0.5,2.4-1.5
			s0.8-2.4,0.8-4.4c0-1.9-0.3-3.3-0.8-4.3s-1.3-1.5-2.4-1.5s-1.9,0.5-2.4,1.5S424.2,47.7,424.2,49.6z"/>
		<path class="st2" d="M441.8,49.6c0,2.3-0.3,3.9-1,5s-1.7,1.6-3.1,1.6c-1.3,0-2.4-0.6-3.1-1.7s-1-2.8-1-5s0.3-3.9,1-5
			s1.7-1.6,3.1-1.6s2.4,0.6,3.1,1.7S441.8,47.4,441.8,49.6z M434.5,49.6c0,2,0.3,3.5,0.8,4.4s1.3,1.4,2.4,1.4s1.9-0.5,2.4-1.5
			s0.8-2.4,0.8-4.4c0-1.9-0.3-3.3-0.8-4.3s-1.3-1.5-2.4-1.5s-1.9,0.5-2.4,1.5S434.5,47.7,434.5,49.6z"/>
		<path class="st2" d="M452.8,52.8h-2.2v3.3h-0.8v-3.3h-6.6v-0.6l6.4-9.1h1.1V52h2.2v0.8H452.8z M449.8,52v-3.7c0-1.8,0-3.3,0.1-4.5
			h-0.1c-0.1,0.2-0.5,0.8-1.1,1.7l-4.5,6.5H449.8z"/>
	</g>
	<g>
		<path class="st2" d="M393.2,238.7v7h-12.8v-7h0.8v6.1h4.9V239h0.8v5.8h5.5v-6.1H393.2z"/>
		<path class="st2" d="M392.5,236.2c-0.6,0-0.9-0.2-0.9-0.7s0.3-0.7,0.9-0.7s0.9,0.2,0.9,0.7C393.5,236,393.1,236.2,392.5,236.2z"/>
		<path class="st2" d="M393.2,222.2v0.9H387v7.5h6.3v0.9h-12.8v-0.9h5.7v-7.5h-5.7v-0.9H393.2z"/>
		<path class="st2" d="M386.9,213.5v-4.7h5.9c0.5,1.2,0.8,2.6,0.8,4.2c0,2-0.6,3.6-1.7,4.7s-2.8,1.6-4.9,1.6c-1.3,0-2.5-0.3-3.5-0.8
			s-1.8-1.3-2.3-2.3s-0.8-2.1-0.8-3.4c0-1.4,0.3-2.7,0.8-3.8l0.8,0.4c-0.5,1.1-0.8,2.3-0.8,3.5c0,1.7,0.5,3,1.6,4s2.5,1.5,4.2,1.5
			c1.9,0,3.4-0.5,4.4-1.4s1.5-2.3,1.5-4.2c0-1.2-0.2-2.2-0.5-3h-4.5v3.8h-1V213.5z"/>
		<path class="st2" d="M392.5,206c-0.6,0-0.9-0.2-0.9-0.7s0.3-0.7,0.9-0.7s0.9,0.2,0.9,0.7C393.5,205.7,393.1,206,392.5,206z"/>
		<path class="st2" d="M393.2,197.6v0.9h-9.4c-0.8,0-1.7,0-2.6-0.1c0.1,0.1,0.2,0.2,0.3,0.3s0.8,1,2.1,2.7l-0.6,0.5l-2.6-3.5v-0.8
			L393.2,197.6L393.2,197.6z"/>
		<path class="st2" d="M385.5,188.6c0-1.4,0.3-2.5,1-3.2s1.6-1.2,2.7-1.2c1.3,0,2.3,0.4,3.1,1.2s1.1,2,1.1,3.4
			c0,0.6-0.1,1.2-0.2,1.8s-0.3,1.1-0.5,1.4h-0.9c0.3-0.6,0.5-1.2,0.7-1.7s0.2-1,0.2-1.6c0-1.1-0.3-2-0.9-2.7s-1.4-1-2.4-1
			s-1.7,0.3-2.2,1s-0.8,1.6-0.8,2.7c0,0.8,0.1,1.6,0.3,2.4l-0.3,0.5l-5.9-0.5v-6.2h0.8v5.4l4.5,0.4
			C385.6,189.8,385.5,189.1,385.5,188.6z"/>
		<path class="st2" d="M393.5,177.6c0,1.4-0.4,2.4-1.3,3.2s-2.1,1.2-3.6,1.2c-1.6,0-2.8-0.4-3.7-1.2s-1.3-1.9-1.3-3.3
			c0-0.8,0.1-1.6,0.4-2.4l0.8,0.2c-0.3,0.8-0.4,1.5-0.4,2.2c0,1.2,0.4,2.1,1.1,2.7s1.8,0.9,3.1,0.9c1.3,0,2.3-0.3,3-0.9
			s1.1-1.4,1.1-2.5c0-0.9-0.2-1.7-0.5-2.4h0.8C393.4,175.8,393.5,176.6,393.5,177.6z"/>
	</g>
	<g>
		<path class="st2" d="M869,82.8v7h-12.8v-7h0.8v6.1h4.9v-5.8h0.8v5.8h5.5v-6.1H869z"/>
		<path class="st2" d="M868.3,80.3c-0.6,0-0.9-0.2-0.9-0.7s0.3-0.7,0.9-0.7s0.9,0.2,0.9,0.7S869,80.3,868.3,80.3z"/>
		<path class="st2" d="M869,66.3v0.9h-6.3v7.5h6.3v0.9h-12.8v-0.9h5.7v-7.5h-5.7v-0.9H869z"/>
		<path class="st2" d="M862.5,57.6v-4.7h5.9c0.5,1.2,0.8,2.6,0.8,4.2c0,2-0.6,3.6-1.7,4.7c-1.1,1.1-2.8,1.6-4.9,1.6
			c-1.3,0-2.5-0.3-3.5-0.8s-1.8-1.3-2.3-2.3s-0.8-2.1-0.8-3.4c0-1.4,0.3-2.7,0.8-3.8l0.8,0.4c-0.5,1.1-0.8,2.3-0.8,3.5
			c0,1.7,0.5,3,1.6,4c1,1,2.5,1.5,4.2,1.5c1.9,0,3.4-0.5,4.4-1.4s1.5-2.3,1.5-4.2c0-1.2-0.2-2.2-0.5-3h-4.5v3.8L862.5,57.6
			L862.5,57.6z"/>
		<path class="st2" d="M868.3,50.1c-0.6,0-0.9-0.2-0.9-0.7s0.3-0.7,0.9-0.7s0.9,0.2,0.9,0.7C869.2,49.8,869,50.1,868.3,50.1z"/>
		<path class="st2" d="M862.5,37.9c2.3,0,3.9,0.3,5,1s1.6,1.7,1.6,3.1c0,1.3-0.6,2.4-1.7,3.1s-2.8,1-5,1s-3.9-0.3-5-1
			s-1.6-1.7-1.6-3.1c0-1.4,0.6-2.4,1.7-3.1S860.5,37.9,862.5,37.9z M862.5,45.2c2,0,3.5-0.3,4.4-0.8s1.4-1.3,1.4-2.4
			c0-1.1-0.5-1.9-1.5-2.4s-2.4-0.8-4.4-0.8c-1.9,0-3.3,0.3-4.3,0.8s-1.5,1.3-1.5,2.4s0.5,1.9,1.5,2.4S860.7,45.2,862.5,45.2z"/>
		<path class="st2" d="M862.5,27.7c2.3,0,3.9,0.3,5,1s1.6,1.7,1.6,3.1c0,1.3-0.6,2.4-1.7,3.1s-2.8,1-5,1s-3.9-0.3-5-1
			s-1.6-1.7-1.6-3.1s0.6-2.4,1.7-3.1S860.5,27.7,862.5,27.7z M862.5,35c2,0,3.5-0.3,4.4-0.8s1.4-1.3,1.4-2.4s-0.5-1.9-1.5-2.4
			s-2.4-0.8-4.4-0.8c-1.9,0-3.3,0.3-4.3,0.8s-1.5,1.3-1.5,2.4s0.5,1.9,1.5,2.4S860.7,35,862.5,35z"/>
		<path class="st2" d="M869,23.7l-12-5.3v7.3h-0.8v-8.3h0.6l12.2,5.3V23.7z"/>
	</g>
	<g>
		<path class="st2" d="M869,180.5v7h-12.8v-7h0.8v6.1h4.9v-5.8h0.8v5.8h5.5v-6.1H869L869,180.5z"/>
		<path class="st2" d="M868.3,177.9c-0.6,0-0.9-0.2-0.9-0.7s0.3-0.7,0.9-0.7s0.9,0.2,0.9,0.7S869,177.9,868.3,177.9z"/>
		<path class="st2" d="M869,164v0.9h-6.3v7.5h6.3v0.9h-12.8v-0.9h5.7v-7.5h-5.7V164H869z"/>
		<path class="st2" d="M862.5,155.3v-4.7h5.9c0.5,1.2,0.8,2.6,0.8,4.2c0,2-0.6,3.6-1.7,4.7c-1.1,1.1-2.8,1.6-4.9,1.6
			c-1.3,0-2.5-0.3-3.5-0.8s-1.8-1.3-2.3-2.3s-0.8-2.1-0.8-3.4c0-1.4,0.3-2.7,0.8-3.8l0.8,0.4c-0.5,1.1-0.8,2.3-0.8,3.5
			c0,1.7,0.5,3,1.6,4c1,1,2.5,1.5,4.2,1.5c1.9,0,3.4-0.5,4.4-1.4s1.5-2.3,1.5-4.2c0-1.2-0.2-2.2-0.5-3h-4.5v3.8h-1V155.3z"/>
		<path class="st2" d="M868.3,147.7c-0.6,0-0.9-0.2-0.9-0.7s0.3-0.7,0.9-0.7s0.9,0.2,0.9,0.7S869,147.7,868.3,147.7z"/>
		<path class="st2" d="M862.5,135.6c2.3,0,3.9,0.3,5,1s1.6,1.7,1.6,3.1c0,1.3-0.6,2.4-1.7,3.1s-2.8,1-5,1s-3.9-0.3-5-1
			s-1.6-1.7-1.6-3.1s0.6-2.4,1.7-3.1S860.5,135.6,862.5,135.6z M862.5,142.9c2,0,3.5-0.3,4.4-0.8s1.4-1.3,1.4-2.4s-0.5-1.9-1.5-2.4
			s-2.4-0.8-4.4-0.8c-1.9,0-3.3,0.3-4.3,0.8s-1.5,1.3-1.5,2.4s0.5,1.9,1.5,2.4S860.7,142.9,862.5,142.9z"/>
		<path class="st2" d="M862.5,125.3c2.3,0,3.9,0.3,5,1s1.6,1.7,1.6,3.1c0,1.3-0.6,2.4-1.7,3.1s-2.8,1-5,1s-3.9-0.3-5-1
			s-1.6-1.7-1.6-3.1s0.6-2.4,1.7-3.1S860.5,125.3,862.5,125.3z M862.5,132.6c2,0,3.5-0.3,4.4-0.8s1.4-1.3,1.4-2.4s-0.5-1.9-1.5-2.4
			s-2.4-0.8-4.4-0.8c-1.9,0-3.3,0.3-4.3,0.8s-1.5,1.3-1.5,2.4s0.5,1.9,1.5,2.4S860.7,132.6,862.5,132.6z"/>
		<path class="st2" d="M856,119.2c0-1.1,0.3-2,0.8-2.6c0.6-0.7,1.3-1,2.3-1c0.7,0,1.2,0.2,1.7,0.6s1,1.1,1.4,2
			c0.5-1.1,1-1.9,1.5-2.4s1.2-0.7,2-0.7c1.1,0,1.9,0.4,2.5,1.1s0.9,1.7,0.9,3s-0.3,2.3-0.9,3s-1.5,1-2.6,1c-0.8,0-1.4-0.2-2-0.7
			s-1.1-1.2-1.5-2.3c-0.4,0.9-0.9,1.6-1.4,2s-1.1,0.6-1.8,0.6c-0.6,0-1.2-0.2-1.6-0.5s-0.8-0.7-1.1-1.3
			C856,120.5,856,119.9,856,119.2z M856.8,119.2c0,0.8,0.2,1.5,0.6,2c0.4,0.5,1,0.8,1.7,0.8c0.4,0,0.8-0.1,1.1-0.3
			c0.3-0.2,0.6-0.5,0.9-0.8s0.6-0.9,0.9-1.8c-0.4-1-0.8-1.6-1.2-2.1s-1-0.6-1.6-0.6c-0.7,0-1.3,0.2-1.7,0.7S856.8,118.3,856.8,119.2
			z M865.8,122.3c0.8,0,1.4-0.3,1.9-0.8s0.7-1.3,0.7-2.3s-0.2-1.7-0.7-2.3s-1.1-0.9-1.9-0.9c-0.7,0-1.3,0.2-1.8,0.7
			s-0.9,1.3-1.4,2.7c0.4,1.1,0.9,1.8,1.4,2.3S865.2,122.3,865.8,122.3z"/>
	</g>
	<g>
		<path class="st2" d="M869,265.3v7h-12.8v-7h0.8v6.1h4.9v-5.8h0.8v5.8h5.5v-6.1H869z"/>
		<path class="st2" d="M868.3,262.8c-0.6,0-0.9-0.2-0.9-0.7s0.3-0.7,0.9-0.7s0.9,0.2,0.9,0.7C869.2,262.5,869,262.8,868.3,262.8z"/>
		<path class="st2" d="M869,248.8v0.9h-6.3v7.5h6.3v0.9h-12.8v-0.9h5.7v-7.5h-5.7v-0.9L869,248.8L869,248.8z"/>
		<path class="st2" d="M862.5,240.1v-4.7h5.9c0.5,1.2,0.8,2.6,0.8,4.2c0,2-0.6,3.6-1.7,4.7c-1.1,1.1-2.8,1.6-4.9,1.6
			c-1.3,0-2.5-0.3-3.5-0.8s-1.8-1.3-2.3-2.3s-0.8-2.1-0.8-3.4c0-1.4,0.3-2.7,0.8-3.8l0.8,0.4c-0.5,1.1-0.8,2.3-0.8,3.5
			c0,1.7,0.5,3,1.6,4c1,1,2.5,1.5,4.2,1.5c1.9,0,3.4-0.5,4.4-1.4s1.5-2.3,1.5-4.2c0-1.2-0.2-2.2-0.5-3h-4.5v3.8h-1V240.1z"/>
		<path class="st2" d="M868.3,232.5c-0.6,0-0.9-0.2-0.9-0.7s0.3-0.7,0.9-0.7s0.9,0.2,0.9,0.7S869,232.5,868.3,232.5z"/>
		<path class="st2" d="M862.5,220.4c2.3,0,3.9,0.3,5,1s1.6,1.7,1.6,3.1c0,1.3-0.6,2.4-1.7,3.1s-2.8,1-5,1s-3.9-0.3-5-1
			s-1.6-1.7-1.6-3.1s0.6-2.4,1.7-3.1S860.5,220.4,862.5,220.4z M862.5,227.7c2,0,3.5-0.3,4.4-0.8s1.4-1.3,1.4-2.4s-0.5-1.9-1.5-2.4
			s-2.4-0.8-4.4-0.8c-1.9,0-3.3,0.3-4.3,0.8s-1.5,1.3-1.5,2.4s0.5,1.9,1.5,2.4S860.7,227.7,862.5,227.7z"/>
		<path class="st2" d="M862.5,210.1c2.3,0,3.9,0.3,5,1s1.6,1.7,1.6,3.1c0,1.3-0.6,2.4-1.7,3.1s-2.8,1-5,1s-3.9-0.3-5-1
			s-1.6-1.7-1.6-3.1s0.6-2.4,1.7-3.1S860.5,210.1,862.5,210.1z M862.5,217.4c2,0,3.5-0.3,4.4-0.8s1.4-1.3,1.4-2.4s-0.5-1.9-1.5-2.4
			s-2.4-0.8-4.4-0.8c-1.9,0-3.3,0.3-4.3,0.8s-1.5,1.3-1.5,2.4s0.5,1.9,1.5,2.4S860.7,217.4,862.5,217.4z"/>
		<path class="st2" d="M861.7,200c1.7,0,3.1,0.2,4.2,0.7s2,1.1,2.5,1.9s0.8,1.9,0.8,3.1c0,0.6-0.1,1.2-0.2,1.7h-0.7
			c0.1-0.3,0.1-0.6,0.2-0.9s0.1-0.6,0.1-0.8c0-1.4-0.5-2.6-1.6-3.4s-2.6-1.3-4.6-1.4v0.1c0.6,0.4,1,0.9,1.3,1.5s0.5,1.2,0.5,1.9
			c0,1.2-0.3,2.1-1,2.8s-1.6,1-2.8,1c-1.3,0-2.3-0.4-3.1-1.1s-1.2-1.7-1.2-2.8c0-0.8,0.2-1.6,0.7-2.2s1.1-1.1,1.9-1.5
			C859.5,200.2,860.5,200,861.7,200z M856.8,204.2c0,0.9,0.3,1.7,0.9,2.2s1.5,0.8,2.6,0.8c1,0,1.8-0.3,2.3-0.8s0.8-1.2,0.8-2.2
			c0-0.6-0.1-1.1-0.4-1.7c-0.3-0.5-0.6-0.9-1.1-1.2s-0.9-0.5-1.3-0.5c-0.7,0-1.3,0.1-1.9,0.4c-0.6,0.3-1.1,0.7-1.4,1.1
			C857,203,856.8,203.6,856.8,204.2z"/>
	</g>
	<g>
		<path class="st2" d="M657,341.7v7h-12.8v-7h0.8v6.1h4.9V342h0.8v5.8h5.5v-6.1L657,341.7L657,341.7z"/>
		<path class="st2" d="M656.5,339.2c-0.6,0-0.9-0.2-0.9-0.7s0.3-0.7,0.9-0.7s0.9,0.2,0.9,0.7C657.2,339,657,339.2,656.5,339.2z"/>
		<path class="st2" d="M657,325.2v0.9h-6.3v7.5h6.3v0.9h-12.8v-0.9h5.7v-7.5h-5.7v-0.9H657z"/>
		<path class="st2" d="M650.7,316.5v-4.7h5.9c0.5,1.2,0.8,2.6,0.8,4.2c0,2-0.6,3.6-1.7,4.7c-1.1,1.1-2.8,1.6-4.9,1.6
			c-1.3,0-2.5-0.3-3.5-0.8s-1.8-1.3-2.3-2.3s-0.8-2.1-0.8-3.4c0-1.4,0.3-2.7,0.8-3.8l0.8,0.4c-0.5,1.1-0.8,2.3-0.8,3.5
			c0,1.7,0.5,3,1.6,4c1,1,2.5,1.5,4.2,1.5c1.9,0,3.4-0.5,4.4-1.4s1.5-2.3,1.5-4.2c0-1.2-0.2-2.2-0.5-3h-4.5v3.8h-1V316.5z"/>
		<path class="st2" d="M656.5,309c-0.6,0-0.9-0.2-0.9-0.7s0.3-0.7,0.9-0.7s0.9,0.2,0.9,0.7C657.2,308.7,657,309,656.5,309z"/>
		<path class="st2" d="M650.7,296.8c2.3,0,3.9,0.3,5,1s1.6,1.7,1.6,3.1c0,1.3-0.6,2.4-1.7,3.1s-2.8,1-5,1s-3.9-0.3-5-1
			s-1.6-1.7-1.6-3.1s0.6-2.4,1.7-3.1S648.5,296.8,650.7,296.8z M650.7,304.1c2,0,3.5-0.3,4.4-0.8s1.4-1.3,1.4-2.4s-0.5-1.9-1.5-2.4
			s-2.4-0.8-4.4-0.8c-1.9,0-3.3,0.3-4.3,0.8s-1.5,1.3-1.5,2.4s0.5,1.9,1.5,2.4S648.8,304.1,650.7,304.1z"/>
		<path class="st2" d="M657,289.8v0.9h-9.4c-0.8,0-1.7,0-2.6-0.1c0.1,0.1,0.2,0.2,0.3,0.3s0.8,1,2.1,2.7l-0.6,0.5l-2.6-3.5v-0.8H657
			z"/>
		<path class="st2" d="M653.8,275.5v2.2h3.3v0.8h-3.3v6.6h-0.6l-9.1-6.4v-1.1h8.9v-2.2h0.8L653.8,275.5L653.8,275.5z M653,278.6
			h-3.7c-1.8,0-3.3,0-4.5-0.1v0.1c0.2,0.1,0.8,0.5,1.7,1.1l6.5,4.5V278.6z"/>
	</g>
	<g>
		<path class="st2" d="M635.2,450.8h-7V438h7v0.8h-6.1v4.9h5.8v0.8h-5.8v5.5h6.1V450.8z"/>
		<path class="st2" d="M637.7,450.1c0-0.6,0.2-0.9,0.7-0.9s0.7,0.3,0.7,0.9s-0.2,0.9-0.7,0.9C638,451,637.7,450.7,637.7,450.1z"/>
		<path class="st2" d="M651.7,450.8h-0.9v-6.3h-7.5v6.3h-0.9V438h0.9v5.7h7.5V438h0.9V450.8z"/>
		<path class="st2" d="M660.3,444.3h4.7v5.9c-1.2,0.5-2.6,0.8-4.2,0.8c-2,0-3.6-0.6-4.7-1.7c-1.1-1.1-1.6-2.8-1.6-4.9
			c0-1.3,0.3-2.5,0.8-3.5s1.3-1.8,2.3-2.3s2.1-0.8,3.4-0.8c1.4,0,2.7,0.3,3.8,0.8l-0.4,0.8c-1.1-0.5-2.3-0.8-3.5-0.8
			c-1.7,0-3,0.5-4,1.6c-1,1-1.5,2.5-1.5,4.2c0,1.9,0.5,3.4,1.4,4.4s2.3,1.5,4.2,1.5c1.2,0,2.2-0.2,3-0.5v-4.5h-3.8L660.3,444.3
			L660.3,444.3z"/>
		<path class="st2" d="M668,450.1c0-0.6,0.2-0.9,0.7-0.9s0.7,0.3,0.7,0.9s-0.2,0.9-0.7,0.9S668,450.7,668,450.1z"/>
		<path class="st2" d="M680,444.3c0,2.3-0.3,3.9-1,5s-1.7,1.6-3.1,1.6c-1.3,0-2.4-0.6-3.1-1.7s-1-2.8-1-5s0.3-3.9,1-5
			s1.7-1.6,3.1-1.6c1.4,0,2.4,0.6,3.1,1.7S680,442.2,680,444.3z M672.8,444.3c0,2,0.3,3.5,0.8,4.4s1.3,1.4,2.4,1.4
			c1.1,0,1.9-0.5,2.4-1.5s0.8-2.4,0.8-4.4c0-1.9-0.3-3.3-0.8-4.3s-1.3-1.5-2.4-1.5s-1.9,0.5-2.4,1.5S672.8,442.4,672.8,444.3z"/>
		<path class="st2" d="M687,450.8h-0.9v-9.4c0-0.8,0-1.7,0.1-2.6c-0.1,0.1-0.2,0.2-0.3,0.3s-1,0.8-2.7,2.1l-0.5-0.6l3.5-2.6h0.8
			L687,450.8L687,450.8z"/>
		<path class="st2" d="M700,441c0,0.8-0.3,1.5-0.8,2s-1.2,0.9-2,1v0.1c1,0.1,1.8,0.5,2.4,1s0.8,1.2,0.8,2.1c0,1.2-0.4,2.1-1.2,2.8
			s-2,1-3.5,1c-1.3,0-2.4-0.2-3.4-0.7v-0.9c0.5,0.3,1,0.5,1.7,0.6s1.2,0.2,1.7,0.2c1.3,0,2.3-0.3,2.9-0.8s1-1.3,1-2.2
			c0-0.8-0.3-1.5-1-2s-1.6-0.7-2.9-0.7h-1.4v-0.8h1.4c1.1,0,1.9-0.3,2.5-0.8s0.9-1.2,0.9-2.1c0-0.7-0.3-1.3-0.8-1.7s-1.2-0.6-2-0.6
			c-0.6,0-1.2,0.1-1.7,0.3s-1.1,0.5-1.8,0.9l-0.4-0.6c0.5-0.4,1.1-0.7,1.8-1s1.4-0.4,2.1-0.4c1.2,0,2.1,0.3,2.7,0.8S700,440,700,441
			z"/>
	</g>
	<g>
		<path class="st2" d="M123.4,718.3c0,1.4-0.5,2.6-1.6,3.4s-2.4,1.3-4.2,1.3c-2.1,0-3.7-0.2-4.8-0.7v-1.2c1.2,0.5,2.8,0.8,4.7,0.8
			c1.4,0,2.5-0.3,3.3-1s1.2-1.5,1.2-2.5c0-0.6-0.1-1.2-0.4-1.6s-0.7-0.8-1.3-1.2s-1.5-0.7-2.7-1.1c-1.8-0.6-3-1.3-3.6-2
			s-1-1.6-1-2.8c0-1.3,0.5-2.3,1.5-3.1s2.3-1.2,3.9-1.2s3.1,0.3,4.5,0.9l-0.4,1c-1.4-0.6-2.8-0.9-4.1-0.9s-2.3,0.3-3,0.9
			s-1.1,1.4-1.1,2.4c0,0.6,0.1,1.2,0.3,1.6s0.6,0.8,1.1,1.1s1.4,0.7,2.7,1.2s2.3,0.9,3,1.3s1.2,0.9,1.5,1.5S123.4,717.6,123.4,718.3
			z"/>
		<path class="st2" d="M131.9,723c-1.9,0-3.3-0.6-4.3-1.7s-1.6-2.7-1.6-4.8c0-2,0.5-3.7,1.5-4.9c1-1.2,2.3-1.8,4-1.8
			c1.5,0,2.7,0.5,3.6,1.6s1.3,2.5,1.3,4.3v0.9h-9.2c0,1.8,0.4,3.1,1.2,4c0.8,0.9,1.9,1.4,3.4,1.4c0.7,0,1.4-0.1,1.9-0.2
			s1.2-0.3,2.1-0.7v1.1c-0.7,0.3-1.4,0.5-2,0.6S132.6,723,131.9,723z M131.6,710.8c-1.2,0-2.2,0.4-3,1.2s-1.2,2-1.3,3.5h7.9
			c0-1.5-0.3-2.6-1-3.5S132.6,710.8,131.6,710.8z"/>
		<path class="st2" d="M144.9,709.8c0.5,0,1.1,0.1,1.7,0.2l-0.2,1.1c-0.5-0.1-1.1-0.2-1.7-0.2c-1.1,0-2,0.5-2.7,1.4s-1,2.1-1,3.5v7
			h-1.2v-12.7h1l0.1,2.3h0.1c0.5-0.9,1.1-1.6,1.7-2S144.1,709.8,144.9,709.8z"/>
		<path class="st2" d="M151.6,722.8l-4.9-12.7h1.2l3.3,8.7c0.4,1.1,0.8,2.1,1,2.9h0.1c0.3-1.1,0.6-2,1-2.9l3.3-8.6h1.2l-4.9,12.7
			h-1.3L151.6,722.8L151.6,722.8z"/>
		<path class="st2" d="M159.6,706.5c0-0.8,0.2-1.1,0.7-1.1c0.2,0,0.4,0.1,0.6,0.3s0.2,0.5,0.2,0.8c0,0.4-0.1,0.6-0.2,0.8
			s-0.3,0.3-0.6,0.3C159.9,707.6,159.6,707.2,159.6,706.5z M160.9,722.8h-1.2v-12.7h1.2V722.8z"/>
		<path class="st2" d="M170.2,723c-1.8,0-3.2-0.6-4.3-1.7s-1.5-2.8-1.5-4.8c0-2.1,0.5-3.8,1.6-4.9s2.5-1.8,4.4-1.8
			c1.1,0,2.2,0.2,3.2,0.6l-0.3,1c-1.1-0.4-2.1-0.6-2.9-0.6c-1.6,0-2.7,0.5-3.6,1.4s-1.2,2.4-1.2,4.2c0,1.7,0.4,3.1,1.2,4
			s1.9,1.5,3.4,1.5c1.2,0,2.2-0.2,3.2-0.6v1.1C172.6,722.8,171.5,723,170.2,723z"/>
		<path class="st2" d="M181.8,723c-1.9,0-3.3-0.6-4.3-1.7s-1.6-2.7-1.6-4.8c0-2,0.5-3.7,1.5-4.9s2.3-1.8,4-1.8
			c1.5,0,2.7,0.5,3.6,1.6s1.3,2.5,1.3,4.3v0.9H177c0,1.8,0.4,3.1,1.2,4s1.9,1.4,3.4,1.4c0.7,0,1.4-0.1,1.9-0.2s1.2-0.3,2.1-0.7v1.1
			c-0.7,0.3-1.4,0.5-2,0.6S182.5,723,181.8,723z M181.4,710.8c-1.2,0-2.2,0.4-3,1.2s-1.2,2-1.3,3.5h7.9c0-1.5-0.3-2.6-1-3.5
			S182.5,710.8,181.4,710.8z"/>
		<path class="st2" d="M121.2,735.3c-2.1,0-3.8,0.7-5.1,2.1s-1.9,3.3-1.9,5.6c0,2.4,0.6,4.3,1.7,5.7s2.8,2,5,2c1.4,0,2.8-0.2,4-0.6
			v1.1c-1.1,0.4-2.5,0.6-4.2,0.6c-2.4,0-4.3-0.8-5.7-2.3s-2.1-3.7-2.1-6.5c0-1.7,0.3-3.3,1-4.6s1.6-2.4,2.8-3.1s2.7-1.1,4.3-1.1
			c1.7,0,3.2,0.3,4.5,0.9l-0.5,1.1C123.9,735.6,122.6,735.3,121.2,735.3z"/>
		<path class="st2" d="M133.6,751.8c-1.9,0-3.3-0.6-4.3-1.7s-1.6-2.7-1.6-4.8c0-2,0.5-3.7,1.5-4.9s2.3-1.8,4-1.8
			c1.5,0,2.7,0.5,3.6,1.6s1.3,2.5,1.3,4.3v0.9h-9.2c0,1.8,0.4,3.1,1.2,4s1.9,1.4,3.4,1.4c0.7,0,1.4-0.1,1.9-0.2s1.2-0.3,2.1-0.7v1.1
			c-0.7,0.3-1.4,0.5-2,0.6S134.4,751.8,133.6,751.8z M133.4,739.6c-1.2,0-2.2,0.4-3,1.2s-1.2,2-1.3,3.5h7.9c0-1.5-0.3-2.6-1-3.5
			S134.4,739.6,133.4,739.6z"/>
		<path class="st2" d="M150.6,751.6v-8.3c0-1.3-0.3-2.2-0.8-2.8s-1.4-0.9-2.5-0.9c-1.5,0-2.6,0.4-3.3,1.2s-1.1,2-1.1,3.7v7h-1.2
			v-12.7h1l0.2,1.7h0.1c0.8-1.3,2.3-2,4.4-2c2.9,0,4.3,1.6,4.3,4.7v8.3L150.6,751.6L150.6,751.6z"/>
		<path class="st2" d="M159.2,750.8c0.7,0,1.4-0.1,1.9-0.2v0.9c-0.6,0.2-1.2,0.3-1.9,0.3c-1.1,0-2-0.3-2.5-0.9s-0.8-1.5-0.8-2.8
			v-8.3H154v-0.7l1.9-0.5l0.6-2.9h0.6v3.1h3.7v1h-3.7v8.1c0,1,0.2,1.7,0.5,2.2S158.6,750.8,159.2,750.8z"/>
		<path class="st2" d="M169,751.8c-1.9,0-3.3-0.6-4.3-1.7s-1.6-2.7-1.6-4.8c0-2,0.5-3.7,1.5-4.9s2.3-1.8,4-1.8
			c1.5,0,2.7,0.5,3.6,1.6s1.3,2.5,1.3,4.3v0.9h-9.2c0,1.8,0.4,3.1,1.2,4s1.9,1.4,3.4,1.4c0.7,0,1.4-0.1,1.9-0.2s1.2-0.3,2.1-0.7v1.1
			c-0.7,0.3-1.4,0.5-2,0.6S169.8,751.8,169,751.8z M168.8,739.6c-1.2,0-2.2,0.4-3,1.2s-1.2,2-1.3,3.5h7.9c0-1.5-0.3-2.6-1-3.5
			S169.9,739.6,168.8,739.6z"/>
		<path class="st2" d="M182.1,738.6c0.5,0,1.1,0.1,1.7,0.2l-0.2,1.1c-0.5-0.1-1.1-0.2-1.7-0.2c-1.1,0-2,0.5-2.7,1.4s-1,2.1-1,3.5v7
			H177v-12.8h1l0.1,2.3h0.1c0.5-0.9,1.1-1.6,1.7-2S181.2,738.6,182.1,738.6z"/>
	</g>
	<g>
		<path class="st2" d="M120.4,696.1h-7v-12.8h7v0.8h-6.1v4.9h5.8v0.8h-5.8v5.5h6.1V696.1z"/>
		<path class="st2" d="M122.9,695.4c0-0.6,0.2-0.9,0.7-0.9s0.7,0.3,0.7,0.9s-0.2,0.9-0.7,0.9S122.9,696,122.9,695.4z"/>
		<path class="st2" d="M136.9,696.1H136v-6.3h-7.5v6.3h-0.9v-12.8h0.9v5.7h7.5v-5.7h0.9V696.1z"/>
		<path class="st2" d="M145.6,689.7h4.7v5.9c-1.2,0.5-2.6,0.8-4.2,0.8c-2,0-3.6-0.6-4.7-1.7c-1.1-1.1-1.6-2.8-1.6-4.9
			c0-1.3,0.3-2.5,0.8-3.5s1.3-1.8,2.3-2.3s2.1-0.8,3.4-0.8c1.4,0,2.7,0.3,3.8,0.8l-0.4,0.8c-1.1-0.5-2.3-0.8-3.5-0.8
			c-1.7,0-3,0.5-4,1.6c-1,1-1.5,2.5-1.5,4.2c0,1.9,0.5,3.4,1.4,4.4s2.3,1.5,4.2,1.5c1.2,0,2.2-0.2,3-0.5v-4.5h-3.8v-1H145.6z"/>
		<path class="st2" d="M153.1,695.4c0-0.6,0.2-0.9,0.7-0.9s0.7,0.3,0.7,0.9s-0.2,0.9-0.7,0.9C153.4,696.3,153.1,696,153.1,695.4z"/>
		<path class="st2" d="M165.2,689.7c0,2.3-0.3,3.9-1,5s-1.7,1.6-3.1,1.6c-1.3,0-2.4-0.6-3.1-1.7c-0.7-1.1-1-2.8-1-5s0.3-3.9,1-5
			s1.7-1.6,3.1-1.6c1.4,0,2.4,0.6,3.1,1.7C164.9,685.9,165.2,687.5,165.2,689.7z M157.9,689.7c0,2,0.3,3.5,0.8,4.4s1.3,1.4,2.4,1.4
			c1.1,0,1.9-0.5,2.4-1.5s0.8-2.4,0.8-4.4c0-1.9-0.3-3.3-0.8-4.3s-1.3-1.5-2.4-1.5s-1.9,0.5-2.4,1.5S157.9,687.8,157.9,689.7z"/>
		<path class="st2" d="M175.2,696.1h-8v-0.8l3.4-3.6c1-1,1.6-1.8,2-2.3s0.7-1,0.9-1.5s0.3-1,0.3-1.5c0-0.8-0.3-1.4-0.8-1.9
			s-1.2-0.7-2-0.7c-1.1,0-2.1,0.4-3.1,1.2l-0.5-0.6c1.1-0.9,2.3-1.4,3.6-1.4c1.1,0,2,0.3,2.6,0.9s1,1.4,1,2.5c0,0.8-0.2,1.7-0.6,2.5
			s-1.2,1.8-2.4,2.9l-3.3,3.4l0,0h6.9L175.2,696.1L175.2,696.1z"/>
		<path class="st2" d="M181.2,688.4c1.4,0,2.5,0.3,3.2,1s1.2,1.6,1.2,2.7c0,1.3-0.4,2.3-1.2,3.1s-2,1.1-3.4,1.1
			c-0.6,0-1.2-0.1-1.8-0.2c-0.6-0.1-1.1-0.3-1.4-0.5v-0.9c0.6,0.3,1.2,0.5,1.7,0.7c0.5,0.1,1,0.2,1.6,0.2c1.1,0,2-0.3,2.7-0.9
			c0.7-0.6,1-1.4,1-2.4s-0.3-1.7-1-2.2s-1.6-0.8-2.7-0.8c-0.8,0-1.6,0.1-2.4,0.3l-0.5-0.3l0.5-5.9h6.2v0.8h-5.4l-0.4,4.5
			C180,688.5,180.8,688.4,181.2,688.4z"/>
	</g>
	<g>
		<path class="st2" d="M135.4,840.9h-7v-12.8h7v0.8h-6.1v4.9h5.8v0.8h-5.8v5.5h6.1V840.9z"/>
		<path class="st2" d="M137.9,840.3c0-0.6,0.2-0.9,0.7-0.9s0.7,0.3,0.7,0.9s-0.2,0.9-0.7,0.9C138.1,841.1,137.9,840.8,137.9,840.3z"
			/>
		<path class="st2" d="M151.8,840.9h-0.9v-6.3h-7.5v6.3h-0.9v-12.8h0.9v5.7h7.5v-5.7h0.9V840.9z"/>
		<path class="st2" d="M160.4,834.5h4.7v5.9c-1.2,0.5-2.6,0.8-4.2,0.8c-2,0-3.6-0.6-4.7-1.7c-1.1-1.1-1.6-2.8-1.6-4.9
			c0-1.3,0.3-2.5,0.8-3.5s1.3-1.8,2.3-2.3s2.1-0.8,3.4-0.8c1.4,0,2.7,0.3,3.8,0.8l-0.4,0.8c-1.1-0.5-2.3-0.8-3.5-0.8
			c-1.7,0-3,0.5-4,1.6c-1,1-1.5,2.5-1.5,4.2c0,1.9,0.5,3.4,1.4,4.4s2.3,1.5,4.2,1.5c1.2,0,2.2-0.2,3-0.5v-4.5h-3.8v-1H160.4z"/>
		<path class="st2" d="M168,840.3c0-0.6,0.2-0.9,0.7-0.9s0.7,0.3,0.7,0.9s-0.2,0.9-0.7,0.9C168.2,841.1,168,840.8,168,840.3z"/>
		<path class="st2" d="M180.1,834.5c0,2.3-0.3,3.9-1,5s-1.7,1.6-3.1,1.6c-1.3,0-2.4-0.6-3.1-1.7c-0.7-1.1-1-2.8-1-5s0.3-3.9,1-5
			s1.7-1.6,3.1-1.6s2.4,0.6,3.1,1.7C179.9,830.7,180.1,832.3,180.1,834.5z M172.9,834.5c0,2,0.3,3.5,0.8,4.4s1.3,1.4,2.4,1.4
			s1.9-0.5,2.4-1.5s0.8-2.4,0.8-4.4c0-1.9-0.3-3.3-0.8-4.3s-1.3-1.5-2.4-1.5s-1.9,0.5-2.4,1.5S172.9,832.6,172.9,834.5z"/>
		<path class="st2" d="M190.2,840.9h-8v-0.8l3.4-3.6c1-1,1.6-1.8,2-2.3s0.7-1,0.9-1.5s0.3-1,0.3-1.5c0-0.8-0.3-1.4-0.8-1.9
			s-1.2-0.7-2-0.7c-1.1,0-2.1,0.4-3.1,1.2l-0.5-0.6c1.1-0.9,2.3-1.4,3.6-1.4c1.1,0,2,0.3,2.6,0.9s1,1.4,1,2.5c0,0.8-0.2,1.7-0.6,2.5
			s-1.2,1.8-2.4,2.9l-3.3,3.4l0,0h6.9L190.2,840.9L190.2,840.9z"/>
		<path class="st2" d="M201.5,837.7h-2.2v3.3h-0.8v-3.3h-6.6v-0.6l6.4-9.1h1.1v8.9h2.2L201.5,837.7L201.5,837.7L201.5,837.7z
			 M198.5,836.9v-3.7c0-1.8,0-3.3,0.1-4.5h-0.1c-0.1,0.2-0.5,0.8-1.1,1.7l-4.5,6.5H198.5z"/>
	</g>
	<g>
		<path class="st2" d="M485.5,733.2v7h-12.8v-7h0.8v6.1h4.9v-5.8h0.8v5.8h5.5v-6.1H485.5z"/>
		<path class="st2" d="M484.8,730.7c-0.6,0-0.9-0.2-0.9-0.7s0.3-0.7,0.9-0.7s0.9,0.2,0.9,0.7S485.5,730.7,484.8,730.7z"/>
		<path class="st2" d="M485.5,716.7v0.9h-6.3v7.5h6.3v0.9h-12.8v-0.9h5.7v-7.5h-5.7v-0.9H485.5z"/>
		<path class="st2" d="M479,708v-4.7h5.9c0.5,1.2,0.8,2.6,0.8,4.2c0,2-0.6,3.6-1.7,4.7c-1.1,1.1-2.8,1.6-4.9,1.6
			c-1.3,0-2.5-0.3-3.5-0.8s-1.8-1.3-2.3-2.3s-0.8-2.1-0.8-3.4c0-1.4,0.3-2.7,0.8-3.8l0.8,0.4c-0.5,1.1-0.8,2.3-0.8,3.5
			c0,1.7,0.5,3,1.6,4c1,1,2.5,1.5,4.2,1.5c1.9,0,3.4-0.5,4.4-1.4s1.5-2.3,1.5-4.2c0-1.2-0.2-2.2-0.5-3H480v3.8L479,708L479,708z"/>
		<path class="st2" d="M484.8,700.5c-0.6,0-0.9-0.2-0.9-0.7s0.3-0.7,0.9-0.7s0.9,0.2,0.9,0.7C485.8,700.2,485.5,700.5,484.8,700.5z"
			/>
		<path class="st2" d="M479.2,688.3c2.3,0,3.9,0.3,5,1s1.6,1.7,1.6,3.1c0,1.3-0.6,2.4-1.7,3.1c-1.1,0.7-2.8,1-5,1s-3.9-0.3-5-1
			s-1.6-1.7-1.6-3.1c0-1.4,0.6-2.4,1.7-3.1C475.3,688.7,477,688.3,479.2,688.3z M479.2,695.6c2,0,3.5-0.3,4.4-0.8s1.4-1.3,1.4-2.4
			c0-1.1-0.5-1.9-1.5-2.4s-2.4-0.8-4.4-0.8c-1.9,0-3.3,0.3-4.3,0.8s-1.5,1.3-1.5,2.4s0.5,1.9,1.5,2.4S477.2,695.6,479.2,695.6z"/>
		<path class="st2" d="M485.5,681.3v0.9h-9.3c-0.8,0-1.7,0-2.6-0.1c0.1,0.1,0.2,0.2,0.3,0.3s0.8,1,2.1,2.7l-0.6,0.5l-2.6-3.5v-0.8
			L485.5,681.3L485.5,681.3z"/>
		<path class="st2" d="M480,675.9c-1.7,0-3.1-0.2-4.2-0.7s-2-1.1-2.5-1.9c-0.6-0.8-0.8-1.8-0.8-3c0-0.6,0.1-1.1,0.2-1.5h0.8
			c-0.2,0.4-0.2,0.9-0.2,1.5c0,1.4,0.5,2.6,1.6,3.4c1,0.8,2.6,1.3,4.6,1.4V675c-0.6-0.4-1-1-1.3-1.5s-0.4-1.2-0.4-1.8
			c0-1.2,0.3-2.1,1-2.8s1.6-1,2.8-1c1.3,0,2.3,0.4,3.1,1.1c0.8,0.7,1.1,1.7,1.1,2.9c0,1.3-0.5,2.3-1.5,3.1
			C483.2,675.5,481.8,675.9,480,675.9z M485,671.7c0-1-0.3-1.7-0.9-2.2s-1.5-0.8-2.6-0.8c-1,0-1.8,0.3-2.3,0.8s-0.8,1.2-0.8,2.2
			c0,0.6,0.1,1.2,0.4,1.7s0.6,0.9,1.1,1.2s0.9,0.5,1.3,0.5c0.7,0,1.3-0.1,1.9-0.4c0.6-0.3,1.1-0.7,1.4-1.2
			C484.8,672.8,485,672.3,485,671.7z"/>
	</g>
	<g>
		<path class="st2" d="M517,732.3v7h-12.8v-7h0.8v6.1h4.9v-5.8h0.8v5.8h5.5v-6.1H517z"/>
		<path class="st2" d="M516.2,729.8c-0.6,0-0.9-0.2-0.9-0.7s0.3-0.7,0.9-0.7s0.9,0.2,0.9,0.7C517,729.6,516.8,729.8,516.2,729.8z"/>
		<path class="st2" d="M517,715.8v0.9h-6.3v7.5h6.3v0.9h-12.8v-0.9h5.7v-7.5h-5.7v-0.9H517z"/>
		<path class="st2" d="M510.5,707.1v-4.7h5.9c0.5,1.2,0.8,2.6,0.8,4.2c0,2-0.6,3.6-1.7,4.7c-1.1,1.1-2.8,1.6-4.9,1.6
			c-1.3,0-2.5-0.3-3.5-0.8s-1.8-1.3-2.3-2.3s-0.8-2.1-0.8-3.4c0-1.4,0.3-2.7,0.8-3.8l0.8,0.4c-0.5,1.1-0.8,2.3-0.8,3.5
			c0,1.7,0.5,3,1.6,4c1,1,2.5,1.5,4.2,1.5c1.9,0,3.4-0.5,4.4-1.4s1.5-2.3,1.5-4.2c0-1.2-0.2-2.2-0.5-3h-4.7v3.8L510.5,707.1
			L510.5,707.1z"/>
		<path class="st2" d="M516.2,699.6c-0.6,0-0.9-0.2-0.9-0.7s0.3-0.7,0.9-0.7s0.9,0.2,0.9,0.7C517,699.3,516.8,699.6,516.2,699.6z"/>
		<path class="st2" d="M510.5,687.4c2.3,0,3.9,0.3,5,1s1.6,1.7,1.6,3.1c0,1.3-0.6,2.4-1.7,3.1c-1.1,0.7-2.8,1-5,1s-3.9-0.3-5-1
			s-1.6-1.7-1.6-3.1c0-1.4,0.6-2.4,1.7-3.1C506.7,687.8,508.2,687.4,510.5,687.4z M510.5,694.7c2,0,3.5-0.3,4.4-0.8s1.4-1.3,1.4-2.4
			c0-1.1-0.5-1.9-1.5-2.4s-2.4-0.8-4.4-0.8c-1.9,0-3.3,0.3-4.3,0.8s-1.5,1.3-1.5,2.4s0.5,1.9,1.5,2.4S508.5,694.7,510.5,694.7z"/>
		<path class="st2" d="M517,680.4v0.9h-9.4c-0.8,0-1.7,0-2.6-0.1c0.1,0.1,0.2,0.2,0.3,0.3s0.8,1,2.1,2.7l-0.6,0.5l-2.6-3.5v-0.8
			L517,680.4L517,680.4z"/>
		<path class="st2" d="M517,673.2l-12-5.3v7.3h-0.8v-8.3h0.6l12.2,5.3V673.2z"/>
		<path class="st2" d="M517,658.5l-1.5,0.2v0.1c0.6,0.5,1.1,1,1.3,1.5c0.3,0.5,0.4,1.1,0.4,1.8c0,0.9-0.2,1.7-0.7,2.2
			s-1.1,0.8-2,0.8s-1.7-0.4-2.2-1.2s-0.8-1.9-0.8-3.4l-0.1-1.8h-0.6c-0.9,0-1.6,0.2-2.1,0.6s-0.7,1-0.7,1.8c0,0.9,0.2,1.8,0.7,2.8
			l-0.8,0.3c-0.5-1-0.7-2.1-0.7-3.1s0.3-1.8,0.8-2.4c0.5-0.5,1.4-0.8,2.5-0.8h6.4L517,658.5L517,658.5z M516.2,662
			c0-1-0.3-1.8-0.9-2.4c-0.6-0.6-1.4-0.9-2.4-0.9H512l0.1,1.7c0.1,1.3,0.3,2.3,0.6,2.9c0.4,0.6,0.9,0.9,1.7,0.9
			c0.6,0,1.1-0.2,1.4-0.5C516.2,663.2,516.2,662.7,516.2,662z"/>
	</g>
	<g>
		<path class="st2" d="M558.2,732.3v7h-12.8v-7h0.8v6.1h4.9v-5.8h0.8v5.8h5.5v-6.1H558.2z"/>
		<path class="st2" d="M557.5,729.8c-0.6,0-0.9-0.2-0.9-0.7s0.3-0.7,0.9-0.7s0.9,0.2,0.9,0.7S558.2,729.8,557.5,729.8z"/>
		<path class="st2" d="M558.2,715.8v0.9H552v7.5h6.3v0.9h-12.8v-0.9h5.7v-7.5h-5.7v-0.9H558.2z"/>
		<path class="st2" d="M551.8,707.1v-4.7h5.9c0.5,1.2,0.8,2.6,0.8,4.2c0,2-0.6,3.6-1.7,4.7c-1.1,1.1-2.8,1.6-4.9,1.6
			c-1.3,0-2.5-0.3-3.5-0.8s-1.8-1.3-2.3-2.3s-0.8-2.1-0.8-3.4c0-1.4,0.3-2.7,0.8-3.8l0.8,0.4c-0.5,1.1-0.8,2.3-0.8,3.5
			c0,1.7,0.5,3,1.6,4c1,1,2.5,1.5,4.2,1.5c1.9,0,3.4-0.5,4.4-1.4s1.5-2.3,1.5-4.2c0-1.2-0.2-2.2-0.5-3h-4.5v3.8L551.8,707.1
			L551.8,707.1z"/>
		<path class="st2" d="M557.5,699.6c-0.6,0-0.9-0.2-0.9-0.7s0.3-0.7,0.9-0.7s0.9,0.2,0.9,0.7C558.5,699.3,558.2,699.6,557.5,699.6z"
			/>
		<path class="st2" d="M551.8,687.4c2.3,0,3.9,0.3,5,1s1.6,1.7,1.6,3.1c0,1.3-0.6,2.4-1.7,3.1c-1.1,0.7-2.8,1-5,1s-3.9-0.3-5-1
			s-1.6-1.7-1.6-3.1c0-1.4,0.6-2.4,1.7-3.1C548,687.8,549.7,687.4,551.8,687.4z M551.8,694.7c2,0,3.5-0.3,4.4-0.8s1.4-1.3,1.4-2.4
			c0-1.1-0.5-1.9-1.5-2.4s-2.4-0.8-4.4-0.8c-1.9,0-3.3,0.3-4.3,0.8s-1.5,1.3-1.5,2.4s0.5,1.9,1.5,2.4S549.8,694.7,551.8,694.7z"/>
		<path class="st2" d="M558.2,680.4v0.9h-9.4c-0.8,0-1.7,0-2.6-0.1c0.1,0.1,0.2,0.2,0.3,0.3s0.8,1,2.1,2.7l-0.6,0.5l-2.6-3.5v-0.8
			L558.2,680.4L558.2,680.4z"/>
		<path class="st2" d="M558.2,673.2l-12-5.3v7.3h-0.8v-8.3h0.6l12.2,5.3V673.2z"/>
		<path class="st2" d="M548.5,660.2c0-1.3,0.4-2.3,1.3-3c0.8-0.7,2.1-1,3.7-1c1.6,0,2.8,0.4,3.7,1.1c0.9,0.7,1.3,1.7,1.3,3
			c0,0.7-0.1,1.3-0.4,1.8s-0.7,1-1.2,1.3v0.1l1.4,0.2v0.5h-13.7v-0.9h3.4c0.5,0,1,0,1.4,0h0.7v-0.1c-0.6-0.4-1-0.8-1.3-1.3
			S548.5,661,548.5,660.2z M549.2,660.3c0,1.1,0.3,1.9,1,2.4s1.7,0.7,3.2,0.7h0.1c1.4,0,2.5-0.3,3.1-0.8s0.9-1.3,0.9-2.4
			c0-1-0.4-1.8-1.1-2.4c-0.7-0.5-1.8-0.8-3.1-0.8C550.7,657.1,549.2,658.2,549.2,660.3z"/>
	</g>
	<g>
		<path class="st2" d="M610.2,728.4v7h-12.9v-7h0.8v6.1h4.9v-5.8h0.8v5.8h5.5v-6.1H610.2z"/>
		<path class="st2" d="M609.5,725.8c-0.6,0-0.9-0.2-0.9-0.7s0.3-0.7,0.9-0.7s0.9,0.2,0.9,0.7C610.3,725.6,610,725.8,609.5,725.8z"/>
		<path class="st2" d="M610.2,711.9v0.9h-6.3v7.5h6.3v0.9h-12.9v-0.9h5.7v-7.5h-5.7v-0.9H610.2z"/>
		<path class="st2" d="M603.7,703.2v-4.7h5.9c0.5,1.2,0.8,2.6,0.8,4.2c0,2-0.6,3.6-1.7,4.7c-1.1,1.1-2.8,1.6-4.9,1.6
			c-1.3,0-2.5-0.3-3.5-0.8s-1.8-1.3-2.3-2.3s-0.8-2.1-0.8-3.4c0-1.4,0.3-2.7,0.8-3.8l0.8,0.4c-0.5,1.1-0.8,2.3-0.8,3.5
			c0,1.7,0.5,3,1.6,4c1,1,2.5,1.5,4.2,1.5c1.9,0,3.4-0.5,4.4-1.4s1.5-2.3,1.5-4.2c0-1.2-0.2-2.2-0.5-3h-4.5v3.8L603.7,703.2
			L603.7,703.2z"/>
		<path class="st2" d="M609.5,695.6c-0.6,0-0.9-0.2-0.9-0.7s0.3-0.7,0.9-0.7s0.9,0.2,0.9,0.7C610.3,695.4,610,695.6,609.5,695.6z"/>
		<path class="st2" d="M603.7,683.5c2.3,0,3.9,0.3,5,1s1.6,1.7,1.6,3.1c0,1.3-0.6,2.4-1.7,3.1c-1.1,0.7-2.8,1-5,1s-3.9-0.3-5-1
			s-1.6-1.7-1.6-3.1c0-1.4,0.6-2.4,1.7-3.1C599.8,683.8,601.5,683.5,603.7,683.5z M603.7,690.8c2,0,3.5-0.3,4.4-0.8s1.4-1.3,1.4-2.4
			c0-1.1-0.5-1.9-1.5-2.4s-2.4-0.8-4.4-0.8c-1.9,0-3.3,0.3-4.3,0.8s-1.5,1.3-1.5,2.4s0.5,1.9,1.5,2.4S601.8,690.8,603.7,690.8z"/>
		<path class="st2" d="M610.2,676.5v0.9h-9.4c-0.8,0-1.7,0-2.6-0.1c0.1,0.1,0.2,0.2,0.3,0.3s0.8,1,2.1,2.7l-0.6,0.5l-2.6-3.5v-0.8
			L610.2,676.5L610.2,676.5z"/>
		<path class="st2" d="M610.2,669.3l-12-5.3v7.3h-0.9V663h0.6l12.2,5.3v1H610.2z"/>
		<path class="st2" d="M610.3,656.5c0,1.4-0.4,2.4-1.3,3.2s-2.1,1.2-3.6,1.2c-1.6,0-2.8-0.4-3.7-1.2s-1.3-1.9-1.3-3.3
			c0-0.8,0.1-1.6,0.4-2.4l0.8,0.2c-0.3,0.8-0.4,1.5-0.4,2.2c0,1.2,0.4,2.1,1.1,2.7s1.8,0.9,3.1,0.9s2.3-0.3,3-0.9
			c0.7-0.6,1.1-1.4,1.1-2.5c0-0.9-0.2-1.7-0.5-2.4h0.8C610.2,654.7,610.3,655.5,610.3,656.5z"/>
	</g>
	<g>
		<path class="st2" d="M682.7,730.8v7h-12.8v-7h0.8v6.1h4.9v-5.8h0.8v5.8h5.5v-6.1H682.7z"/>
		<path class="st2" d="M682,728.2c-0.6,0-0.9-0.2-0.9-0.7s0.3-0.7,0.9-0.7s0.9,0.2,0.9,0.7C682.8,728,682.5,728.2,682,728.2z"/>
		<path class="st2" d="M682.7,714.3v0.9h-6.3v7.5h6.3v0.9h-12.8v-0.9h5.7v-7.5h-5.7v-0.9H682.7z"/>
		<path class="st2" d="M676.2,705.6v-4.8h5.9c0.5,1.2,0.8,2.6,0.8,4.2c0,2-0.6,3.6-1.7,4.7c-1.1,1.1-2.8,1.6-4.9,1.6
			c-1.3,0-2.5-0.3-3.5-0.8s-1.8-1.3-2.3-2.3s-0.8-2.1-0.8-3.4c0-1.4,0.3-2.7,0.8-3.8l0.8,0.4c-0.5,1.1-0.8,2.3-0.8,3.5
			c0,1.7,0.5,3,1.6,4c1,1,2.5,1.5,4.2,1.5c1.9,0,3.4-0.5,4.4-1.4s1.5-2.3,1.5-4.2c0-1.2-0.2-2.2-0.5-3h-4.5v3.8H676.2z"/>
		<path class="st2" d="M682,698c-0.6,0-0.9-0.2-0.9-0.7s0.3-0.7,0.9-0.7s0.9,0.2,0.9,0.7C682.8,697.8,682.5,698,682,698z"/>
		<path class="st2" d="M676.2,685.9c2.3,0,3.9,0.3,5,1s1.6,1.7,1.6,3.1c0,1.3-0.6,2.4-1.7,3.1c-1.1,0.7-2.8,1-5,1s-3.9-0.3-5-1
			s-1.6-1.7-1.6-3.1c0-1.4,0.6-2.4,1.7-3.1C672.5,686.2,674,685.9,676.2,685.9z M676.2,693.2c2,0,3.5-0.3,4.4-0.8s1.4-1.3,1.4-2.4
			c0-1.1-0.5-1.9-1.5-2.4s-2.4-0.8-4.4-0.8c-1.9,0-3.3,0.3-4.3,0.8s-1.5,1.3-1.5,2.4s0.5,1.9,1.5,2.4S674.3,693.2,676.2,693.2z"/>
		<path class="st2" d="M682.7,678.9v0.9h-9.4c-0.8,0-1.7,0-2.6-0.1c0.1,0.1,0.2,0.2,0.3,0.3s0.8,1,2.1,2.7l-0.6,0.5l-2.6-3.5v-0.8
			L682.7,678.9L682.7,678.9z"/>
		<path class="st2" d="M669.5,669.5c0-1.1,0.3-2,0.8-2.6c0.6-0.7,1.3-1,2.3-1c0.7,0,1.2,0.2,1.7,0.6c0.5,0.4,1,1.1,1.4,2
			c0.5-1.1,1-1.9,1.5-2.4s1.2-0.7,2-0.7c1.1,0,1.9,0.4,2.5,1.1c0.6,0.7,0.9,1.7,0.9,3s-0.3,2.3-0.9,3s-1.5,1-2.6,1
			c-0.8,0-1.4-0.2-2-0.7s-1.1-1.2-1.5-2.3c-0.4,0.9-0.9,1.6-1.4,2s-1.1,0.6-1.8,0.6c-0.6,0-1.2-0.2-1.6-0.5
			c-0.5-0.3-0.8-0.7-1.1-1.3C669.8,670.8,669.5,670.2,669.5,669.5z M670.3,669.5c0,0.8,0.2,1.5,0.6,2c0.4,0.5,1,0.8,1.7,0.8
			c0.4,0,0.8-0.1,1.1-0.3s0.6-0.5,0.9-0.8c0.3-0.3,0.6-0.9,0.9-1.8c-0.4-1-0.8-1.6-1.2-2.1s-1-0.6-1.6-0.6c-0.7,0-1.3,0.2-1.7,0.7
			S670.3,668.6,670.3,669.5z M679.5,672.6c0.8,0,1.4-0.3,1.9-0.8s0.7-1.3,0.7-2.3s-0.2-1.7-0.7-2.3s-1.1-0.9-1.9-0.9
			c-0.7,0-1.3,0.2-1.8,0.7s-0.9,1.3-1.4,2.7c0.4,1.1,0.9,1.8,1.4,2.3S678.8,672.6,679.5,672.6z"/>
		<path class="st2" d="M682.7,656.9l-1.5,0.2v0.1c0.6,0.5,1.1,1,1.3,1.5c0.3,0.5,0.4,1.1,0.4,1.8c0,0.9-0.2,1.7-0.7,2.2
			s-1.1,0.8-2,0.8s-1.7-0.4-2.2-1.2s-0.8-1.9-0.8-3.4l-0.1-1.8h-0.6c-0.9,0-1.6,0.2-2.1,0.6s-0.7,1-0.7,1.8c0,0.9,0.2,1.8,0.7,2.8
			l-0.8,0.3c-0.5-1-0.7-2.1-0.7-3.1s0.3-1.8,0.8-2.4c0.5-0.5,1.4-0.8,2.5-0.8h6.4L682.7,656.9L682.7,656.9z M682,660.4
			c0-1-0.3-1.8-0.9-2.4c-0.6-0.6-1.4-0.9-2.4-0.9h-0.9l0.1,1.7c0.1,1.3,0.3,2.3,0.6,2.9c0.4,0.6,0.9,0.9,1.7,0.9
			c0.6,0,1.1-0.2,1.4-0.5C681.8,661.6,682,661.1,682,660.4z"/>
	</g>
	<g>
		<path class="st2" d="M751.5,730.8v7h-12.8v-7h0.8v6.1h4.9v-5.8h0.8v5.8h5.5v-6.1H751.5z"/>
		<path class="st2" d="M750.8,728.2c-0.6,0-0.9-0.2-0.9-0.7s0.3-0.7,0.9-0.7s0.9,0.2,0.9,0.7S751.3,728.2,750.8,728.2z"/>
		<path class="st2" d="M751.5,714.3v0.9h-6.3v7.5h6.3v0.9h-12.8v-0.9h5.7v-7.5h-5.7v-0.9H751.5z"/>
		<path class="st2" d="M745,705.6v-4.8h5.9c0.5,1.2,0.8,2.6,0.8,4.2c0,2-0.6,3.6-1.7,4.7c-1.1,1.1-2.8,1.6-4.9,1.6
			c-1.3,0-2.5-0.3-3.5-0.8s-1.8-1.3-2.3-2.3s-0.8-2.1-0.8-3.4c0-1.4,0.3-2.7,0.8-3.8l0.8,0.4c-0.5,1.1-0.8,2.3-0.8,3.5
			c0,1.7,0.5,3,1.6,4c1,1,2.5,1.5,4.2,1.5c1.9,0,3.4-0.5,4.4-1.4s1.5-2.3,1.5-4.2c0-1.2-0.2-2.2-0.5-3H746v3.8H745z"/>
		<path class="st2" d="M750.8,698c-0.6,0-0.9-0.2-0.9-0.7s0.3-0.7,0.9-0.7s0.9,0.2,0.9,0.7S751.3,698,750.8,698z"/>
		<path class="st2" d="M745,685.9c2.3,0,3.9,0.3,5,1s1.6,1.7,1.6,3.1c0,1.3-0.6,2.4-1.7,3.1c-1.1,0.7-2.8,1-5,1s-3.9-0.3-5-1
			s-1.6-1.7-1.6-3.1c0-1.4,0.6-2.4,1.7-3.1C741.2,686.2,742.8,685.9,745,685.9z M745,693.2c2,0,3.5-0.3,4.4-0.8s1.4-1.3,1.4-2.4
			c0-1.1-0.5-1.9-1.5-2.4s-2.4-0.8-4.4-0.8c-1.9,0-3.3,0.3-4.3,0.8s-1.5,1.3-1.5,2.4s0.5,1.9,1.5,2.4S743.2,693.2,745,693.2z"/>
		<path class="st2" d="M751.5,678.9v0.9H742c-0.8,0-1.7,0-2.6-0.1c0.1,0.1,0.2,0.2,0.3,0.3s0.8,1,2.1,2.7l-0.6,0.5l-2.6-3.5v-0.8
			L751.5,678.9L751.5,678.9z"/>
		<path class="st2" d="M738.3,669.5c0-1.1,0.3-2,0.8-2.6c0.6-0.7,1.3-1,2.3-1c0.7,0,1.2,0.2,1.7,0.6c0.5,0.4,1,1.1,1.4,2
			c0.5-1.1,1-1.9,1.5-2.4s1.2-0.7,2-0.7c1.1,0,1.9,0.4,2.5,1.1c0.6,0.7,0.9,1.7,0.9,3s-0.3,2.3-0.9,3s-1.5,1-2.6,1
			c-0.8,0-1.4-0.2-2-0.7s-1.1-1.2-1.5-2.3c-0.4,0.9-0.9,1.6-1.4,2s-1.1,0.6-1.8,0.6c-0.6,0-1.2-0.2-1.6-0.5
			c-0.5-0.3-0.8-0.7-1.1-1.3C738.5,670.8,738.3,670.2,738.3,669.5z M739.2,669.5c0,0.8,0.2,1.5,0.6,2c0.4,0.5,1,0.8,1.7,0.8
			c0.4,0,0.8-0.1,1.1-0.3s0.6-0.5,0.9-0.8c0.3-0.3,0.6-0.9,0.9-1.8c-0.4-1-0.8-1.6-1.2-2.1s-1-0.6-1.6-0.6c-0.7,0-1.3,0.2-1.7,0.7
			S739.2,668.6,739.2,669.5z M748.3,672.6c0.8,0,1.4-0.3,1.9-0.8s0.7-1.3,0.7-2.3s-0.2-1.7-0.7-2.3s-1.1-0.9-1.9-0.9
			c-0.7,0-1.3,0.2-1.8,0.7s-0.9,1.3-1.4,2.7c0.4,1.1,0.9,1.8,1.4,2.3S747.5,672.6,748.3,672.6z"/>
		<path class="st2" d="M741.8,658.7c0-1.3,0.4-2.3,1.3-3c0.8-0.7,2.1-1,3.7-1c1.6,0,2.8,0.4,3.7,1.1c0.9,0.7,1.3,1.7,1.3,3
			c0,0.7-0.1,1.3-0.4,1.8s-0.7,1-1.2,1.3v0.1l1.4,0.2v0.5h-13.7v-0.9h3.4c0.5,0,1,0,1.4,0h0.7v-0.1c-0.6-0.4-1-0.8-1.3-1.3
			S741.8,659.4,741.8,658.7z M742.5,658.7c0,1.1,0.3,1.9,1,2.4s1.7,0.7,3.2,0.7h0.1c1.4,0,2.5-0.3,3.1-0.8s0.9-1.3,0.9-2.4
			c0-1-0.4-1.8-1.1-2.4c-0.7-0.5-1.8-0.8-3.1-0.8C743.8,655.6,742.5,656.6,742.5,658.7z"/>
	</g>
	<g>
		<path class="st2" d="M867.7,729.7v7h-12.8v-7h0.8v6.1h4.9V730h0.8v5.8h5.5v-6.1H867.7z"/>
		<path class="st2" d="M867,727.2c-0.6,0-0.9-0.2-0.9-0.7s0.3-0.7,0.9-0.7s0.9,0.2,0.9,0.7C867.8,727,867.5,727.2,867,727.2z"/>
		<path class="st2" d="M867.7,713.2v0.9h-6.3v7.5h6.3v0.9h-12.8v-0.9h5.7v-7.5h-5.7v-0.9H867.7z"/>
		<path class="st2" d="M861.2,704.5v-4.7h5.9c0.5,1.2,0.8,2.6,0.8,4.2c0,2-0.6,3.6-1.7,4.7c-1.1,1.1-2.8,1.6-4.9,1.6
			c-1.3,0-2.5-0.3-3.5-0.8s-1.8-1.3-2.3-2.3s-0.8-2.1-0.8-3.4c0-1.4,0.3-2.7,0.8-3.8l0.8,0.4c-0.5,1.1-0.8,2.3-0.8,3.5
			c0,1.7,0.5,3,1.6,4c1,1,2.5,1.5,4.2,1.5c1.9,0,3.4-0.5,4.4-1.4s1.5-2.3,1.5-4.2c0-1.2-0.2-2.2-0.5-3h-4.5v3.8L861.2,704.5
			L861.2,704.5z"/>
		<path class="st2" d="M867,697c-0.6,0-0.9-0.2-0.9-0.7s0.3-0.7,0.9-0.7s0.9,0.2,0.9,0.7C867.8,696.7,867.5,697,867,697z"/>
		<path class="st2" d="M861.2,684.8c2.3,0,3.9,0.3,5,1s1.6,1.7,1.6,3.1c0,1.3-0.6,2.4-1.7,3.1c-1.1,0.7-2.8,1-5,1s-3.9-0.3-5-1
			s-1.6-1.7-1.6-3.1c0-1.4,0.6-2.4,1.7-3.1C857.5,685.2,859,684.8,861.2,684.8z M861.2,692.1c2,0,3.5-0.3,4.4-0.8s1.4-1.3,1.4-2.4
			c0-1.1-0.5-1.9-1.5-2.4s-2.4-0.8-4.4-0.8c-1.9,0-3.3,0.3-4.3,0.8s-1.5,1.3-1.5,2.4s0.5,1.9,1.5,2.4S859.3,692.1,861.2,692.1z"/>
		<path class="st2" d="M867.7,677.8v0.9h-9.4c-0.8,0-1.7,0-2.6-0.1c0.1,0.1,0.2,0.2,0.3,0.3s0.8,1,2.1,2.7l-0.6,0.5l-2.6-3.5v-0.8
			L867.7,677.8L867.7,677.8z"/>
		<path class="st2" d="M860.2,664.5c1.7,0,3.1,0.2,4.2,0.7s2,1.1,2.5,1.9s0.8,1.9,0.8,3.1c0,0.6-0.1,1.2-0.2,1.7h-0.8
			c0.1-0.3,0.1-0.6,0.2-0.9c0-0.4,0.1-0.6,0.1-0.8c0-1.4-0.5-2.6-1.6-3.4c-1-0.8-2.6-1.3-4.6-1.4v0.1c0.6,0.4,1,0.9,1.3,1.5
			s0.5,1.2,0.5,1.9c0,1.2-0.3,2.1-1,2.8s-1.6,1-2.8,1c-1.3,0-2.3-0.4-3.1-1.1c-0.8-0.7-1.2-1.7-1.2-2.8c0-0.8,0.2-1.6,0.7-2.2
			c0.4-0.6,1.1-1.1,1.9-1.5C858,664.6,859.2,664.5,860.2,664.5z M855.5,668.6c0,0.9,0.3,1.7,0.9,2.2c0.6,0.6,1.5,0.8,2.6,0.8
			c1,0,1.8-0.3,2.3-0.8s0.8-1.2,0.8-2.2c0-0.6-0.1-1.1-0.4-1.7c-0.3-0.5-0.6-0.9-1.1-1.2c-0.4-0.3-0.9-0.5-1.3-0.5
			c-0.7,0-1.3,0.1-1.9,0.4c-0.6,0.3-1.1,0.7-1.4,1.1C855.5,667.4,855.5,668,855.5,668.6z"/>
	</g>
	<g>
		<path class="st2" d="M279.5,541.6h-7l-2.4,6h-1.3l6.9-17.2h0.8l6.8,17.2H282L279.5,541.6z M272.9,540.5h6.1l-2.3-6.2
			c-0.2-0.5-0.4-1.2-0.7-2c-0.2,0.8-0.4,1.4-0.7,2L272.9,540.5z"/>
		<path class="st2" d="M286.2,534.9v8.2c0,1.3,0.3,2.2,0.8,2.8s1.4,0.9,2.5,0.9c1.5,0,2.6-0.4,3.3-1.1s1.1-2,1.1-3.7v-7h1.1v12.7h-1
			l-0.2-1.8h-0.1c-0.8,1.3-2.3,2-4.4,2c-2.9,0-4.3-1.6-4.3-4.7v-8.3L286.2,534.9L286.2,534.9z"/>
		<path class="st2" d="M300.6,547.7h-1.2v-18.2h1.2V547.7z"/>
		<path class="st2" d="M312.6,547.7l-0.3-2h-0.1c-0.6,0.8-1.3,1.4-2,1.7s-1.5,0.5-2.4,0.5c-1.2,0-2.2-0.3-2.9-1s-1-1.5-1-2.7
			s0.5-2.2,1.6-2.9s2.5-1.1,4.5-1.1l2.4-0.1v-0.8c0-1.2-0.2-2.1-0.7-2.7s-1.3-0.9-2.4-0.9c-1.2,0-2.4,0.3-3.7,1l-0.4-1
			c1.4-0.7,2.8-1,4.1-1c1.4,0,2.4,0.4,3.1,1.1s1,1.9,1,3.4v8.5H312.6z M308,546.9c1.4,0,2.4-0.4,3.2-1.2s1.2-1.9,1.2-3.2v-1.3
			l-2.2,0.1c-1.8,0.1-3.1,0.4-3.8,0.8s-1.1,1.2-1.1,2.2c0,0.8,0.2,1.4,0.7,1.9S307,546.9,308,546.9z"/>
	</g>
	<g>
		<path class="st2" d="M277.5,291v-12.8h0.9v12h6.1v0.8H277.5z"/>
		<path class="st2" d="M286.4,278.8c0-0.6,0.2-0.8,0.6-0.8c0.2,0,0.3,0.1,0.4,0.2s0.2,0.4,0.2,0.6c0,0.3-0.1,0.5-0.2,0.6
			s-0.2,0.2-0.4,0.2C286.5,279.7,286.4,279.4,286.4,278.8z M287.4,291h-0.9v-9.6h0.9V291z"/>
		<path class="st2" d="M294.1,282.2h-2.2v8.8H291v-8.8h-1.8v-0.5l1.8-0.3v-0.7c0-1.2,0.2-2,0.6-2.6s1.1-0.8,2.1-0.8
			c0.5,0,1.1,0.1,1.6,0.2l-0.2,0.8c-0.5-0.1-0.9-0.2-1.4-0.2c-0.7,0-1.2,0.2-1.4,0.6s-0.4,1.1-0.4,2v0.9h2.2L294.1,282.2
			L294.1,282.2z"/>
		<path class="st2" d="M298.5,290.4c0.6,0,1,0,1.4-0.1v0.7c-0.4,0.1-0.9,0.2-1.5,0.2c-0.8,0-1.5-0.2-1.9-0.7s-0.6-1.2-0.6-2.1v-6.2
			h-1.4v-0.5l1.4-0.4l0.4-2.2h0.4v2.3h2.8v0.8h-2.8v6c0,0.7,0.1,1.3,0.4,1.6S298,290.4,298.5,290.4z"/>
	</g>
	<g>
		<path class="st2" d="M804,450.8h-7V438h7v0.8h-6.1v4.9h5.8v0.8h-5.8v5.5h6.1V450.8z"/>
		<path class="st2" d="M806.5,450.1c0-0.6,0.2-0.9,0.7-0.9s0.7,0.3,0.7,0.9s-0.2,0.9-0.7,0.9C806.8,451,806.5,450.7,806.5,450.1z"/>
		<path class="st2" d="M820.5,450.8h-0.9v-6.3H812v6.3h-0.9V438h0.9v5.7h7.5V438h0.9L820.5,450.8L820.5,450.8z"/>
		<path class="st2" d="M829.2,444.3h4.7v5.9c-1.2,0.5-2.6,0.8-4.2,0.8c-2,0-3.6-0.6-4.7-1.7c-1.1-1.1-1.6-2.8-1.6-4.9
			c0-1.3,0.3-2.5,0.8-3.5s1.3-1.8,2.3-2.3s2.1-0.8,3.4-0.8c1.4,0,2.7,0.3,3.8,0.8l-0.4,0.8c-1.1-0.5-2.3-0.8-3.5-0.8
			c-1.7,0-3,0.5-4,1.6c-1,1-1.5,2.5-1.5,4.2c0,1.9,0.5,3.4,1.4,4.4s2.3,1.5,4.2,1.5c1.2,0,2.2-0.2,3-0.5v-4.5h-3.8L829.2,444.3
			L829.2,444.3z"/>
		<path class="st2" d="M836.8,450.1c0-0.6,0.2-0.9,0.7-0.9s0.7,0.3,0.7,0.9s-0.2,0.9-0.7,0.9S836.8,450.7,836.8,450.1z"/>
		<path class="st2" d="M848.8,444.3c0,2.3-0.3,3.9-1,5s-1.7,1.6-3.1,1.6c-1.3,0-2.4-0.6-3.1-1.7s-1-2.8-1-5s0.3-3.9,1-5
			s1.7-1.6,3.1-1.6c1.4,0,2.4,0.6,3.1,1.7S848.8,442.2,848.8,444.3z M841.5,444.3c0,2,0.3,3.5,0.8,4.4s1.3,1.4,2.4,1.4
			c1.1,0,1.9-0.5,2.4-1.5s0.8-2.4,0.8-4.4c0-1.9-0.3-3.3-0.8-4.3s-1.3-1.5-2.4-1.5s-1.9,0.5-2.4,1.5S841.5,442.4,841.5,444.3z"/>
		<path class="st2" d="M855.8,450.8h-0.9v-9.4c0-0.8,0-1.7,0.1-2.6c-0.1,0.1-0.2,0.2-0.3,0.3s-1,0.8-2.7,2.1l-0.5-0.6l3.5-2.6h0.8
			L855.8,450.8L855.8,450.8z"/>
		<path class="st2" d="M869.2,450.8h-8V450l3.4-3.6c1-1,1.6-1.8,2-2.3s0.7-1,0.9-1.5s0.3-1,0.3-1.5c0-0.8-0.3-1.4-0.8-1.9
			s-1.2-0.7-2-0.7c-1.1,0-2.1,0.4-3.1,1.2l-0.5-0.6c1.1-0.9,2.3-1.4,3.6-1.4c1.1,0,2,0.3,2.6,0.9s1,1.4,1,2.5c0,0.8-0.2,1.7-0.6,2.5
			c-0.4,0.8-1.2,1.8-2.4,2.9l-3.3,3.4l0,0h6.9L869.2,450.8L869.2,450.8z"/>
	</g>
	<g>
		<path class="st2" d="M993.6,404.2l-6.4-15.8h-0.1c0.1,1,0.1,2,0.1,3v12.8h-1.1v-17.1h1.9l6.1,15.1h0.1l6.1-15.1h1.8v17.1h-1.2v-13
			c0-0.9,0-1.8,0.1-2.8h-0.1l-6.4,15.8H993.6z"/>
		<path class="st2" d="M1011.7,404.5c-1.9,0-3.3-0.6-4.3-1.7s-1.6-2.7-1.6-4.8c0-2,0.5-3.7,1.5-4.9s2.3-1.8,4-1.8
			c1.5,0,2.7,0.5,3.6,1.6s1.3,2.5,1.3,4.3v0.9h-9.2c0,1.8,0.4,3.1,1.2,4s1.9,1.4,3.4,1.4c0.7,0,1.4-0.1,1.9-0.2s1.2-0.3,2.1-0.7v1.1
			c-0.7,0.3-1.4,0.5-2,0.6S1012.3,404.5,1011.7,404.5z M1011.2,392.3c-1.2,0-2.2,0.4-3,1.2s-1.2,2-1.3,3.5h7.9c0-1.5-0.3-2.6-1-3.5
			S1012.4,392.3,1011.2,392.3z"/>
		<path class="st2" d="M1028.6,404.2v-8.3c0-1.3-0.3-2.2-0.8-2.8s-1.4-0.9-2.5-0.9c-1.5,0-2.6,0.4-3.3,1.2s-1.1,2-1.1,3.7v7h-1.2
			v-12.7h1l0.2,1.7h0.1c0.8-1.3,2.3-2,4.4-2c2.9,0,4.3,1.6,4.3,4.7v8.3L1028.6,404.2L1028.6,404.2z"/>
		<path class="st2" d="M1041.7,400.9c0,1.1-0.4,2-1.3,2.6s-2.1,0.9-3.7,0.9c-1.7,0-3.1-0.3-4.1-0.8v-1.3c1.3,0.6,2.6,1,4.1,1
			c1.3,0,2.2-0.2,2.9-0.6s1-1,1-1.7c0-0.6-0.3-1.2-0.8-1.6s-1.4-0.9-2.6-1.3c-1.3-0.5-2.2-0.9-2.7-1.2s-0.9-0.7-1.2-1.1
			s-0.4-0.9-0.4-1.5c0-1,0.4-1.7,1.2-2.3s1.9-0.8,3.4-0.8c1.4,0,2.7,0.3,3.9,0.8l-0.4,1.1c-1.2-0.5-2.4-0.8-3.5-0.8
			c-1,0-1.9,0.2-2.5,0.5s-0.9,0.8-0.9,1.4c0,0.7,0.2,1.2,0.7,1.6s1.4,0.8,2.8,1.3c1.1,0.4,2,0.8,2.5,1.1s0.9,0.7,1.2,1.1
			S1041.7,400.4,1041.7,400.9z"/>
		<path class="st2" d="M1052.8,404.2l-0.3-2h-0.1c-0.6,0.8-1.3,1.4-2,1.7s-1.5,0.5-2.4,0.5c-1.2,0-2.2-0.3-2.9-1s-1-1.5-1-2.7
			s0.5-2.2,1.6-2.9s2.5-1.1,4.5-1.1l2.4-0.1v-0.8c0-1.2-0.2-2.1-0.7-2.7s-1.3-0.9-2.4-0.9c-1.2,0-2.4,0.3-3.7,1l-0.4-1
			c1.4-0.7,2.8-1,4.1-1c1.4,0,2.4,0.4,3.1,1.1s1,1.9,1,3.4v8.5H1052.8z M1048.1,403.4c1.4,0,2.4-0.4,3.2-1.2s1.2-1.9,1.2-3.2v-1.2
			l-2.2,0.1c-1.8,0.1-3.1,0.4-3.8,0.8s-1.1,1.2-1.1,2.2c0,0.8,0.2,1.4,0.7,1.9S1047.2,403.4,1048.1,403.4z"/>
	</g>
	<g>
		<path class="st2" d="M541.2,56h-7V43.2h7V44h-6.1v4.9h5.8v0.8h-5.8v5.5h6.1V56z"/>
		<path class="st2" d="M543.8,55.3c0-0.6,0.2-0.9,0.7-0.9s0.7,0.3,0.7,0.9s-0.2,0.9-0.7,0.9S543.8,55.9,543.8,55.3z"/>
		<path class="st2" d="M557.8,56h-0.9v-6.3h-7.6V56h-0.9V43.2h0.9v5.7h7.5v-5.7h0.9L557.8,56L557.8,56z"/>
		<path class="st2" d="M566.5,49.6h4.7v5.9c-1.2,0.5-2.6,0.8-4.2,0.8c-2,0-3.6-0.6-4.7-1.7s-1.6-2.8-1.6-4.9c0-1.3,0.3-2.5,0.8-3.5
			s1.3-1.8,2.3-2.3s2.1-0.8,3.4-0.8c1.4,0,2.7,0.3,3.8,0.8l-0.4,0.8c-1.1-0.5-2.3-0.8-3.5-0.8c-1.7,0-3,0.5-4,1.6s-1.5,2.5-1.5,4.2
			c0,1.9,0.5,3.4,1.4,4.4s2.3,1.5,4.2,1.5c1.2,0,2.2-0.2,3-0.5v-4.5h-3.8L566.5,49.6L566.5,49.6z"/>
		<path class="st2" d="M574,55.3c0-0.6,0.2-0.9,0.7-0.9s0.7,0.3,0.7,0.9s-0.2,0.9-0.7,0.9S574,55.9,574,55.3z"/>
		<path class="st2" d="M586,49.6c0,2.3-0.3,3.9-1,5s-1.7,1.6-3.1,1.6c-1.3,0-2.4-0.6-3.1-1.7s-1-2.8-1-5s0.3-3.9,1-5
			s1.7-1.6,3.1-1.6c1.4,0,2.4,0.6,3.1,1.7S586,47.4,586,49.6z M578.8,49.6c0,2,0.3,3.5,0.8,4.4s1.3,1.4,2.4,1.4
			c1.1,0,1.9-0.5,2.4-1.5s0.8-2.4,0.8-4.4c0-1.9-0.3-3.3-0.8-4.3s-1.3-1.5-2.4-1.5s-1.9,0.5-2.4,1.5S578.8,47.7,578.8,49.6z"/>
		<path class="st2" d="M596.3,49.6c0,2.3-0.3,3.9-1,5s-1.7,1.6-3.1,1.6c-1.3,0-2.4-0.6-3.1-1.7s-1-2.8-1-5s0.3-3.9,1-5
			s1.7-1.6,3.1-1.6c1.4,0,2.4,0.6,3.1,1.7S596.3,47.4,596.3,49.6z M589,49.6c0,2,0.3,3.5,0.8,4.4s1.3,1.4,2.4,1.4
			c1.1,0,1.9-0.5,2.4-1.5s0.8-2.4,0.8-4.4c0-1.9-0.3-3.3-0.8-4.3s-1.3-1.5-2.4-1.5s-1.9,0.5-2.4,1.5S589,47.7,589,49.6z"/>
		<path class="st2" d="M602,48.3c1.4,0,2.5,0.3,3.2,1s1.2,1.6,1.2,2.7c0,1.3-0.4,2.3-1.2,3.1s-2,1.1-3.4,1.1c-0.6,0-1.2-0.1-1.8-0.2
			s-1.1-0.3-1.4-0.5v-0.9c0.6,0.3,1.2,0.5,1.7,0.7s1,0.2,1.6,0.2c1.1,0,2-0.3,2.7-0.9s1-1.4,1-2.4s-0.3-1.7-1-2.2s-1.6-0.8-2.7-0.8
			c-0.8,0-1.6,0.1-2.4,0.3l-0.5-0.3l0.5-5.9h6.2v0.8h-5.4l-0.4,4.5C600.8,48.4,601.5,48.3,602,48.3z"/>
	</g>
	<g>
		<path class="st2" d="M574.7,239.2v7h-12.8v-7h0.8v6.1h4.9v-5.8h0.8v5.8h5.5v-6.1H574.7z"/>
		<path class="st2" d="M574,236.7c-0.6,0-0.9-0.2-0.9-0.7s0.3-0.7,0.9-0.7s0.9,0.2,0.9,0.7C574.8,236.5,574.5,236.7,574,236.7z"/>
		<path class="st2" d="M574.7,222.7v0.9h-6.3v7.5h6.3v0.9h-12.8v-0.9h5.7v-7.5h-5.7v-0.9H574.7z"/>
		<path class="st2" d="M568.2,214v-4.7h5.9c0.5,1.2,0.8,2.6,0.8,4.2c0,2-0.6,3.6-1.7,4.7s-2.8,1.6-4.9,1.6c-1.3,0-2.5-0.3-3.5-0.8
			s-1.8-1.3-2.3-2.3s-0.8-2.1-0.8-3.4c0-1.4,0.3-2.7,0.8-3.8l0.8,0.4c-0.5,1.1-0.8,2.3-0.8,3.5c0,1.7,0.5,3,1.6,4s2.5,1.5,4.2,1.5
			c1.9,0,3.4-0.5,4.4-1.4s1.5-2.3,1.5-4.2c0-1.2-0.2-2.2-0.5-3h-4.5v3.8h-1V214z"/>
		<path class="st2" d="M574,206.5c-0.6,0-0.9-0.2-0.9-0.7s0.3-0.7,0.9-0.7s0.9,0.2,0.9,0.7C574.8,206.2,574.5,206.5,574,206.5z"/>
		<path class="st2" d="M574.7,198.1v0.9h-9.4c-0.8,0-1.7,0-2.6-0.1c0.1,0.1,0.2,0.2,0.3,0.3s0.8,1,2.1,2.7l-0.6,0.5l-2.6-3.5v-0.8
			L574.7,198.1L574.7,198.1z"/>
		<path class="st2" d="M567,189.1c0-1.4,0.3-2.5,1-3.2s1.6-1.2,2.7-1.2c1.3,0,2.3,0.4,3.1,1.2s1.1,2,1.1,3.4c0,0.6-0.1,1.2-0.2,1.8
			s-0.3,1.1-0.5,1.4h-0.9c0.3-0.6,0.5-1.2,0.7-1.7s0.2-1,0.2-1.6c0-1.1-0.3-2-0.9-2.7s-1.4-1-2.4-1s-1.7,0.3-2.2,1s-0.8,1.6-0.8,2.7
			c0,0.8,0.1,1.6,0.3,2.4l-0.3,0.5l-5.9-0.5v-6.2h0.8v5.4l4.5,0.4C567,190.3,567,189.6,567,189.1z"/>
		<path class="st2" d="M574.7,176.1l-1.5,0.2v0.1c0.6,0.5,1,1,1.3,1.5s0.4,1.1,0.4,1.8c0,0.9-0.2,1.7-0.7,2.2s-1.1,0.8-2,0.8
			s-1.7-0.4-2.2-1.2s-0.8-1.9-0.8-3.4l-0.1-1.8h-0.6c-0.9,0-1.6,0.2-2.1,0.6s-0.7,1-0.7,1.8c0,0.9,0.2,1.8,0.7,2.8l-0.8,0.3
			c-0.5-1-0.7-2.1-0.7-3.1s0.3-1.8,0.8-2.4s1.4-0.8,2.5-0.8h6.4L574.7,176.1L574.7,176.1z M574,179.6c0-1-0.3-1.8-0.9-2.4
			s-1.4-0.9-2.4-0.9h-0.9l0.1,1.7c0.1,1.3,0.3,2.3,0.6,2.9s0.9,0.9,1.7,0.9c0.6,0,1.1-0.2,1.4-0.5S574,180.3,574,179.6z"/>
	</g>
	<g>
		<path class="st2" d="M480.2,239.8v7h-12.8v-7h0.8v6.1h4.9v-5.8h0.8v5.8h5.5v-6.1H480.2z"/>
		<path class="st2" d="M479.7,237.3c-0.6,0-0.9-0.2-0.9-0.7s0.3-0.7,0.9-0.7s0.9,0.2,0.9,0.7C480.5,237.1,480.2,237.3,479.7,237.3z"
			/>
		<path class="st2" d="M480.2,223.3v0.9H474v7.5h6.3v0.9h-12.8v-0.9h5.7v-7.5h-5.7v-0.9H480.2z"/>
		<path class="st2" d="M473.8,214.6v-4.7h5.9c0.5,1.2,0.8,2.6,0.8,4.2c0,2-0.6,3.6-1.7,4.7s-2.8,1.6-4.9,1.6c-1.3,0-2.5-0.3-3.5-0.8
			s-1.8-1.3-2.3-2.3s-0.8-2.1-0.8-3.4c0-1.4,0.3-2.7,0.8-3.8l0.8,0.4c-0.5,1.1-0.8,2.3-0.8,3.5c0,1.7,0.5,3,1.6,4s2.5,1.5,4.2,1.5
			c1.9,0,3.4-0.5,4.4-1.4s1.5-2.3,1.5-4.2c0-1.2-0.2-2.2-0.5-3h-4.5v3.8h-1V214.6L473.8,214.6z"/>
		<path class="st2" d="M479.7,207.1c-0.6,0-0.9-0.2-0.9-0.7s0.3-0.7,0.9-0.7s0.9,0.2,0.9,0.7C480.5,206.8,480.2,207.1,479.7,207.1z"
			/>
		<path class="st2" d="M480.2,198.7v0.9h-9.4c-0.8,0-1.7,0-2.6-0.1c0.1,0.1,0.2,0.2,0.3,0.3s0.8,1,2.1,2.7L470,203l-2.6-3.5v-0.8
			H480.2z"/>
		<path class="st2" d="M472.5,189.7c0-1.4,0.3-2.5,1-3.2s1.6-1.2,2.7-1.2c1.3,0,2.3,0.4,3.1,1.2s1.1,2,1.1,3.4
			c0,0.6-0.1,1.2-0.2,1.8s-0.3,1.1-0.5,1.4h-0.9c0.3-0.6,0.5-1.2,0.7-1.7s0.2-1,0.2-1.6c0-1.1-0.3-2-0.9-2.7s-1.4-1-2.4-1
			s-1.7,0.3-2.2,1s-0.8,1.6-0.8,2.7c0,0.8,0.1,1.6,0.3,2.4l-0.3,0.5l-5.9-0.5V186h0.8v5.4l4.5,0.4
			C472.7,190.9,472.5,190.2,472.5,189.7z"/>
		<path class="st2" d="M470.5,178.5c0-1.3,0.4-2.3,1.3-3s2.1-1,3.7-1s2.8,0.4,3.7,1.1s1.3,1.7,1.3,3c0,0.7-0.1,1.3-0.4,1.8
			s-0.7,1-1.2,1.3v0.1l1.4,0.2v0.5h-13.7v-0.9h3.4c0.5,0,1,0,1.4,0h0.7v-0.1c-0.6-0.4-1-0.8-1.3-1.3S470.5,179.2,470.5,178.5z
			 M471.3,178.5c0,1.1,0.3,1.9,1,2.4s1.7,0.7,3.2,0.7h0.1c1.4,0,2.5-0.3,3.1-0.8s0.9-1.3,0.9-2.4c0-1-0.4-1.8-1.1-2.4
			s-1.8-0.8-3.1-0.8C472.8,175.4,471.3,176.4,471.3,178.5z"/>
	</g>
	<g>
		<path class="st2" d="M638.3,216.3h-0.7l-2.8-9.9c-0.2-0.8-0.4-1.5-0.5-2c-0.1,0.5-0.2,1.1-0.4,1.8s-1.1,4-2.8,10.2h-0.8l-3.5-12.8
			h0.9l2.2,8.3c0.1,0.3,0.2,0.6,0.2,0.9s0.1,0.6,0.2,0.8c0.1,0.2,0.1,0.5,0.2,0.7s0.1,0.5,0.1,0.7c0.1-0.8,0.4-2,0.9-3.6l2.2-7.8h1
			l2.6,8.9c0.3,1,0.5,1.9,0.6,2.5c0.1-0.4,0.2-0.9,0.3-1.3s1-3.8,2.7-10.1h0.9L638.3,216.3z"/>
		<path class="st2" d="M649.3,204.1c-1.6,0-2.9,0.5-3.8,1.5s-1.4,2.4-1.4,4.2s0.4,3.3,1.3,4.3s2.1,1.5,3.7,1.5c1.1,0,2.1-0.1,3-0.4
			v0.8c-0.8,0.3-1.9,0.4-3.2,0.4c-1.8,0-3.2-0.6-4.3-1.7s-1.6-2.8-1.6-4.9c0-1.3,0.2-2.5,0.7-3.5s1.2-1.8,2.1-2.3s2-0.8,3.2-0.8
			c1.3,0,2.4,0.2,3.4,0.7l-0.2,0.9C651.3,204.3,650.3,204.1,649.3,204.1z"/>
	</g>
	<g>
		<path class="st2" d="M687.3,216.3h-0.7l-2.8-9.9c-0.2-0.8-0.4-1.5-0.5-2c-0.1,0.5-0.2,1.1-0.4,1.8s-1.1,4-2.8,10.2h-0.8l-3.5-12.8
			h0.9l2.2,8.3c0.1,0.3,0.2,0.6,0.2,0.9s0.1,0.6,0.2,0.8c0.1,0.2,0.1,0.5,0.2,0.7s0.1,0.5,0.1,0.7c0.1-0.8,0.4-2,0.9-3.6l2.2-7.8h1
			l2.6,8.9c0.3,1,0.5,1.9,0.6,2.5c0.1-0.4,0.2-0.9,0.3-1.3s1-3.8,2.7-10.1h0.9L687.3,216.3z"/>
		<path class="st2" d="M698.3,204.1c-1.6,0-2.9,0.5-3.8,1.5s-1.4,2.4-1.4,4.2s0.4,3.3,1.3,4.3s2.1,1.5,3.7,1.5c1.1,0,2.1-0.1,3-0.4
			v0.8c-0.8,0.3-1.9,0.4-3.2,0.4c-1.8,0-3.2-0.6-4.3-1.7s-1.6-2.8-1.6-4.9c0-1.3,0.2-2.5,0.7-3.5s1.2-1.8,2.1-2.3s2-0.8,3.2-0.8
			c1.3,0,2.4,0.2,3.4,0.7l-0.2,0.9C700.3,204.3,699.3,204.1,698.3,204.1z"/>
	</g>
	<g>
		<path class="st2" d="M780.3,852.1h-7v-12.8h7v0.8h-6.1v4.9h5.8v0.8h-5.8v5.5h6.1V852.1z"/>
		<path class="st2" d="M783,851.4c0-0.6,0.2-0.9,0.7-0.9s0.7,0.3,0.7,0.9s-0.2,0.9-0.7,0.9S783,852,783,851.4z"/>
		<path class="st2" d="M796.8,852.1h-0.9v-6.3h-7.5v6.3h-0.9v-12.8h0.9v5.7h7.5v-5.7h0.9V852.1z"/>
		<path class="st2" d="M805.5,845.6h4.7v5.9c-1.2,0.5-2.6,0.8-4.2,0.8c-2,0-3.6-0.6-4.7-1.7c-1.1-1.1-1.6-2.8-1.6-4.9
			c0-1.3,0.3-2.5,0.8-3.5s1.3-1.8,2.3-2.3c1-0.6,2.1-0.8,3.4-0.8c1.4,0,2.7,0.3,3.8,0.8l-0.4,0.8c-1.1-0.5-2.3-0.8-3.5-0.8
			c-1.7,0-3,0.5-4,1.6c-1,1-1.5,2.5-1.5,4.2c0,1.9,0.5,3.4,1.4,4.4s2.3,1.5,4.2,1.5c1.2,0,2.2-0.2,3-0.5v-4.5h-3.8L805.5,845.6
			L805.5,845.6z"/>
		<path class="st2" d="M813.2,851.4c0-0.6,0.2-0.9,0.7-0.9s0.7,0.3,0.7,0.9s-0.2,0.9-0.7,0.9C813.3,852.3,813.2,852,813.2,851.4z"/>
		<path class="st2" d="M825.2,845.6c0,2.3-0.3,3.9-1,5s-1.7,1.6-3.1,1.6c-1.3,0-2.4-0.6-3.1-1.7c-0.7-1.1-1-2.8-1-5s0.3-3.9,1-5
			s1.7-1.6,3.1-1.6c1.4,0,2.4,0.6,3.1,1.7C825,841.8,825.2,843.5,825.2,845.6z M818,845.6c0,2,0.3,3.5,0.8,4.4s1.3,1.4,2.4,1.4
			c1.1,0,1.9-0.5,2.4-1.5s0.8-2.4,0.8-4.4c0-1.9-0.3-3.3-0.8-4.3s-1.3-1.5-2.4-1.5s-1.9,0.5-2.4,1.5S818,843.7,818,845.6z"/>
		<path class="st2" d="M835.3,852.1h-8v-0.8l3.4-3.6c1-1,1.6-1.8,2-2.3s0.7-1,0.9-1.5s0.3-1,0.3-1.5c0-0.8-0.3-1.4-0.8-1.9
			s-1.2-0.7-2-0.7c-1.1,0-2.1,0.4-3.1,1.2l-0.5-0.6c1.1-0.9,2.3-1.4,3.6-1.4c1.1,0,2,0.3,2.6,0.9c0.6,0.6,1,1.4,1,2.5
			c0,0.8-0.2,1.7-0.6,2.5c-0.4,0.8-1.2,1.8-2.4,2.9l-3.3,3.4l0,0h6.9L835.3,852.1L835.3,852.1z"/>
		<path class="st2" d="M845.8,845.6c0,2.3-0.3,3.9-1,5s-1.7,1.6-3.1,1.6c-1.3,0-2.4-0.6-3.1-1.7c-0.7-1.1-1-2.8-1-5s0.3-3.9,1-5
			s1.7-1.6,3.1-1.6c1.4,0,2.4,0.6,3.1,1.7C845.5,841.8,845.8,843.5,845.8,845.6z M838.5,845.6c0,2,0.3,3.5,0.8,4.4s1.3,1.4,2.4,1.4
			c1.1,0,1.9-0.5,2.4-1.5s0.8-2.4,0.8-4.4c0-1.9-0.3-3.3-0.8-4.3s-1.3-1.5-2.4-1.5s-1.9,0.5-2.4,1.5S838.5,843.7,838.5,845.6z"/>
	</g>
	<g>
		<path class="st2" d="M635.2,852.1h-7v-12.8h7v0.8h-6.1v4.9h5.8v0.8h-5.8v5.5h6.1V852.1z"/>
		<path class="st2" d="M637.7,851.4c0-0.6,0.2-0.9,0.7-0.9s0.7,0.3,0.7,0.9s-0.2,0.9-0.7,0.9C638,852.3,637.7,852,637.7,851.4z"/>
		<path class="st2" d="M651.7,852.1h-0.9v-6.3h-7.5v6.3h-0.9v-12.8h0.9v5.7h7.5v-5.7h0.9V852.1z"/>
		<path class="st2" d="M660.3,845.6h4.7v5.9c-1.2,0.5-2.6,0.8-4.2,0.8c-2,0-3.6-0.6-4.7-1.7c-1.1-1.1-1.6-2.8-1.6-4.9
			c0-1.3,0.3-2.5,0.8-3.5s1.3-1.8,2.3-2.3c1-0.6,2.1-0.8,3.4-0.8c1.4,0,2.7,0.3,3.8,0.8l-0.4,0.8c-1.1-0.5-2.3-0.8-3.5-0.8
			c-1.7,0-3,0.5-4,1.6c-1,1-1.5,2.5-1.5,4.2c0,1.9,0.5,3.4,1.4,4.4s2.3,1.5,4.2,1.5c1.2,0,2.2-0.2,3-0.5v-4.5h-3.8L660.3,845.6
			L660.3,845.6z"/>
		<path class="st2" d="M668,851.4c0-0.6,0.2-0.9,0.7-0.9s0.7,0.3,0.7,0.9s-0.2,0.9-0.7,0.9S668,852,668,851.4z"/>
		<path class="st2" d="M680,845.6c0,2.3-0.3,3.9-1,5s-1.7,1.6-3.1,1.6c-1.3,0-2.4-0.6-3.1-1.7c-0.7-1.1-1-2.8-1-5s0.3-3.9,1-5
			s1.7-1.6,3.1-1.6c1.4,0,2.4,0.6,3.1,1.7C679.8,841.8,680,843.5,680,845.6z M672.8,845.6c0,2,0.3,3.5,0.8,4.4s1.3,1.4,2.4,1.4
			c1.1,0,1.9-0.5,2.4-1.5s0.8-2.4,0.8-4.4c0-1.9-0.3-3.3-0.8-4.3s-1.3-1.5-2.4-1.5s-1.9,0.5-2.4,1.5S672.8,843.7,672.8,845.6z"/>
		<path class="st2" d="M690.2,852.1h-8v-0.8l3.4-3.6c1-1,1.6-1.8,2-2.3s0.7-1,0.9-1.5s0.3-1,0.3-1.5c0-0.8-0.3-1.4-0.8-1.9
			s-1.2-0.7-2-0.7c-1.1,0-2.1,0.4-3.1,1.2l-0.5-0.6c1.1-0.9,2.3-1.4,3.6-1.4c1.1,0,2,0.3,2.6,0.9c0.6,0.6,1,1.4,1,2.5
			c0,0.8-0.2,1.7-0.6,2.5c-0.4,0.8-1.2,1.8-2.4,2.9l-3.3,3.4l0,0h6.9L690.2,852.1L690.2,852.1z"/>
		<path class="st2" d="M697.3,852.1h-0.9v-9.4c0-0.8,0-1.7,0.1-2.6c-0.1,0.1-0.2,0.2-0.3,0.3s-1,0.8-2.7,2.1l-0.5-0.6l3.5-2.6h0.8
			L697.3,852.1L697.3,852.1z"/>
	</g>
	<g>
		<path class="st2" d="M524.2,852.1h-7v-12.8h7v0.8h-6.1v4.9h5.8v0.8h-5.8v5.5h6.1V852.1z"/>
		<path class="st2" d="M526.8,851.4c0-0.6,0.2-0.9,0.7-0.9s0.7,0.3,0.7,0.9s-0.2,0.9-0.7,0.9S526.8,852,526.8,851.4z"/>
		<path class="st2" d="M540.8,852.1h-0.9v-6.3h-7.5v6.3h-0.9v-12.8h0.9v5.7h7.5v-5.7h0.9V852.1z"/>
		<path class="st2" d="M549.5,845.6h4.7v5.9c-1.2,0.5-2.6,0.8-4.2,0.8c-2,0-3.6-0.6-4.7-1.7c-1.1-1.1-1.6-2.8-1.6-4.9
			c0-1.3,0.3-2.5,0.8-3.5s1.3-1.8,2.3-2.3s2.1-0.8,3.4-0.8c1.4,0,2.7,0.3,3.8,0.8l-0.4,0.8c-1.1-0.5-2.3-0.8-3.5-0.8
			c-1.7,0-3,0.5-4,1.6c-1,1-1.5,2.5-1.5,4.2c0,1.9,0.5,3.4,1.4,4.4s2.3,1.5,4.2,1.5c1.2,0,2.2-0.2,3-0.5v-4.5h-3.8L549.5,845.6
			L549.5,845.6z"/>
		<path class="st2" d="M557,851.4c0-0.6,0.2-0.9,0.7-0.9s0.7,0.3,0.7,0.9s-0.2,0.9-0.7,0.9C557.2,852.3,557,852,557,851.4z"/>
		<path class="st2" d="M569.2,845.6c0,2.3-0.3,3.9-1,5s-1.7,1.6-3.1,1.6c-1.3,0-2.4-0.6-3.1-1.7c-0.7-1.1-1-2.8-1-5s0.3-3.9,1-5
			s1.7-1.6,3.1-1.6c1.4,0,2.4,0.6,3.1,1.7C568.8,841.8,569.2,843.5,569.2,845.6z M561.8,845.6c0,2,0.3,3.5,0.8,4.4s1.3,1.4,2.4,1.4
			c1.1,0,1.9-0.5,2.4-1.5s0.8-2.4,0.8-4.4c0-1.9-0.3-3.3-0.8-4.3s-1.3-1.5-2.4-1.5s-1.9,0.5-2.4,1.5S561.8,843.7,561.8,845.6z"/>
		<path class="st2" d="M579.2,852.1h-8v-0.8l3.4-3.6c1-1,1.6-1.8,2-2.3s0.7-1,0.9-1.5s0.3-1,0.3-1.5c0-0.8-0.3-1.4-0.8-1.9
			s-1.2-0.7-2-0.7c-1.1,0-2.1,0.4-3.1,1.2l-0.5-0.6c1.1-0.9,2.3-1.4,3.6-1.4c1.1,0,2,0.3,2.6,0.9s1,1.4,1,2.5c0,0.8-0.2,1.7-0.6,2.5
			c-0.4,0.8-1.2,1.8-2.4,2.9l-3.3,3.4l0,0h6.9L579.2,852.1L579.2,852.1z"/>
		<path class="st2" d="M589.5,852.1h-8v-0.8l3.4-3.6c1-1,1.6-1.8,2-2.3s0.7-1,0.9-1.5s0.3-1,0.3-1.5c0-0.8-0.3-1.4-0.8-1.9
			s-1.2-0.7-2-0.7c-1.1,0-2.1,0.4-3.1,1.2l-0.5-0.6c1.1-0.9,2.3-1.4,3.6-1.4c1.1,0,2,0.3,2.6,0.9s1,1.4,1,2.5c0,0.8-0.2,1.7-0.6,2.5
			c-0.4,0.8-1.2,1.8-2.4,2.9l-3.3,3.4l0,0h6.9L589.5,852.1L589.5,852.1z"/>
	</g>
	<g>
		<path class="st2" d="M394.9,852.1h-7v-12.8h7v0.8h-6.1v4.9h5.8v0.8h-5.8v5.5h6.1V852.1z"/>
		<path class="st2" d="M397.5,851.4c0-0.6,0.2-0.9,0.7-0.9s0.7,0.3,0.7,0.9s-0.2,0.9-0.7,0.9C397.6,852.3,397.5,852,397.5,851.4z"/>
		<path class="st2" d="M411.4,852.1h-0.9v-6.3H403v6.3h-0.9v-12.8h0.9v5.7h7.5v-5.7h0.9V852.1z"/>
		<path class="st2" d="M420,845.6h4.7v5.9c-1.2,0.5-2.6,0.8-4.2,0.8c-2,0-3.6-0.6-4.7-1.7c-1.1-1.1-1.6-2.8-1.6-4.9
			c0-1.3,0.3-2.5,0.8-3.5s1.3-1.8,2.3-2.3s2.1-0.8,3.4-0.8c1.4,0,2.7,0.3,3.8,0.8l-0.4,0.8c-1.1-0.5-2.3-0.8-3.5-0.8
			c-1.7,0-3,0.5-4,1.6c-1,1-1.5,2.5-1.5,4.2c0,1.9,0.5,3.4,1.4,4.4s2.3,1.5,4.2,1.5c1.2,0,2.2-0.2,3-0.5v-4.5h-3.8v-1H420z"/>
		<path class="st2" d="M427.7,851.4c0-0.6,0.2-0.9,0.7-0.9s0.7,0.3,0.7,0.9s-0.2,0.9-0.7,0.9C427.8,852.3,427.7,852,427.7,851.4z"/>
		<path class="st2" d="M439.8,845.6c0,2.3-0.3,3.9-1,5s-1.7,1.6-3.1,1.6c-1.3,0-2.4-0.6-3.1-1.7c-0.7-1.1-1-2.8-1-5s0.3-3.9,1-5
			s1.7-1.6,3.1-1.6s2.4,0.6,3.1,1.7C439.5,841.8,439.8,843.5,439.8,845.6z M432.5,845.6c0,2,0.3,3.5,0.8,4.4s1.3,1.4,2.4,1.4
			s1.9-0.5,2.4-1.5s0.8-2.4,0.8-4.4c0-1.9-0.3-3.3-0.8-4.3s-1.3-1.5-2.4-1.5s-1.9,0.5-2.4,1.5S432.5,843.7,432.5,845.6z"/>
		<path class="st2" d="M449.8,852.1h-8v-0.8l3.4-3.6c1-1,1.6-1.8,2-2.3s0.7-1,0.9-1.5s0.3-1,0.3-1.5c0-0.8-0.3-1.4-0.8-1.9
			s-1.2-0.7-2-0.7c-1.1,0-2.1,0.4-3.1,1.2l-0.5-0.6c1.1-0.9,2.3-1.4,3.6-1.4c1.1,0,2,0.3,2.6,0.9s1,1.4,1,2.5c0,0.8-0.2,1.7-0.6,2.5
			s-1.2,1.8-2.4,2.9l-3.3,3.4l0,0h6.9V852.1L449.8,852.1z"/>
		<path class="st2" d="M459.7,842.3c0,0.8-0.3,1.5-0.8,2s-1.2,0.9-2,1v0.1c1,0.1,1.8,0.5,2.4,1s0.8,1.2,0.8,2.1
			c0,1.2-0.4,2.1-1.2,2.8s-2,1-3.5,1c-1.3,0-2.4-0.2-3.4-0.7v-0.9c0.5,0.3,1,0.5,1.7,0.6s1.2,0.2,1.7,0.2c1.3,0,2.3-0.3,2.9-0.8
			c0.7-0.5,1-1.3,1-2.2c0-0.8-0.3-1.5-1-2s-1.6-0.7-2.9-0.7H454V845h1.4c1.1,0,1.9-0.3,2.5-0.8s0.9-1.2,0.9-2.1
			c0-0.7-0.3-1.3-0.8-1.7s-1.2-0.6-2-0.6c-0.6,0-1.2,0.1-1.7,0.3s-1.1,0.5-1.8,0.9l-0.4-0.6c0.5-0.4,1.1-0.7,1.8-1
			c0.7-0.2,1.4-0.4,2.1-0.4c1.2,0,2.1,0.3,2.7,0.8C459.3,840.5,459.7,841.3,459.7,842.3z"/>
	</g>
	<g>
		<path class="st2" d="M379,702h-0.7l-2.8-9.9c-0.2-0.8-0.4-1.5-0.5-2c-0.1,0.5-0.2,1.1-0.4,1.8c-0.2,0.7-1.1,4-2.8,10.2H371
			l-3.5-12.8h0.9l2.2,8.3c0.1,0.3,0.2,0.6,0.2,0.9s0.1,0.6,0.2,0.8s0.1,0.5,0.2,0.7s0.1,0.5,0.1,0.7c0.1-0.8,0.4-2,0.9-3.6l2.2-7.8
			h1l2.6,8.9c0.3,1,0.5,1.9,0.6,2.5c0.1-0.4,0.2-0.9,0.3-1.3s1-3.8,2.7-10.1h0.9L379,702z"/>
		<path class="st2" d="M389.9,689.8c-1.6,0-2.9,0.5-3.8,1.5s-1.4,2.4-1.4,4.2s0.4,3.3,1.3,4.3s2.1,1.5,3.7,1.5c1.1,0,2.1-0.1,3-0.4
			v0.8c-0.8,0.3-1.9,0.4-3.2,0.4c-1.8,0-3.2-0.6-4.3-1.7s-1.6-2.8-1.6-4.9c0-1.3,0.2-2.5,0.7-3.5s1.2-1.8,2.1-2.3s2-0.8,3.2-0.8
			c1.3,0,2.4,0.2,3.4,0.7l-0.4,0.8C391.9,690,390.9,689.8,389.9,689.8z"/>
	</g>
	<g>
		<path class="st2" d="M433,701.6h-0.7l-2.8-9.9c-0.2-0.8-0.4-1.5-0.5-2c-0.1,0.5-0.2,1.1-0.4,1.8s-1.1,4-2.8,10.2H425l-3.5-12.8
			h0.9l2.2,8.3c0.1,0.3,0.2,0.6,0.2,0.9s0.1,0.6,0.2,0.8s0.1,0.5,0.2,0.7s0.1,0.5,0.1,0.7c0.1-0.8,0.4-2,0.9-3.6l2.2-7.8h1l2.6,8.9
			c0.3,1,0.5,1.9,0.6,2.5c0.1-0.4,0.2-0.9,0.3-1.3s1-3.8,2.7-10.1h0.9L433,701.6z"/>
		<path class="st2" d="M443.8,689.3c-1.6,0-2.9,0.5-3.8,1.5s-1.4,2.4-1.4,4.2s0.4,3.3,1.3,4.3s2.1,1.5,3.7,1.5c1.1,0,2.1-0.1,3-0.4
			v0.8c-0.8,0.3-1.9,0.4-3.2,0.4c-1.8,0-3.2-0.6-4.3-1.7s-1.6-2.8-1.6-4.9c0-1.3,0.2-2.5,0.7-3.5s1.2-1.8,2.1-2.3s2-0.8,3.2-0.8
			c1.3,0,2.4,0.2,3.4,0.7l-0.4,0.8C445.8,689.6,444.8,689.3,443.8,689.3z"/>
	</g>
	<g>
		<path class="st2" d="M218.5,496.4v7h-12.8v-7h0.8v6.1h4.9v-5.7h0.8v5.8h5.5v-6.1L218.5,496.4L218.5,496.4z"/>
		<path class="st2" d="M217.9,493.9c-0.6,0-0.9-0.2-0.9-0.7s0.3-0.7,0.9-0.7c0.6,0,0.9,0.2,0.9,0.7
			C218.8,493.7,218.5,493.9,217.9,493.9z"/>
		<path class="st2" d="M218.5,479.9v0.9h-6.3v7.5h6.3v0.9h-12.8v-0.9h5.7v-7.5h-5.7v-0.9H218.5z"/>
		<path class="st2" d="M212,471.2v-4.7h5.9c0.5,1.2,0.8,2.6,0.8,4.2c0,2-0.6,3.6-1.7,4.7c-1.1,1.1-2.8,1.6-4.9,1.6
			c-1.3,0-2.5-0.3-3.5-0.8s-1.8-1.3-2.3-2.3c-0.6-1-0.8-2.1-0.8-3.4c0-1.4,0.3-2.7,0.8-3.8l0.8,0.4c-0.5,1.1-0.8,2.3-0.8,3.5
			c0,1.7,0.5,3,1.6,4c1,1,2.5,1.5,4.2,1.5c1.9,0,3.4-0.5,4.4-1.4s1.5-2.3,1.5-4.2c0-1.2-0.2-2.2-0.5-3H213v3.8L212,471.2L212,471.2z
			"/>
		<path class="st2" d="M217.9,463.7c-0.6,0-0.9-0.2-0.9-0.7s0.3-0.7,0.9-0.7c0.6,0,0.9,0.2,0.9,0.7
			C218.8,463.4,218.5,463.7,217.9,463.7z"/>
		<path class="st2" d="M212,451.5c2.3,0,3.9,0.3,5,1s1.6,1.7,1.6,3.1c0,1.3-0.6,2.4-1.7,3.1c-1.1,0.7-2.8,1-5,1s-3.9-0.3-5-1
			s-1.6-1.7-1.6-3.1s0.6-2.4,1.7-3.1C208.2,451.9,210,451.5,212,451.5z M212,458.9c2,0,3.5-0.3,4.4-0.8s1.4-1.3,1.4-2.4
			s-0.5-1.9-1.5-2.4s-2.4-0.8-4.4-0.8c-1.9,0-3.3,0.3-4.3,0.8s-1.5,1.3-1.5,2.4s0.5,1.9,1.5,2.4S210.1,458.9,212,458.9z"/>
		<path class="st2" d="M212,441.3c2.3,0,3.9,0.3,5,1s1.6,1.7,1.6,3.1c0,1.3-0.6,2.4-1.7,3.1c-1.1,0.7-2.8,1-5,1s-3.9-0.3-5-1
			s-1.6-1.7-1.6-3.1s0.6-2.4,1.7-3.1C208.2,441.6,210,441.3,212,441.3z M212,448.6c2,0,3.5-0.3,4.4-0.8s1.4-1.3,1.4-2.4
			s-0.5-1.9-1.5-2.4s-2.4-0.8-4.4-0.8c-1.9,0-3.3,0.3-4.3,0.8s-1.5,1.3-1.5,2.4s0.5,1.9,1.5,2.4S210.1,448.6,212,448.6z"/>
		<path class="st2" d="M218.5,434.3v0.9h-9.4c-0.8,0-1.7,0-2.6-0.1c0.1,0.1,0.2,0.2,0.3,0.3s0.8,1,2.1,2.7l-0.6,0.5l-2.6-3.5v-0.8
			H218.5L218.5,434.3z"/>
	</g>
	<g>
		<path class="st2" d="M120.4,477.6h-7v-12.8h7v0.8h-6.1v4.9h5.8v0.8h-5.8v5.5h6.1V477.6z"/>
		<path class="st2" d="M122.9,477c0-0.6,0.2-0.9,0.7-0.9s0.7,0.3,0.7,0.9s-0.2,0.9-0.7,0.9C123.1,477.8,122.9,477.5,122.9,477z"/>
		<path class="st2" d="M136.9,477.6H136v-6.3h-7.5v6.3h-0.9v-12.8h0.9v5.7h7.5v-5.7h0.9V477.6z"/>
		<path class="st2" d="M145.6,471.2h4.7v5.9c-1.2,0.5-2.6,0.8-4.2,0.8c-2,0-3.6-0.6-4.7-1.7c-1.1-1.1-1.6-2.8-1.6-4.9
			c0-1.3,0.3-2.5,0.8-3.5s1.3-1.8,2.3-2.3s2.1-0.8,3.4-0.8c1.4,0,2.7,0.3,3.8,0.8l-0.4,0.8c-1.1-0.5-2.3-0.8-3.5-0.8
			c-1.7,0-3,0.5-4,1.6c-1,1-1.5,2.5-1.5,4.2c0,1.9,0.5,3.4,1.4,4.4s2.3,1.5,4.2,1.5c1.2,0,2.2-0.2,3-0.5v-4.5h-3.8v-1H145.6z"/>
		<path class="st2" d="M153.1,477c0-0.6,0.2-0.9,0.7-0.9s0.7,0.3,0.7,0.9s-0.2,0.9-0.7,0.9C153.4,477.8,153.1,477.5,153.1,477z"/>
		<path class="st2" d="M165.2,471.2c0,2.3-0.3,3.9-1,5s-1.7,1.6-3.1,1.6c-1.3,0-2.4-0.6-3.1-1.7c-0.7-1.1-1-2.8-1-5s0.3-3.9,1-5
			s1.7-1.6,3.1-1.6c1.4,0,2.4,0.6,3.1,1.7C164.9,467.4,165.2,469,165.2,471.2z M157.9,471.2c0,2,0.3,3.5,0.8,4.4s1.3,1.4,2.4,1.4
			c1.1,0,1.9-0.5,2.4-1.5s0.8-2.4,0.8-4.4c0-1.9-0.3-3.3-0.8-4.3s-1.3-1.5-2.4-1.5s-1.9,0.5-2.4,1.5S157.9,469.3,157.9,471.2z"/>
		<path class="st2" d="M175.5,471.2c0,2.3-0.3,3.9-1,5s-1.7,1.6-3.1,1.6c-1.3,0-2.4-0.6-3.1-1.7c-0.7-1.1-1-2.8-1-5s0.3-3.9,1-5
			s1.7-1.6,3.1-1.6s2.4,0.6,3.1,1.7C175.1,467.4,175.5,469,175.5,471.2z M168.1,471.2c0,2,0.3,3.5,0.8,4.4s1.3,1.4,2.4,1.4
			s1.9-0.5,2.4-1.5s0.8-2.4,0.8-4.4c0-1.9-0.3-3.3-0.8-4.3s-1.3-1.5-2.4-1.5s-1.9,0.5-2.4,1.5S168.1,469.3,168.1,471.2z"/>
		<path class="st2" d="M185.5,477.6h-8v-0.8l3.4-3.6c1-1,1.6-1.8,2-2.3s0.7-1,0.9-1.5s0.3-1,0.3-1.5c0-0.8-0.3-1.4-0.8-1.9
			s-1.2-0.7-2-0.7c-1.1,0-2.1,0.4-3.1,1.2l-0.5-0.6c1.1-0.9,2.3-1.4,3.6-1.4c1.1,0,2,0.3,2.6,0.9s1,1.4,1,2.5c0,0.8-0.2,1.7-0.6,2.5
			s-1.2,1.8-2.4,2.9l-3.3,3.4l0,0h6.9L185.5,477.6L185.5,477.6z"/>
	</g>
	<g>
		<path class="st2" d="M112.6,280.1h4.7c2.1,0,3.7,0.4,4.7,1.1s1.5,1.8,1.5,3.3c0,1-0.3,1.8-0.9,2.5s-1.5,1.1-2.7,1.3v0.1
			c1.4,0.2,2.4,0.6,3,1.3s1,1.6,1,2.8c0,1.6-0.5,2.8-1.6,3.6s-2.5,1.3-4.5,1.3h-5.2V280.1z M113.9,287.7h3.8c1.6,0,2.8-0.3,3.5-0.8
			s1.1-1.4,1.1-2.5s-0.4-2-1.2-2.5s-2.1-0.8-3.7-0.8h-3.5L113.9,287.7L113.9,287.7z M113.9,288.8v7.4h4c3.2,0,4.8-1.3,4.8-3.9
			c0-2.4-1.7-3.5-5-3.5H113.9z"/>
		<path class="st2" d="M127.2,280.9c0-0.8,0.2-1.1,0.7-1.1c0.2,0,0.4,0.1,0.6,0.3s0.2,0.5,0.2,0.8c0,0.4-0.1,0.6-0.2,0.8
			s-0.3,0.3-0.6,0.3C127.6,282.1,127.2,281.7,127.2,280.9z M128.6,297.2h-1.2v-12.7h1.2V297.2z"/>
		<path class="st2" d="M138.4,284.2c1.8,0,3.1,0.6,4,1.7s1.4,2.8,1.4,4.9s-0.5,3.8-1.4,4.9s-2.3,1.7-4,1.7c-0.9,0-1.7-0.2-2.4-0.6
			s-1.3-0.9-1.7-1.6h-0.1l-0.3,1.9h-0.7v-18.2h1.2v4.6c0,0.7,0,1.3,0,1.9v1h0.1c0.5-0.8,1.1-1.3,1.8-1.7S137.4,284.2,138.4,284.2z
			 M138.4,285.3c-1.5,0-2.6,0.4-3.2,1.3s-1,2.3-1,4.3v0.2c0,1.9,0.3,3.3,1,4.1s1.7,1.3,3.2,1.3c1.4,0,2.4-0.5,3.1-1.5
			s1.1-2.4,1.1-4.2C142.4,287.1,141.1,285.3,138.4,285.3z"/>
		<path class="st2" d="M148.4,297.2h-1.1V279h1.2L148.4,297.2L148.4,297.2z"/>
		<path class="st2" d="M152.4,280.9c0-0.8,0.2-1.1,0.7-1.1c0.2,0,0.4,0.1,0.6,0.3s0.2,0.5,0.2,0.8c0,0.4-0.1,0.6-0.2,0.8
			s-0.3,0.3-0.6,0.3C152.8,282.1,152.4,281.7,152.4,280.9z M153.9,297.2h-1.2v-12.7h1.2V297.2z"/>
		<path class="st2" d="M168.6,290.8c0,2.1-0.5,3.7-1.5,4.9s-2.4,1.8-4.2,1.8c-1.1,0-2.1-0.3-3-0.8s-1.5-1.3-2-2.3s-0.7-2.2-0.7-3.5
			c0-2.1,0.5-3.7,1.5-4.9s2.4-1.7,4.1-1.7c1.8,0,3.1,0.6,4.1,1.8S168.6,288.8,168.6,290.8z M158.6,290.8c0,1.8,0.4,3.1,1.2,4.1
			s1.9,1.5,3.3,1.5s2.5-0.5,3.3-1.5s1.2-2.3,1.2-4.1c0-1.8-0.4-3.1-1.2-4.1s-1.9-1.5-3.3-1.5s-2.5,0.5-3.3,1.4
			S158.6,289.1,158.6,290.8z"/>
		<path class="st2" d="M175,296.4c0.7,0,1.4-0.1,1.9-0.2v0.9c-0.6,0.2-1.2,0.3-1.9,0.3c-1.1,0-2-0.3-2.5-0.9s-0.8-1.5-0.8-2.8v-8.2
			h-1.9v-0.7l1.9-0.5l0.6-2.9h0.6v3.1h3.7v1H173v8.1c0,1,0.2,1.7,0.5,2.2S174.4,296.4,175,296.4z"/>
		<path class="st2" d="M188.6,297.2v-8.3c0-1.3-0.3-2.2-0.8-2.8s-1.4-0.9-2.5-0.9c-1.5,0-2.6,0.4-3.3,1.2s-1.1,2-1.1,3.7v7h-1.2
			v-18.2h1.2v5.8l-0.1,1.6h0.1c0.5-0.8,1.1-1.3,1.8-1.7s1.6-0.5,2.7-0.5c2.9,0,4.3,1.6,4.3,4.7v8.3L188.6,297.2L188.6,297.2z"/>
		<path class="st2" d="M199.1,297.4c-1.9,0-3.3-0.6-4.3-1.7s-1.6-2.7-1.6-4.8c0-2,0.5-3.7,1.5-4.9s2.3-1.8,4-1.8
			c1.5,0,2.7,0.5,3.6,1.6s1.3,2.5,1.3,4.3v0.9h-9.2c0,1.8,0.4,3.1,1.2,4s1.9,1.4,3.4,1.4c0.7,0,1.4-0.1,1.9-0.2s1.2-0.3,2.1-0.7v1.1
			c-0.7,0.3-1.4,0.5-2,0.6S199.9,297.4,199.1,297.4z M198.8,285.3c-1.2,0-2.2,0.4-3,1.2s-1.2,2-1.3,3.5h7.9c0-1.5-0.3-2.6-1-3.5
			S199.9,285.3,198.8,285.3z"/>
		<path class="st2" d="M208.4,291.6l6.5-7.1h1.4l-5,5.4l5.4,7.3h-1.4l-4.8-6.4l-2.1,1.9v4.5h-1.2V279h1.2v9.1L208.4,291.6
			L208.4,291.6z"/>
	</g>
	<g>
		<path class="st2" d="M129.1,324.7h-7v-12.9h7v0.8H123v4.9h5.8v0.8H123v5.5h6.1V324.7z"/>
		<path class="st2" d="M131.6,324c0-0.6,0.2-0.9,0.7-0.9s0.7,0.3,0.7,0.9s-0.2,0.9-0.7,0.9C131.9,324.8,131.6,324.6,131.6,324z"/>
		<path class="st2" d="M145.6,324.7h-0.9v-6.3h-7.5v6.3h-0.9v-12.9h0.9v5.7h7.5v-5.7h0.9V324.7L145.6,324.7z"/>
		<path class="st2" d="M154.2,318.2h4.7v5.9c-1.2,0.5-2.6,0.8-4.2,0.8c-2,0-3.6-0.6-4.7-1.7s-1.6-2.8-1.6-4.9c0-1.3,0.3-2.5,0.8-3.5
			s1.3-1.8,2.3-2.3s2.1-0.8,3.4-0.8c1.4,0,2.7,0.3,3.8,0.8l-0.4,0.8c-1.1-0.5-2.3-0.8-3.5-0.8c-1.7,0-3,0.5-4,1.6s-1.5,2.5-1.5,4.2
			c0,1.9,0.5,3.4,1.4,4.4s2.3,1.5,4.2,1.5c1.2,0,2.2-0.2,3-0.5v-4.5h-3.7V318.2z"/>
		<path class="st2" d="M161.9,324c0-0.6,0.2-0.9,0.7-0.9s0.7,0.3,0.7,0.9s-0.2,0.9-0.7,0.9C162.1,324.8,161.9,324.6,161.9,324z"/>
		<path class="st2" d="M173.5,318.2c0,2.3-0.3,3.9-1,5s-1.7,1.6-3.1,1.6c-1.3,0-2.4-0.6-3.1-1.7s-1-2.8-1-5s0.3-3.9,1-5
			s1.7-1.6,3.1-1.6s2.4,0.6,3.1,1.7S173.5,316,173.5,318.2z M166.1,318.2c0,2,0.3,3.5,0.8,4.4s1.3,1.4,2.4,1.4s1.9-0.5,2.4-1.5
			s0.8-2.4,0.8-4.4c0-1.9-0.3-3.3-0.8-4.3s-1.3-1.5-2.4-1.5s-1.9,0.5-2.4,1.5S166.1,316.3,166.1,318.2z"/>
		<path class="st2" d="M183.8,318.2c0,2.3-0.3,3.9-1,5s-1.7,1.6-3.1,1.6c-1.3,0-2.4-0.6-3.1-1.7s-1-2.8-1-5s0.3-3.9,1-5
			s1.7-1.6,3.1-1.6s2.4,0.6,3.1,1.7S183.8,316,183.8,318.2z M176.5,318.2c0,2,0.3,3.5,0.8,4.4s1.3,1.4,2.4,1.4s1.9-0.5,2.4-1.5
			s0.8-2.4,0.8-4.4c0-1.9-0.3-3.3-0.8-4.3s-1.3-1.5-2.4-1.5s-1.9,0.5-2.4,1.5S176.5,316.3,176.5,318.2z"/>
		<path class="st2" d="M193.4,314.8c0,0.8-0.3,1.5-0.8,2s-1.2,0.9-2,1v0.1c1,0.1,1.8,0.5,2.4,1s0.8,1.2,0.8,2.1
			c0,1.2-0.4,2.1-1.2,2.8s-2,1-3.5,1c-1.3,0-2.4-0.2-3.4-0.7v-0.9c0.5,0.3,1,0.5,1.7,0.6s1.2,0.2,1.7,0.2c1.3,0,2.3-0.3,2.9-0.8
			s1-1.3,1-2.2c0-0.8-0.3-1.5-1-2s-1.6-0.7-2.9-0.7h-1.4v-0.8h1.4c1.1,0,1.9-0.3,2.5-0.8s0.9-1.2,0.9-2.1c0-0.7-0.3-1.3-0.8-1.7
			s-1.2-0.6-2-0.6c-0.6,0-1.2,0.1-1.7,0.3s-1.1,0.5-1.8,0.9l-0.4-0.6c0.5-0.4,1.1-0.7,1.8-1s1.4-0.4,2.1-0.4c1.2,0,2.1,0.3,2.7,0.8
			S193.4,313.8,193.4,314.8z"/>
	</g>
</g>
</svg>
