<?xml version="1.0" encoding="utf-8"?>
<!-- Generator: Adobe Illustrator 21.0.0, SVG Export Plug-In . SVG Version: 6.00 Build 0)  -->
<svg version="1.1" id="Ebene_1" xmlns="http://www.w3.org/2000/svg" xmlns:xlink="http://www.w3.org/1999/xlink" x="0px" y="0px"
	 viewBox="0 0 1126 901" style="enable-background:new 0 0 1126 901;" xml:space="preserve">
<style type="text/css">
	.st0{fill:#004570;fill-opacity:0.15;stroke:#0071AA;stroke-width:1.5;stroke-miterlimit:10;}
	.st1{fill:none;stroke:#005081;stroke-width:1.5;stroke-miterlimit:10;}
	.st2{fill:#005081;}
</style>
<g id="Plan">
	<rect x="0.7" y="1.3" class="st0" width="198.3" height="246.8"/>
	<rect x="0.7" y="248.1" class="st0" width="198.3" height="154.5"/>
	<rect x="0.7" y="402.7" class="st0" width="198.3" height="154.5"/>
	<rect x="0.7" y="557.2" class="st0" width="198.3" height="154.5"/>
	<rect x="0.7" y="712.5" class="st0" width="198.3" height="187.2"/>
	<rect x="345.5" y="154.7" class="st0" width="85.7" height="108.8"/>
	<rect x="273.1" y="1.3" class="st0" width="143.5" height="106"/>
	<rect x="416.6" y="1.3" class="st0" width="90.1" height="106"/>
	<rect x="507" y="1.3" class="st0" width="124" height="106"/>
	<rect x="431.3" y="154.7" class="st0" width="88.5" height="108.8"/>
	<polygon class="st0" points="631,1.3 631,107.4 717,107.4 717,1.7 	"/>
	<polygon class="st0" points="519.8,154.7 519.8,263.5 612.8,263.5 612.8,154.5 	"/>
	<rect x="647.3" y="154.1" class="st0" width="31.1" height="28.2"/>
	<polygon class="st0" points="612.8,154.5 612.8,245.1 665,245.1 665,182.3 647.3,182.3 647.3,154.1 	"/>
	<polygon class="st0" points="678.5,154.1 717,154.1 717,245.1 665,245.1 665,182.3 678.5,182.3 	"/>
	<rect x="835" y="1.3" class="st0" width="44" height="106"/>
	<rect x="879" y="1.3" class="st0" width="123.7" height="106"/>
	<rect x="1002.7" y="1.3" class="st0" width="122.1" height="106"/>
	<rect x="746" y="409" class="st0" width="97.5" height="102.2"/>
	<rect x="590.5" y="409" class="st0" width="155.6" height="102.2"/>
	<rect x="492" y="409" class="st0" width="98.5" height="102.2"/>
	<rect x="346" y="409" class="st0" width="146" height="102.2"/>
	<rect x="1029.3" y="409.7" class="st0" width="95.4" height="101.6"/>
	<rect x="895.8" y="409.7" class="st0" width="133.6" height="101.6"/>
	<rect x="979.3" y="276.4" class="st0" width="145.4" height="98"/>
	<rect x="811.3" y="276.4" class="st0" width="84.4" height="98"/>
	<rect x="764.3" y="328.3" class="st0" width="47" height="46"/>
	<rect x="764.3" y="276.4" class="st0" width="47" height="52"/>
	<rect x="895.8" y="276.4" class="st0" width="83.6" height="98"/>
	<polygon class="st0" points="812.5,245.1 764.3,245.1 764.3,276.4 812.5,276.4 835,276.4 835,245.1 	"/>
	<rect x="612.8" y="245.1" class="st0" width="104.1" height="18.4"/>
	<rect x="401" y="789.8" class="st0" width="140.8" height="109.9"/>
	<rect x="275.2" y="789.8" class="st0" width="125.7" height="109.9"/>
	<rect x="542" y="789.8" class="st0" width="212.2" height="109.9"/>
	<rect x="850.7" y="789.8" class="st0" width="58.7" height="109.9"/>
	<rect x="792.8" y="789.8" class="st0" width="58.7" height="109.9"/>
	<rect x="754.5" y="789.8" class="st0" width="38.3" height="109.9"/>
	<rect x="895.8" y="651.4" class="st0" width="110.9" height="93"/>
	<rect x="1006.7" y="651.4" class="st0" width="118.1" height="93"/>
	<rect x="1019.9" y="789.8" class="st0" width="104.8" height="109.9"/>
	<rect x="909.3" y="789.8" class="st0" width="110.7" height="109.9"/>
	<rect x="718.5" y="651.4" class="st0" width="53.1" height="93"/>
	<rect x="666.7" y="651.4" class="st0" width="51.8" height="93"/>
	<rect x="612.7" y="651.4" class="st0" width="54" height="93"/>
	<rect x="560.8" y="651.4" class="st0" width="51.9" height="93"/>
	<rect x="507" y="651.4" class="st0" width="53.7" height="93"/>
	<rect x="457.7" y="651.4" class="st0" width="49.3" height="93"/>
	<polygon class="st0" points="457.7,651.4 457.7,744.4 424.5,744.4 424.5,716.5 412,716.5 412,651.4 	"/>
	<rect x="389.2" y="716.5" class="st0" width="35.3" height="28"/>
	<polygon class="st0" points="345.5,651.4 345.5,744.4 389.2,744.4 389.2,716.5 412,716.5 412,651.4 	"/>
	<g>
		<rect x="771.5" y="651.4" class="st0" width="68" height="93"/>
		<rect x="804" y="690.6" class="st1" width="3.2" height="53.8"/>
		<line class="st1" x1="776.5" y1="741.1" x2="801.3" y2="741.1"/>
		<line class="st1" x1="776.5" y1="736.5" x2="801.3" y2="736.5"/>
		<line class="st1" x1="776.5" y1="731.9" x2="801.3" y2="731.9"/>
		<line class="st1" x1="776.5" y1="727.5" x2="801.3" y2="727.5"/>
		<line class="st1" x1="776.5" y1="722.7" x2="801.3" y2="722.7"/>
		<line class="st1" x1="776.5" y1="718.2" x2="801.3" y2="718.2"/>
		<line class="st1" x1="776.5" y1="713.5" x2="801.3" y2="713.5"/>
		<line class="st1" x1="776.5" y1="709" x2="801.3" y2="709"/>
		<line class="st1" x1="776.5" y1="704.2" x2="801.3" y2="704.2"/>
		<line class="st1" x1="776.5" y1="699.8" x2="801.3" y2="699.8"/>
		<line class="st1" x1="776.5" y1="695.3" x2="801.3" y2="695.3"/>
		<polyline class="st1" points="776.5,699.4 789,695.3 801.3,699.4 		"/>
		<line class="st1" x1="834.5" y1="695.3" x2="809.8" y2="695.3"/>
		<line class="st1" x1="834.5" y1="699.8" x2="809.8" y2="699.8"/>
		<line class="st1" x1="834.5" y1="704.4" x2="809.8" y2="704.4"/>
		<line class="st1" x1="834.5" y1="708.8" x2="809.8" y2="708.8"/>
		<line class="st1" x1="834.5" y1="713.6" x2="809.8" y2="713.6"/>
		<line class="st1" x1="834.5" y1="718.2" x2="809.8" y2="718.2"/>
		<line class="st1" x1="834.5" y1="722.9" x2="809.8" y2="722.9"/>
		<line class="st1" x1="834.5" y1="727.3" x2="809.8" y2="727.3"/>
		<line class="st1" x1="834.5" y1="732.1" x2="809.8" y2="732.1"/>
		<line class="st1" x1="834.5" y1="736.5" x2="809.8" y2="736.5"/>
		<line class="st1" x1="834.5" y1="741.1" x2="809.8" y2="741.1"/>
		<polyline class="st1" points="834.5,736.9 822.2,741.1 809.8,736.9 		"/>
	</g>
	<g>
		<rect x="764" y="155.7" class="st0" width="71" height="89.4"/>
		<rect x="797.8" y="155.7" class="st1" width="3.3" height="51.8"/>
		<line class="st1" x1="769.2" y1="158.9" x2="795.2" y2="158.9"/>
		<line class="st1" x1="769.2" y1="163.3" x2="795.2" y2="163.3"/>
		<line class="st1" x1="769.2" y1="167.7" x2="795.2" y2="167.7"/>
		<line class="st1" x1="769.2" y1="171.9" x2="795.2" y2="171.9"/>
		<line class="st1" x1="769.2" y1="176.5" x2="795.2" y2="176.5"/>
		<line class="st1" x1="769.2" y1="180.9" x2="795.2" y2="180.9"/>
		<line class="st1" x1="769.2" y1="185.4" x2="795.2" y2="185.4"/>
		<line class="st1" x1="769.2" y1="189.7" x2="795.2" y2="189.7"/>
		<line class="st1" x1="769.2" y1="194.3" x2="795.2" y2="194.3"/>
		<line class="st1" x1="769.2" y1="198.5" x2="795.2" y2="198.5"/>
		<line class="st1" x1="769.2" y1="202.9" x2="795.2" y2="202.9"/>
		<polyline class="st1" points="769.2,198.9 782.2,202.9 795.2,198.9 		"/>
		<line class="st1" x1="829.8" y1="202.9" x2="803.8" y2="202.9"/>
		<line class="st1" x1="829.8" y1="198.5" x2="803.8" y2="198.5"/>
		<line class="st1" x1="829.8" y1="194.1" x2="803.8" y2="194.1"/>
		<line class="st1" x1="829.8" y1="189.9" x2="803.8" y2="189.9"/>
		<line class="st1" x1="829.8" y1="185.3" x2="803.8" y2="185.3"/>
		<line class="st1" x1="829.8" y1="180.9" x2="803.8" y2="180.9"/>
		<line class="st1" x1="829.8" y1="176.4" x2="803.8" y2="176.4"/>
		<line class="st1" x1="829.8" y1="172.1" x2="803.8" y2="172.1"/>
		<line class="st1" x1="829.8" y1="167.5" x2="803.8" y2="167.5"/>
		<line class="st1" x1="829.8" y1="163.3" x2="803.8" y2="163.3"/>
		<line class="st1" x1="829.8" y1="158.9" x2="803.8" y2="158.9"/>
		<polyline class="st1" points="829.8,162.9 816.8,158.9 803.8,162.9 		"/>
	</g>
	<rect x="763" y="310.7" class="st2" width="2.6" height="14.3"/>
	<rect x="763" y="343.4" class="st2" width="2.6" height="14.3"/>
	<rect x="763" y="248.1" class="st2" width="2.6" height="14.3"/>
	<rect x="833.7" y="79.3" class="st2" width="2.6" height="14.3"/>
	<rect x="978.1" y="312.7" class="st2" width="2.6" height="14.3"/>
	<rect x="894.5" y="351.3" class="st2" width="2.6" height="14.3"/>
	<rect x="726.3" y="509.9" class="st2" width="28.6" height="2.6"/>
	<rect x="388.4" y="153.4" class="st2" width="14.3" height="2.6"/>
	<rect x="388.4" y="106.1" class="st2" width="14.3" height="2.6"/>
	<rect x="459.3" y="106.1" class="st2" width="14.3" height="2.6"/>
	<rect x="458.6" y="153.4" class="st2" width="14.3" height="2.6"/>
	<rect x="542.8" y="153.4" class="st2" width="14.3" height="2.6"/>
	<rect x="619.1" y="153.4" class="st2" width="14.3" height="2.6"/>
	<rect x="860.9" y="373" class="st2" width="14.3" height="2.6"/>
	<rect x="913.9" y="373" class="st2" width="14.3" height="2.6"/>
	<rect x="1047.2" y="373" class="st2" width="14.3" height="2.6"/>
	<rect x="1044.9" y="408.4" class="st2" width="14.3" height="2.6"/>
	<rect x="913.8" y="408.3" class="st2" width="14.3" height="2.6"/>
	<rect x="763" y="407.7" class="st2" width="14.3" height="2.6"/>
	<rect x="667.1" y="407.7" class="st2" width="14.3" height="2.6"/>
	<rect x="521.4" y="407.7" class="st2" width="14.3" height="2.6"/>
	<rect x="401.1" y="407.7" class="st2" width="14.3" height="2.6"/>
	<rect x="649.9" y="153.3" class="st2" width="14.3" height="2.6"/>
	<rect x="698.6" y="153.4" class="st2" width="14.3" height="2.6"/>
	<rect x="649.9" y="106" class="st2" width="14.3" height="2.6"/>
	<rect x="953.8" y="106.1" class="st2" width="14.3" height="2.6"/>
	<rect x="1007.1" y="106" class="st2" width="14.3" height="2.6"/>
	<rect x="542.8" y="106" class="st2" width="14.3" height="2.6"/>
	<rect x="197.7" y="720.5" class="st2" width="2.6" height="33.4"/>
	<rect x="197.7" y="566.5" class="st2" width="2.6" height="33.4"/>
	<rect x="197.7" y="667.8" class="st2" width="2.6" height="33.4"/>
	<rect x="197.7" y="412.6" class="st2" width="2.6" height="33.4"/>
	<rect x="197.7" y="513.9" class="st2" width="2.6" height="33.4"/>
	<rect x="197.7" y="258.7" class="st2" width="2.6" height="33.4"/>
	<rect x="197.7" y="204.8" class="st2" width="2.6" height="33.4"/>
	<rect x="197.7" y="10.2" class="st2" width="2.6" height="33.4"/>
	<rect x="197.7" y="360" class="st2" width="2.6" height="33.4"/>
	<rect x="197.7" y="854.5" class="st2" width="2.6" height="33.4"/>
	<rect x="373.4" y="788.4" class="st2" width="14.3" height="2.6"/>
	<rect x="473.3" y="788.5" class="st2" width="14.3" height="2.6"/>
	<rect x="579.3" y="788.5" class="st2" width="14.3" height="2.6"/>
	<rect x="684" y="788.5" class="st2" width="14.3" height="2.6"/>
	<rect x="830.4" y="788.5" class="st2" width="14.3" height="2.6"/>
	<rect x="774.4" y="788.5" class="st2" width="14.3" height="2.6"/>
	<rect x="865.7" y="788.5" class="st2" width="14.3" height="2.6"/>
	<rect x="367.8" y="743.1" class="st2" width="14.3" height="2.6"/>
	<rect x="391.3" y="743.1" class="st2" width="14.3" height="2.6"/>
	<rect x="439.5" y="743.2" class="st2" width="14.3" height="2.6"/>
	<rect x="473.2" y="743.2" class="st2" width="14.3" height="2.6"/>
	<rect x="513.1" y="743.1" class="st2" width="14.3" height="2.6"/>
	<rect x="579.2" y="743.2" class="st2" width="14.3" height="2.6"/>
	<rect x="632.5" y="743.1" class="st2" width="14.3" height="2.6"/>
	<rect x="723.8" y="743.1" class="st2" width="14.3" height="2.6"/>
	<rect x="954.8" y="743.1" class="st2" width="14.3" height="2.6"/>
	<rect x="1071.8" y="743.1" class="st2" width="14.3" height="2.6"/>
	<rect x="1071.8" y="788.4" class="st2" width="14.3" height="2.6"/>
	<rect x="954.8" y="788.4" class="st2" width="14.3" height="2.6"/>
	<rect x="683.9" y="743.2" class="st2" width="14.3" height="2.6"/>
	<g>
		<rect x="271.9" y="651.4" class="st0" width="73.8" height="93"/>
		<rect x="305.5" y="692.7" class="st1" width="3.6" height="51.8"/>
		<line class="st1" x1="274.6" y1="741.2" x2="302.5" y2="741.2"/>
		<line class="st1" x1="274.6" y1="736.8" x2="302.5" y2="736.8"/>
		<line class="st1" x1="274.6" y1="732.4" x2="302.5" y2="732.4"/>
		<line class="st1" x1="274.6" y1="728.2" x2="302.5" y2="728.2"/>
		<line class="st1" x1="274.6" y1="723.6" x2="302.5" y2="723.6"/>
		<line class="st1" x1="274.6" y1="719.2" x2="302.5" y2="719.2"/>
		<line class="st1" x1="274.6" y1="714.7" x2="302.5" y2="714.7"/>
		<line class="st1" x1="274.6" y1="710.4" x2="302.5" y2="710.4"/>
		<line class="st1" x1="274.6" y1="705.8" x2="302.5" y2="705.8"/>
		<line class="st1" x1="274.6" y1="701.6" x2="302.5" y2="701.6"/>
		<line class="st1" x1="274.6" y1="697.2" x2="302.5" y2="697.2"/>
		<polyline class="st1" points="274.6,701.2 288.6,697.2 302.5,701.2 		"/>
		<line class="st1" x1="340" y1="697.2" x2="312" y2="697.2"/>
		<line class="st1" x1="340" y1="701.6" x2="312" y2="701.6"/>
		<line class="st1" x1="340" y1="706" x2="312" y2="706"/>
		<line class="st1" x1="340" y1="710.2" x2="312" y2="710.2"/>
		<line class="st1" x1="340" y1="714.8" x2="312" y2="714.8"/>
		<line class="st1" x1="340" y1="719.2" x2="312" y2="719.2"/>
		<line class="st1" x1="340" y1="723.7" x2="312" y2="723.7"/>
		<line class="st1" x1="340" y1="728" x2="312" y2="728"/>
		<line class="st1" x1="340" y1="732.6" x2="312" y2="732.6"/>
		<line class="st1" x1="340" y1="736.8" x2="312" y2="736.8"/>
		<line class="st1" x1="340" y1="741.2" x2="312" y2="741.2"/>
		<polyline class="st1" points="340,737.2 326,741.2 312,737.2 		"/>
	</g>
	<g>
		<rect x="269" y="154.7" class="st0" width="76.5" height="89.4"/>
		<rect x="305.5" y="154.7" class="st1" width="3.6" height="51.8"/>
		<line class="st1" x1="274.6" y1="157.9" x2="302.5" y2="157.9"/>
		<line class="st1" x1="274.6" y1="162.3" x2="302.5" y2="162.3"/>
		<line class="st1" x1="274.6" y1="166.7" x2="302.5" y2="166.7"/>
		<line class="st1" x1="274.6" y1="170.9" x2="302.5" y2="170.9"/>
		<line class="st1" x1="274.6" y1="175.5" x2="302.5" y2="175.5"/>
		<line class="st1" x1="274.6" y1="179.9" x2="302.5" y2="179.9"/>
		<line class="st1" x1="274.6" y1="184.4" x2="302.5" y2="184.4"/>
		<line class="st1" x1="274.6" y1="188.7" x2="302.5" y2="188.7"/>
		<line class="st1" x1="274.6" y1="193.3" x2="302.5" y2="193.3"/>
		<line class="st1" x1="274.6" y1="197.5" x2="302.5" y2="197.5"/>
		<line class="st1" x1="274.6" y1="201.9" x2="302.5" y2="201.9"/>
		<polyline class="st1" points="274.6,197.9 288.6,201.9 302.5,197.9 		"/>
		<line class="st1" x1="340" y1="201.9" x2="312" y2="201.9"/>
		<line class="st1" x1="340" y1="197.5" x2="312" y2="197.5"/>
		<line class="st1" x1="340" y1="193.1" x2="312" y2="193.1"/>
		<line class="st1" x1="340" y1="188.9" x2="312" y2="188.9"/>
		<line class="st1" x1="340" y1="184.3" x2="312" y2="184.3"/>
		<line class="st1" x1="340" y1="179.9" x2="312" y2="179.9"/>
		<line class="st1" x1="340" y1="175.4" x2="312" y2="175.4"/>
		<line class="st1" x1="340" y1="171.1" x2="312" y2="171.1"/>
		<line class="st1" x1="340" y1="166.5" x2="312" y2="166.5"/>
		<line class="st1" x1="340" y1="162.3" x2="312" y2="162.3"/>
		<line class="st1" x1="340" y1="157.9" x2="312" y2="157.9"/>
		<polyline class="st1" points="340,161.9 326,157.9 312,161.9 		"/>
	</g>
	<rect x="271.9" y="277.4" class="st2" width="2.6" height="14.3"/>
	<rect x="273.1" y="263.5" class="st0" width="31.5" height="38.8"/>
	<path class="st1" d="M1124.8,511.2V276.4H835V155.7h289.8V1.3H0.7v898.4h1124.1V651.4h-229V511.2H1124.8z M273.1,244.1h72.4v19.4
		h267.3v107.2l-339.7-1.3L273.1,244.1L273.1,244.1z M273.1,651.4V409.7h72.4v101.6h498v140.2L273.1,651.4L273.1,651.4z"/>
</g>
<g id="Label">
	<g>
		<path class="st2" d="M291.4,61.9h-7V49.1h7v0.8h-6.1v4.9h5.8v0.8h-5.8v5.5h6.1V61.9z"/>
		<path class="st2" d="M293.9,61.2c0-0.6,0.2-0.9,0.7-0.9s0.7,0.3,0.7,0.9s-0.2,0.9-0.7,0.9C294.1,62.1,293.9,61.8,293.9,61.2z"/>
		<path class="st2" d="M307.9,61.9H307v-6.3h-7.5v6.3h-0.9V49.1h0.9v5.7h7.5v-5.7h0.9V61.9z"/>
		<path class="st2" d="M316.5,55.4h4.7v5.9c-1.2,0.5-2.6,0.8-4.2,0.8c-2,0-3.6-0.6-4.7-1.7s-1.6-2.8-1.6-4.9c0-1.3,0.3-2.5,0.8-3.5
			s1.3-1.8,2.3-2.3s2.1-0.8,3.4-0.8c1.4,0,2.7,0.3,3.8,0.8l-0.4,0.8c-1.1-0.5-2.3-0.8-3.5-0.8c-1.7,0-3,0.5-4,1.6s-1.5,2.5-1.5,4.2
			c0,1.9,0.5,3.4,1.4,4.4s2.3,1.5,4.2,1.5c1.2,0,2.2-0.2,3-0.5v-4.5h-3.8v-1H316.5z"/>
		<path class="st2" d="M324.1,61.2c0-0.6,0.2-0.9,0.7-0.9s0.7,0.3,0.7,0.9s-0.2,0.9-0.7,0.9S324.1,61.8,324.1,61.2z"/>
		<path class="st2" d="M336,61.9h-8v-0.8l3.4-3.6c1-1,1.6-1.8,2-2.3s0.7-1,0.9-1.5s0.3-1,0.3-1.5c0-0.8-0.3-1.4-0.8-1.9
			s-1.2-0.7-2-0.7c-1.1,0-2.1,0.4-3.1,1.2l-0.5-0.6c1.1-0.9,2.3-1.4,3.6-1.4c1.1,0,2,0.3,2.6,0.9s1,1.4,1,2.5c0,0.8-0.2,1.7-0.6,2.5
			s-1.2,1.8-2.4,2.9l-3.3,3.4l0,0h6.9V61.9z"/>
		<path class="st2" d="M346.5,55.4c0,2.3-0.3,3.9-1,5s-1.7,1.6-3.1,1.6c-1.3,0-2.4-0.6-3.1-1.7s-1-2.8-1-5s0.3-3.9,1-5
			s1.7-1.6,3.1-1.6s2.4,0.6,3.1,1.7S346.5,53.3,346.5,55.4z M339.2,55.4c0,2,0.3,3.5,0.8,4.4s1.3,1.4,2.4,1.4s1.9-0.5,2.4-1.5
			s0.8-2.4,0.8-4.4c0-1.9-0.3-3.3-0.8-4.3s-1.3-1.5-2.4-1.5S340.5,50,340,51S339.2,53.5,339.2,55.4z"/>
		<path class="st2" d="M353.5,61.9h-0.9v-9.4c0-0.8,0-1.7,0.1-2.6c-0.1,0.1-0.2,0.2-0.3,0.3s-1,0.8-2.7,2.1l-0.5-0.6l3.5-2.6h0.8
			V61.9z"/>
	</g>
	<g>
		<path class="st2" d="M63.8,131.6h-7v-12.8h7v0.8h-6.1v4.9h5.8v0.8h-5.8v5.5h6.1V131.6z"/>
		<path class="st2" d="M66.3,130.9c0-0.6,0.2-0.9,0.7-0.9s0.7,0.3,0.7,0.9s-0.2,0.9-0.7,0.9C66.6,131.8,66.3,131.5,66.3,130.9z"/>
		<path class="st2" d="M80.3,131.6h-0.9v-6.3h-7.5v6.3H71v-12.8h0.9v5.7h7.5v-5.7h0.9V131.6L80.3,131.6z"/>
		<path class="st2" d="M88.9,125.1h4.7v5.9c-1.2,0.5-2.6,0.8-4.2,0.8c-2,0-3.6-0.6-4.7-1.7c-1.1-1.1-1.6-2.8-1.6-4.9
			c0-1.3,0.3-2.5,0.8-3.5s1.3-1.8,2.3-2.3s2.1-0.8,3.4-0.8c1.4,0,2.7,0.3,3.8,0.8l-0.4,0.8c-1.1-0.5-2.3-0.8-3.5-0.8
			c-1.7,0-3,0.5-4,1.6s-1.5,2.5-1.5,4.2c0,1.9,0.5,3.4,1.4,4.4c0.9,1,2.3,1.5,4.2,1.5c1.2,0,2.2-0.2,3-0.5v-4.5h-3.7L88.9,125.1
			L88.9,125.1z"/>
		<path class="st2" d="M96.6,130.9c0-0.6,0.2-0.9,0.7-0.9s0.7,0.3,0.7,0.9s-0.2,0.9-0.7,0.9S96.6,131.5,96.6,130.9z"/>
		<path class="st2" d="M110.6,131.6h-0.9v-6.3h-7.5v6.3h-0.9v-12.8h0.9v5.7h7.5v-5.7h0.9V131.6z"/>
		<path class="st2" d="M121.3,128.3c0,1.1-0.4,1.9-1.2,2.5s-1.8,0.9-3.1,0.9c-1.6,0-2.8-0.2-3.6-0.5v-0.8c0.9,0.4,2.1,0.6,3.5,0.6
			c1.1,0,1.9-0.2,2.5-0.7s0.9-1.1,0.9-1.9c0-0.5-0.1-0.9-0.3-1.2s-0.5-0.6-1-0.9s-1.1-0.5-2-0.9c-1.3-0.5-2.2-0.9-2.7-1.5
			s-0.8-1.2-0.8-2.1c0-1,0.4-1.7,1.1-2.4s1.7-0.9,2.9-0.9s2.3,0.2,3.4,0.7l-0.3,0.8c-1.1-0.4-2.1-0.7-3.1-0.7
			c-0.9,0-1.7,0.2-2.3,0.7s-0.8,1-0.8,1.8c0,0.5,0.1,0.9,0.3,1.2s0.5,0.6,0.8,0.8s1.1,0.5,2,0.9c1,0.3,1.8,0.7,2.3,1
			s0.9,0.7,1.1,1.1S121.3,127.7,121.3,128.3z"/>
		<path class="st2" d="M128.1,131.6h-0.9v-9.4c0-0.8,0-1.7,0.1-2.6c-0.1,0.1-0.2,0.2-0.3,0.3s-1,0.8-2.7,2.1l-0.4-0.6l3.5-2.6h0.8
			v12.8H128.1z"/>
	</g>
	<g>
		<path class="st2" d="M306.6,850h-7v-12.8h7v0.8h-6.1v4.9h5.8v0.8h-5.8v5.5h6.1V850z"/>
		<path class="st2" d="M309.1,849.3c0-0.6,0.2-0.9,0.7-0.9s0.7,0.3,0.7,0.9s-0.2,0.9-0.7,0.9C309.5,850.1,309.1,849.9,309.1,849.3z"
			/>
		<path class="st2" d="M323.1,850h-0.9v-6.3h-7.5v6.3h-0.9v-12.8h0.9v5.7h7.5v-5.7h0.9V850z"/>
		<path class="st2" d="M331.9,843.5h4.7v5.9c-1.2,0.5-2.6,0.8-4.2,0.8c-2,0-3.6-0.6-4.7-1.7c-1.1-1.1-1.6-2.8-1.6-4.9
			c0-1.3,0.3-2.5,0.8-3.5s1.3-1.8,2.3-2.3s2.1-0.8,3.4-0.8c1.4,0,2.7,0.3,3.8,0.8l-0.4,0.8c-1.1-0.5-2.3-0.8-3.5-0.8
			c-1.7,0-3,0.5-4,1.6c-1,1-1.5,2.5-1.5,4.2c0,1.9,0.5,3.4,1.4,4.4s2.3,1.5,4.2,1.5c1.2,0,2.2-0.2,3-0.5v-4.5h-3.8v-1H331.9z"/>
		<path class="st2" d="M339.5,849.3c0-0.6,0.2-0.9,0.7-0.9s0.7,0.3,0.7,0.9s-0.2,0.9-0.7,0.9C339.6,850.1,339.5,849.9,339.5,849.3z"
			/>
		<path class="st2" d="M351.4,850h-8v-0.8l3.4-3.6c1-1,1.6-1.8,2-2.3s0.7-1,0.9-1.5s0.3-1,0.3-1.5c0-0.8-0.3-1.4-0.8-1.9
			s-1.2-0.7-2-0.7c-1.1,0-2.1,0.4-3.1,1.2l-0.5-0.6c1.1-0.9,2.3-1.4,3.6-1.4c1.1,0,2,0.3,2.6,0.9s1,1.4,1,2.5c0,0.8-0.2,1.7-0.6,2.5
			s-1.2,1.8-2.4,2.9l-3.3,3.4l0,0h6.9V850z"/>
		<path class="st2" d="M361.1,840.1c0,0.8-0.3,1.5-0.8,2s-1.2,0.9-2,1v0.1c1,0.1,1.8,0.5,2.4,1s0.8,1.2,0.8,2.1
			c0,1.2-0.4,2.1-1.2,2.8c-0.8,0.7-2,1-3.5,1c-1.3,0-2.4-0.2-3.4-0.7v-0.9c0.5,0.3,1,0.5,1.7,0.6s1.2,0.2,1.7,0.2
			c1.3,0,2.3-0.3,2.9-0.8c0.7-0.5,1-1.3,1-2.2c0-0.8-0.3-1.5-1-2s-1.6-0.7-2.9-0.7h-1.4v-0.8h1.4c1.1,0,1.9-0.3,2.5-0.8
			s0.9-1.2,0.9-2.1c0-0.7-0.3-1.3-0.8-1.7s-1.2-0.6-2-0.6c-0.6,0-1.2,0.1-1.7,0.3s-1.1,0.5-1.8,0.9l-0.4-0.6c0.5-0.4,1.1-0.7,1.8-1
			c0.7-0.2,1.4-0.4,2.1-0.4c1.2,0,2.1,0.3,2.7,0.8C360.9,838.3,361.1,839.1,361.1,840.1z"/>
		<path class="st2" d="M365.8,850l5.3-12h-7.3v-0.8h8.3v0.6l-5.3,12.2H365.8z"/>
	</g>
	<g>
		<path class="st2" d="M63.8,332.5h-7v-12.8h7v0.8h-6.1v4.9h5.8v0.8h-5.8v5.5h6.1V332.5z"/>
		<path class="st2" d="M66.3,331.8c0-0.6,0.2-0.9,0.7-0.9s0.7,0.3,0.7,0.9s-0.2,0.9-0.7,0.9C66.6,332.6,66.3,332.4,66.3,331.8z"/>
		<path class="st2" d="M80.3,332.5h-0.9v-6.3h-7.5v6.3H71v-12.8h0.9v5.7h7.5v-5.7h0.9V332.5L80.3,332.5z"/>
		<path class="st2" d="M88.9,326h4.7v5.9c-1.2,0.5-2.6,0.8-4.2,0.8c-2,0-3.6-0.6-4.7-1.7c-1.1-1.1-1.6-2.8-1.6-4.9
			c0-1.3,0.3-2.5,0.8-3.5s1.3-1.8,2.3-2.3s2.1-0.8,3.4-0.8c1.4,0,2.7,0.3,3.8,0.8l-0.4,0.8c-1.1-0.5-2.3-0.8-3.5-0.8
			c-1.7,0-3,0.5-4,1.6s-1.5,2.5-1.5,4.2c0,1.9,0.5,3.4,1.4,4.4c0.9,1,2.3,1.5,4.2,1.5c1.2,0,2.2-0.2,3-0.5V327h-3.7L88.9,326
			L88.9,326z"/>
		<path class="st2" d="M96.6,331.8c0-0.6,0.2-0.9,0.7-0.9s0.7,0.3,0.7,0.9s-0.2,0.9-0.7,0.9C96.8,332.6,96.6,332.4,96.6,331.8z"/>
		<path class="st2" d="M110.6,332.5h-0.9v-6.3h-7.5v6.3h-0.9v-12.8h0.9v5.7h7.5v-5.7h0.9V332.5z"/>
		<path class="st2" d="M121.3,329.2c0,1.1-0.4,1.9-1.2,2.5s-1.8,0.9-3.1,0.9c-1.6,0-2.8-0.2-3.6-0.5v-0.9c0.9,0.4,2.1,0.6,3.5,0.6
			c1.1,0,1.9-0.2,2.5-0.7s0.9-1.1,0.9-1.9c0-0.5-0.1-0.9-0.3-1.2s-0.5-0.6-1-0.9s-1.1-0.5-2-0.9c-1.3-0.5-2.2-0.9-2.7-1.5
			s-0.8-1.2-0.8-2.1c0-1,0.4-1.7,1.1-2.4s1.7-0.9,2.9-0.9s2.3,0.2,3.4,0.7l-0.3,0.8c-1.1-0.4-2.1-0.7-3.1-0.7
			c-0.9,0-1.7,0.2-2.3,0.7s-0.8,1-0.8,1.8c0,0.5,0.1,0.9,0.3,1.2s0.5,0.6,0.8,0.8s1.1,0.5,2,0.9c1,0.3,1.8,0.7,2.3,1
			s0.9,0.7,1.1,1.1S121.3,328.6,121.3,329.2z"/>
		<path class="st2" d="M131.1,332.5h-8v-0.8l3.4-3.6c1-1,1.6-1.8,2-2.3s0.7-1,0.9-1.5s0.3-1,0.3-1.5c0-0.8-0.3-1.4-0.8-1.9
			s-1.2-0.7-2-0.7c-1.1,0-2.1,0.4-3.1,1.2l-0.5-0.6c1.1-0.9,2.3-1.4,3.6-1.4c1.1,0,2,0.3,2.6,0.9s1,1.4,1,2.5c0,0.8-0.2,1.7-0.6,2.5
			s-1.2,1.8-2.4,2.9l-3.3,3.4l0,0h6.9L131.1,332.5L131.1,332.5z"/>
	</g>
	<g>
		<path class="st2" d="M63.8,488.8h-7V476h7v0.8h-6.1v4.9h5.8v0.8h-5.8v5.5h6.1V488.8z"/>
		<path class="st2" d="M66.3,488.1c0-0.6,0.2-0.9,0.7-0.9s0.7,0.3,0.7,0.9S67.5,489,67,489C66.6,489,66.3,488.7,66.3,488.1z"/>
		<path class="st2" d="M80.3,488.8h-0.9v-6.3h-7.5v6.3H71V476h0.9v5.7h7.5V476h0.9V488.8L80.3,488.8z"/>
		<path class="st2" d="M88.9,482.3h4.7v5.9c-1.2,0.5-2.6,0.8-4.2,0.8c-2,0-3.6-0.6-4.7-1.7c-1.1-1.1-1.6-2.8-1.6-4.9
			c0-1.3,0.3-2.5,0.8-3.5s1.3-1.8,2.3-2.3s2.1-0.8,3.4-0.8c1.4,0,2.7,0.3,3.8,0.8l-0.4,0.8c-1.1-0.5-2.3-0.8-3.5-0.8
			c-1.7,0-3,0.5-4,1.6c-1,1-1.5,2.5-1.5,4.2c0,1.9,0.5,3.4,1.4,4.4c0.9,1,2.3,1.5,4.2,1.5c1.2,0,2.2-0.2,3-0.5v-4.5h-3.7L88.9,482.3
			L88.9,482.3z"/>
		<path class="st2" d="M96.6,488.1c0-0.6,0.2-0.9,0.7-0.9s0.7,0.3,0.7,0.9s-0.2,0.9-0.7,0.9S96.6,488.7,96.6,488.1z"/>
		<path class="st2" d="M110.6,488.8h-0.9v-6.3h-7.5v6.3h-0.9V476h0.9v5.7h7.5V476h0.9V488.8z"/>
		<path class="st2" d="M121.3,485.5c0,1.1-0.4,1.9-1.2,2.5s-1.8,0.9-3.1,0.9c-1.6,0-2.8-0.2-3.6-0.5v-0.9c0.9,0.4,2.1,0.6,3.5,0.6
			c1.1,0,1.9-0.2,2.5-0.7s0.9-1.1,0.9-1.9c0-0.5-0.1-0.9-0.3-1.2s-0.5-0.6-1-0.9s-1.1-0.5-2-0.9c-1.3-0.5-2.2-0.9-2.7-1.5
			c-0.5-0.5-0.8-1.2-0.8-2.1c0-1,0.4-1.7,1.1-2.4c0.8-0.6,1.7-0.9,2.9-0.9s2.3,0.2,3.4,0.7l-0.3,0.8c-1.1-0.4-2.1-0.7-3.1-0.7
			c-0.9,0-1.7,0.2-2.3,0.7s-0.8,1-0.8,1.8c0,0.5,0.1,0.9,0.3,1.2s0.5,0.6,0.8,0.8c0.4,0.2,1.1,0.5,2,0.9c1,0.3,1.8,0.7,2.3,1
			s0.9,0.7,1.1,1.1C121.1,484.4,121.3,484.9,121.3,485.5z"/>
		<path class="st2" d="M130.8,479c0,0.8-0.3,1.5-0.8,2s-1.2,0.9-2,1v0.1c1,0.1,1.8,0.5,2.4,1s0.8,1.2,0.8,2.1c0,1.2-0.4,2.1-1.2,2.8
			s-2,1-3.5,1c-1.3,0-2.4-0.2-3.4-0.7v-0.9c0.5,0.3,1,0.5,1.7,0.6s1.2,0.2,1.7,0.2c1.3,0,2.3-0.3,2.9-0.8c0.7-0.5,1-1.3,1-2.2
			c0-0.8-0.3-1.5-1-2s-1.6-0.7-2.9-0.7H125v-0.8h1.4c1.1,0,1.9-0.3,2.5-0.8s0.9-1.2,0.9-2.1c0-0.7-0.3-1.3-0.8-1.7s-1.2-0.6-2-0.6
			c-0.6,0-1.2,0.1-1.7,0.3s-1.1,0.5-1.8,0.9l-0.4-0.6c0.5-0.4,1.1-0.7,1.8-1c0.7-0.2,1.4-0.4,2.1-0.4c1.2,0,2.1,0.3,2.7,0.8
			C130.5,477.2,130.8,478,130.8,479z"/>
	</g>
	<g>
		<path class="st2" d="M63.8,642.6h-7v-12.8h7v0.8h-6.1v4.9h5.8v0.8h-5.8v5.5h6.1V642.6z"/>
		<path class="st2" d="M66.3,641.9c0-0.6,0.2-0.9,0.7-0.9s0.7,0.3,0.7,0.9s-0.2,0.9-0.7,0.9C66.6,642.8,66.3,642.5,66.3,641.9z"/>
		<path class="st2" d="M80.3,642.6h-0.9v-6.3h-7.5v6.3H71v-12.8h0.9v5.7h7.5v-5.7h0.9V642.6L80.3,642.6z"/>
		<path class="st2" d="M88.9,636.1h4.7v5.9c-1.2,0.5-2.6,0.8-4.2,0.8c-2,0-3.6-0.6-4.7-1.7c-1.1-1.1-1.6-2.8-1.6-4.9
			c0-1.3,0.3-2.5,0.8-3.5s1.3-1.8,2.3-2.3s2.1-0.8,3.4-0.8c1.4,0,2.7,0.3,3.8,0.8l-0.4,0.8c-1.1-0.5-2.3-0.8-3.5-0.8
			c-1.7,0-3,0.5-4,1.6c-1,1-1.5,2.5-1.5,4.2c0,1.9,0.5,3.4,1.4,4.4c0.9,1,2.3,1.5,4.2,1.5c1.2,0,2.2-0.2,3-0.5v-4.5h-3.7L88.9,636.1
			L88.9,636.1z"/>
		<path class="st2" d="M96.6,641.9c0-0.6,0.2-0.9,0.7-0.9s0.7,0.3,0.7,0.9s-0.2,0.9-0.7,0.9S96.6,642.5,96.6,641.9z"/>
		<path class="st2" d="M110.6,642.6h-0.9v-6.3h-7.5v6.3h-0.9v-12.8h0.9v5.7h7.5v-5.7h0.9V642.6z"/>
		<path class="st2" d="M121.3,639.3c0,1.1-0.4,1.9-1.2,2.5s-1.8,0.9-3.1,0.9c-1.6,0-2.8-0.2-3.6-0.5v-0.8c0.9,0.4,2.1,0.6,3.5,0.6
			c1.1,0,1.9-0.2,2.5-0.7s0.9-1.1,0.9-1.9c0-0.5-0.1-0.9-0.3-1.2s-0.5-0.6-1-0.9s-1.1-0.5-2-0.9c-1.3-0.5-2.2-0.9-2.7-1.5
			c-0.5-0.5-0.8-1.2-0.8-2.1c0-1,0.4-1.7,1.1-2.4c0.8-0.6,1.7-0.9,2.9-0.9s2.3,0.2,3.4,0.7l-0.3,0.8c-1.1-0.4-2.1-0.7-3.1-0.7
			c-0.9,0-1.7,0.2-2.3,0.7s-0.8,1-0.8,1.8c0,0.5,0.1,0.9,0.3,1.2s0.5,0.6,0.8,0.8c0.4,0.2,1.1,0.5,2,0.9c1,0.3,1.8,0.7,2.3,1
			s0.9,0.7,1.1,1.1C121.1,638.2,121.3,638.7,121.3,639.3z"/>
		<path class="st2" d="M132.1,639.3h-2.2v3.3h-0.8v-3.3h-6.6v-0.6l6.4-9.1h1.1v8.9h2.2L132.1,639.3L132.1,639.3z M129.1,638.6v-3.7
			c0-1.8,0-3.3,0.1-4.5h-0.1c-0.1,0.2-0.5,0.8-1.1,1.7l-4.5,6.5H129.1z"/>
	</g>
	<g>
		<path class="st2" d="M63.8,809.4h-7v-12.8h7v0.8h-6.1v4.9h5.8v0.8h-5.8v5.5h6.1V809.4z"/>
		<path class="st2" d="M66.3,808.7c0-0.6,0.2-0.9,0.7-0.9s0.7,0.3,0.7,0.9s-0.2,0.9-0.7,0.9C66.6,809.5,66.3,809.2,66.3,808.7z"/>
		<path class="st2" d="M80.3,809.4h-0.9v-6.3h-7.5v6.3H71v-12.8h0.9v5.7h7.5v-5.7h0.9V809.4L80.3,809.4z"/>
		<path class="st2" d="M88.9,802.9h4.7v5.9c-1.2,0.5-2.6,0.8-4.2,0.8c-2,0-3.6-0.6-4.7-1.7c-1.1-1.1-1.6-2.8-1.6-4.9
			c0-1.3,0.3-2.5,0.8-3.5s1.3-1.8,2.3-2.3s2.1-0.8,3.4-0.8c1.4,0,2.7,0.3,3.8,0.8L93,798c-1.1-0.5-2.3-0.8-3.5-0.8
			c-1.7,0-3,0.5-4,1.6c-1,1-1.5,2.5-1.5,4.2c0,1.9,0.5,3.4,1.4,4.4c0.9,1,2.3,1.5,4.2,1.5c1.2,0,2.2-0.2,3-0.5v-4.5h-3.7L88.9,802.9
			L88.9,802.9z"/>
		<path class="st2" d="M96.6,808.7c0-0.6,0.2-0.9,0.7-0.9s0.7,0.3,0.7,0.9s-0.2,0.9-0.7,0.9C96.8,809.5,96.6,809.2,96.6,808.7z"/>
		<path class="st2" d="M110.6,809.4h-0.9v-6.3h-7.5v6.3h-0.9v-12.8h0.9v5.7h7.5v-5.7h0.9V809.4z"/>
		<path class="st2" d="M121.3,806c0,1.1-0.4,1.9-1.2,2.5s-1.8,0.9-3.1,0.9c-1.6,0-2.8-0.2-3.6-0.5V808c0.9,0.4,2.1,0.6,3.5,0.6
			c1.1,0,1.9-0.2,2.5-0.7s0.9-1.1,0.9-1.9c0-0.5-0.1-0.9-0.3-1.2s-0.5-0.6-1-0.9s-1.1-0.5-2-0.9c-1.3-0.5-2.2-0.9-2.7-1.5
			c-0.5-0.5-0.8-1.2-0.8-2.1c0-1,0.4-1.7,1.1-2.4c0.8-0.6,1.7-0.9,2.9-0.9s2.3,0.2,3.4,0.7l-0.3,0.8c-1.1-0.4-2.1-0.7-3.1-0.7
			c-0.9,0-1.7,0.2-2.3,0.7s-0.8,1-0.8,1.8c0,0.5,0.1,0.9,0.3,1.2s0.5,0.6,0.8,0.8c0.4,0.2,1.1,0.5,2,0.9c1,0.3,1.8,0.7,2.3,1
			s0.9,0.7,1.1,1.1C121.1,805,121.3,805.5,121.3,806z"/>
		<path class="st2" d="M126.8,801.6c1.4,0,2.5,0.3,3.2,1s1.2,1.6,1.2,2.7c0,1.3-0.4,2.3-1.2,3.1s-2,1.1-3.4,1.1
			c-0.6,0-1.2-0.1-1.8-0.2c-0.6-0.1-1.1-0.3-1.4-0.5v-0.9c0.6,0.3,1.2,0.5,1.7,0.7c0.5,0.1,1,0.2,1.6,0.2c1.1,0,2-0.3,2.7-0.9
			c0.7-0.6,1-1.4,1-2.4s-0.3-1.7-1-2.2s-1.6-0.8-2.7-0.8c-0.8,0-1.6,0.1-2.4,0.3l-0.5-0.3l0.5-5.9h6.2v0.8h-5.4l-0.4,4.5
			C125.6,801.7,126.3,801.6,126.8,801.6z"/>
	</g>
	<g>
		<path class="st2" d="M445.8,850h-7v-12.8h7v0.8h-6.1v4.9h5.8v0.8h-5.8v5.5h6.1V850z"/>
		<path class="st2" d="M448.5,849.3c0-0.6,0.2-0.9,0.7-0.9s0.7,0.3,0.7,0.9s-0.2,0.9-0.7,0.9C448.7,850.1,448.5,849.9,448.5,849.3z"
			/>
		<path class="st2" d="M462.3,850h-0.9v-6.3h-7.5v6.3H453v-12.8h0.9v5.7h7.5v-5.7h0.9V850z"/>
		<path class="st2" d="M471,843.5h4.7v5.9c-1.2,0.5-2.6,0.8-4.2,0.8c-2,0-3.6-0.6-4.7-1.7c-1.1-1.1-1.6-2.8-1.6-4.9
			c0-1.3,0.3-2.5,0.8-3.5s1.3-1.8,2.3-2.3s2.1-0.8,3.4-0.8c1.4,0,2.7,0.3,3.8,0.8l-0.4,0.8c-1.1-0.5-2.3-0.8-3.5-0.8
			c-1.7,0-3,0.5-4,1.6c-1,1-1.5,2.5-1.5,4.2c0,1.9,0.5,3.4,1.4,4.4s2.3,1.5,4.2,1.5c1.2,0,2.2-0.2,3-0.5v-4.5H471V843.5L471,843.5z"
			/>
		<path class="st2" d="M478.7,849.3c0-0.6,0.2-0.9,0.7-0.9s0.7,0.3,0.7,0.9s-0.2,0.9-0.7,0.9C478.8,850.1,478.7,849.9,478.7,849.3z"
			/>
		<path class="st2" d="M490.5,850h-8v-0.8l3.4-3.6c1-1,1.6-1.8,2-2.3s0.7-1,0.9-1.5s0.3-1,0.3-1.5c0-0.8-0.3-1.4-0.8-1.9
			s-1.2-0.7-2-0.7c-1.1,0-2.1,0.4-3.1,1.2l-0.5-0.6c1.1-0.9,2.3-1.4,3.6-1.4c1.1,0,2,0.3,2.6,0.9s1,1.4,1,2.5c0,0.8-0.2,1.7-0.6,2.5
			c-0.4,0.8-1.2,1.8-2.4,2.9l-3.3,3.4l0,0h6.9L490.5,850L490.5,850z"/>
		<path class="st2" d="M500.3,840.1c0,0.8-0.3,1.5-0.8,2s-1.2,0.9-2,1v0.1c1,0.1,1.8,0.5,2.4,1s0.8,1.2,0.8,2.1
			c0,1.2-0.4,2.1-1.2,2.8s-2,1-3.5,1c-1.3,0-2.4-0.2-3.4-0.7v-0.9c0.5,0.3,1,0.5,1.7,0.6s1.2,0.2,1.7,0.2c1.3,0,2.3-0.3,2.9-0.8
			c0.7-0.5,1-1.3,1-2.2c0-0.8-0.3-1.5-1-2s-1.6-0.7-2.9-0.7h-1.4v-0.8h1.4c1.1,0,1.9-0.3,2.5-0.8s0.9-1.2,0.9-2.1
			c0-0.7-0.3-1.3-0.8-1.7s-1.2-0.6-2-0.6c-0.6,0-1.2,0.1-1.7,0.3s-1.1,0.5-1.8,0.9l-0.4-0.6c0.5-0.4,1.1-0.7,1.8-1
			c0.7-0.2,1.4-0.4,2.1-0.4c1.2,0,2.1,0.3,2.7,0.8C500,838.3,500.3,839.1,500.3,840.1z"/>
		<path class="st2" d="M503.2,844.5c0-1.7,0.2-3.1,0.7-4.2s1.1-2,1.9-2.5s1.8-0.8,3-0.8c0.6,0,1.1,0.1,1.5,0.2v0.8
			c-0.4-0.2-0.9-0.2-1.5-0.2c-1.4,0-2.6,0.5-3.4,1.6s-1.3,2.6-1.4,4.6h0.1c0.4-0.6,1-1,1.5-1.3s1.2-0.4,1.8-0.4c1.2,0,2.1,0.3,2.8,1
			s1,1.6,1,2.8c0,1.3-0.4,2.3-1.1,3.1c-0.7,0.8-1.7,1.1-2.9,1.1c-1.3,0-2.3-0.5-3.1-1.5C503.5,847.7,503.2,846.3,503.2,844.5z
			 M507.5,849.4c1,0,1.7-0.3,2.2-0.9s0.8-1.5,0.8-2.6c0-1-0.3-1.8-0.8-2.3s-1.2-0.8-2.2-0.8c-0.6,0-1.2,0.1-1.7,0.4
			s-0.9,0.6-1.2,1.1s-0.5,0.9-0.5,1.3c0,0.7,0.1,1.3,0.4,1.9s0.7,1.1,1.2,1.4S506.8,849.4,507.5,849.4z"/>
	</g>
	<g>
		<path class="st2" d="M864.8,86.3v7H852v-7h0.8v6.1h4.9v-5.8h0.8v5.8h5.5v-6.1H864.8z"/>
		<path class="st2" d="M864,83.8c-0.6,0-0.9-0.2-0.9-0.7s0.3-0.7,0.9-0.7s0.9,0.2,0.9,0.7C864.8,83.5,864.5,83.8,864,83.8z"/>
		<path class="st2" d="M864.8,69.8v0.9h-6.3v7.5h6.3v0.9H852v-0.9h5.7v-7.5H852v-0.9H864.8z"/>
		<path class="st2" d="M858.2,61.1v-4.7h5.9c0.5,1.2,0.8,2.6,0.8,4.2c0,2-0.6,3.6-1.7,4.7c-1.1,1.1-2.8,1.6-4.9,1.6
			c-1.3,0-2.5-0.3-3.5-0.8s-1.8-1.3-2.3-2.3s-0.8-2.1-0.8-3.4c0-1.4,0.3-2.7,0.8-3.8l0.8,0.4c-0.5,1.1-0.8,2.3-0.8,3.5
			c0,1.7,0.5,3,1.6,4c1,1,2.5,1.5,4.2,1.5c1.9,0,3.4-0.5,4.4-1.4s1.5-2.3,1.5-4.2c0-1.2-0.2-2.2-0.5-3h-4.5v3.8L858.2,61.1
			L858.2,61.1z"/>
		<path class="st2" d="M864,53.5c-0.6,0-0.9-0.2-0.9-0.7s0.3-0.7,0.9-0.7s0.9,0.2,0.9,0.7C864.8,53.3,864.5,53.5,864,53.5z"/>
		<path class="st2" d="M864.8,41.6v8H864l-3.6-3.4c-1-1-1.8-1.6-2.3-2s-1-0.7-1.5-0.9s-1-0.3-1.5-0.3c-0.8,0-1.4,0.3-1.9,0.8
			s-0.7,1.2-0.7,2c0,1.1,0.4,2.1,1.2,3.1l-0.6,0.5c-0.9-1.1-1.4-2.3-1.4-3.6c0-1.1,0.3-2,0.9-2.6s1.4-1,2.5-1c0.8,0,1.7,0.2,2.5,0.6
			c0.8,0.4,1.8,1.2,2.9,2.4l3.4,3.3l0,0v-6.9L864.8,41.6L864.8,41.6z"/>
		<path class="st2" d="M858.2,31.1c2.3,0,3.9,0.3,5,1c1.1,0.7,1.6,1.7,1.6,3.1c0,1.3-0.6,2.4-1.7,3.1c-1.1,0.7-2.8,1-5,1
			s-3.9-0.3-5-1s-1.6-1.7-1.6-3.1c0-1.4,0.6-2.4,1.7-3.1C854.5,31.5,856,31.1,858.2,31.1z M858.2,38.4c2,0,3.5-0.3,4.4-0.8
			s1.4-1.3,1.4-2.4c0-1.1-0.5-1.9-1.5-2.4s-2.4-0.8-4.4-0.8c-1.9,0-3.3,0.3-4.3,0.8s-1.5,1.3-1.5,2.4s0.5,1.9,1.5,2.4
			S856.3,38.4,858.2,38.4z"/>
		<path class="st2" d="M857,25.4c0-1.4,0.3-2.5,1-3.2s1.6-1.2,2.7-1.2c1.3,0,2.3,0.4,3.1,1.2s1.1,2,1.1,3.4c0,0.6-0.1,1.2-0.2,1.8
			c-0.1,0.6-0.3,1.1-0.5,1.4h-0.9c0.3-0.6,0.5-1.2,0.7-1.7c0.1-0.5,0.2-1,0.2-1.6c0-1.1-0.3-2-0.9-2.7c-0.6-0.7-1.4-1-2.4-1
			s-1.7,0.3-2.2,1s-0.8,1.6-0.8,2.7c0,0.8,0.1,1.6,0.3,2.4l-0.3,0.5l-5.9-0.5v-6.2h0.8v5.4l4.5,0.4C857,26.6,857,25.9,857,25.4z"/>
	</g>
	<g>
		<path class="st2" d="M925.5,702.6h-7v-12.8h7v0.8h-6.1v4.9h5.8v0.8h-5.8v5.5h6.1V702.6z"/>
		<path class="st2" d="M928,701.9c0-0.6,0.2-0.9,0.7-0.9s0.7,0.3,0.7,0.9s-0.2,0.9-0.7,0.9S928,702.5,928,701.9z"/>
		<path class="st2" d="M941.9,702.6H941v-6.3h-7.5v6.3h-0.9v-12.8h0.9v5.7h7.5v-5.7h0.9V702.6z"/>
		<path class="st2" d="M950.7,696.1h4.7v5.9c-1.2,0.5-2.6,0.8-4.2,0.8c-2,0-3.6-0.6-4.7-1.7c-1.1-1.1-1.6-2.8-1.6-4.9
			c0-1.3,0.3-2.5,0.8-3.5s1.3-1.8,2.3-2.3s2.1-0.8,3.4-0.8c1.4,0,2.7,0.3,3.8,0.8l-0.4,0.8c-1.1-0.5-2.3-0.8-3.5-0.8
			c-1.7,0-3,0.5-4,1.6c-1,1-1.5,2.5-1.5,4.2c0,1.9,0.5,3.4,1.4,4.4s2.3,1.5,4.2,1.5c1.2,0,2.2-0.2,3-0.5v-4.5h-3.8L950.7,696.1
			L950.7,696.1z"/>
		<path class="st2" d="M958.2,701.9c0-0.6,0.2-0.9,0.7-0.9s0.7,0.3,0.7,0.9s-0.2,0.9-0.7,0.9S958.2,702.5,958.2,701.9z"/>
		<path class="st2" d="M970.1,702.6h-8v-0.8l3.4-3.6c1-1,1.6-1.8,2-2.3s0.7-1,0.9-1.5s0.3-1,0.3-1.5c0-0.8-0.3-1.4-0.8-1.9
			s-1.2-0.7-2-0.7c-1.1,0-2.1,0.4-3.1,1.2l-0.5-0.6c1.1-0.9,2.3-1.4,3.6-1.4c1.1,0,2,0.3,2.6,0.9c0.6,0.6,1,1.4,1,2.5
			c0,0.8-0.2,1.7-0.6,2.5s-1.2,1.8-2.4,2.9l-3.3,3.4l0,0h6.9L970.1,702.6L970.1,702.6z"/>
		<path class="st2" d="M980.3,702.6h-8v-0.8l3.4-3.6c1-1,1.6-1.8,2-2.3s0.7-1,0.9-1.5s0.3-1,0.3-1.5c0-0.8-0.3-1.4-0.8-1.9
			s-1.2-0.7-2-0.7c-1.1,0-2.1,0.4-3.1,1.2l-0.5-0.6c1.1-0.9,2.3-1.4,3.6-1.4c1.1,0,2,0.3,2.6,0.9c0.6,0.6,1,1.4,1,2.5
			c0,0.8-0.2,1.7-0.6,2.5s-1.2,1.8-2.4,2.9l-3.3,3.4l0,0h6.9L980.3,702.6L980.3,702.6z"/>
		<path class="st2" d="M986.8,689.5c1.1,0,2,0.3,2.6,0.8c0.7,0.6,1,1.3,1,2.3c0,0.7-0.2,1.2-0.6,1.7s-1.1,1-2,1.4
			c1.1,0.5,1.9,1,2.4,1.5s0.7,1.2,0.7,2c0,1.1-0.4,1.9-1.1,2.5s-1.7,0.9-3,0.9s-2.3-0.3-3-0.9s-1-1.5-1-2.6c0-0.8,0.2-1.4,0.7-2
			s1.2-1.1,2.3-1.5c-0.9-0.4-1.6-0.9-2-1.4s-0.6-1.1-0.6-1.8c0-0.6,0.2-1.2,0.5-1.6c0.3-0.5,0.7-0.8,1.3-1.1
			C985.4,689.7,986.1,689.5,986.8,689.5z M983.6,699.4c0,0.8,0.3,1.4,0.8,1.9s1.3,0.7,2.3,0.7s1.7-0.2,2.3-0.7s0.9-1.1,0.9-1.9
			c0-0.7-0.2-1.3-0.7-1.8s-1.3-0.9-2.7-1.4c-1.1,0.4-1.8,0.9-2.3,1.4S983.6,698.7,983.6,699.4z M986.8,690.3c-0.8,0-1.5,0.2-2,0.6
			c-0.5,0.4-0.8,1-0.8,1.7c0,0.4,0.1,0.8,0.3,1.1s0.5,0.6,0.8,0.9c0.3,0.3,0.9,0.6,1.8,0.9c1-0.4,1.6-0.8,2.1-1.2s0.6-1,0.6-1.6
			c0-0.7-0.2-1.3-0.7-1.7S987.6,690.3,986.8,690.3z"/>
	</g>
	<g>
		<path class="st2" d="M932.6,850h-7v-12.8h7v0.8h-6.1v4.9h5.8v0.8h-5.8v5.5h6.1V850L932.6,850z"/>
		<path class="st2" d="M935.1,849.3c0-0.6,0.2-0.9,0.7-0.9s0.7,0.3,0.7,0.9s-0.2,0.9-0.7,0.9C935.3,850.1,935.1,849.8,935.1,849.3z"
			/>
		<path class="st2" d="M949.1,850h-0.9v-6.3h-7.5v6.3h-0.9v-12.8h0.9v5.7h7.5v-5.7h0.9V850z"/>
		<path class="st2" d="M957.8,843.5h4.7v5.9c-1.2,0.5-2.6,0.8-4.2,0.8c-2,0-3.6-0.6-4.7-1.7c-1.1-1.1-1.6-2.8-1.6-4.9
			c0-1.3,0.3-2.5,0.8-3.5s1.3-1.8,2.3-2.3s2.1-0.8,3.4-0.8c1.4,0,2.7,0.3,3.8,0.8l-0.4,0.8c-1.1-0.5-2.3-0.8-3.5-0.8
			c-1.7,0-3,0.5-4,1.6c-1,1-1.5,2.5-1.5,4.2c0,1.9,0.5,3.4,1.4,4.4s2.3,1.5,4.2,1.5c1.2,0,2.2-0.2,3-0.5v-4.5h-3.8L957.8,843.5
			L957.8,843.5z"/>
		<path class="st2" d="M965.3,849.3c0-0.6,0.2-0.9,0.7-0.9s0.7,0.3,0.7,0.9s-0.2,0.9-0.7,0.9C965.6,850.1,965.3,849.8,965.3,849.3z"
			/>
		<path class="st2" d="M977.2,850h-8v-0.8l3.4-3.6c1-1,1.6-1.8,2-2.3s0.7-1,0.9-1.5s0.3-1,0.3-1.5c0-0.8-0.3-1.4-0.8-1.9
			s-1.2-0.7-2-0.7c-1.1,0-2.1,0.4-3.1,1.2l-0.5-0.6c1.1-0.9,2.3-1.4,3.6-1.4c1.1,0,2,0.3,2.6,0.9c0.6,0.6,1,1.4,1,2.5
			c0,0.8-0.2,1.7-0.6,2.5s-1.2,1.8-2.4,2.9l-3.3,3.4l0,0h6.9L977.2,850L977.2,850z"/>
		<path class="st2" d="M987.1,840.1c0,0.8-0.3,1.5-0.8,2s-1.2,0.9-2,1v0.1c1,0.1,1.8,0.5,2.4,1s0.8,1.2,0.8,2.1
			c0,1.2-0.4,2.1-1.2,2.8c-0.8,0.7-2,1-3.5,1c-1.3,0-2.4-0.2-3.4-0.7v-0.9c0.5,0.3,1,0.5,1.7,0.6s1.2,0.2,1.7,0.2
			c1.3,0,2.3-0.3,2.9-0.8c0.7-0.5,1-1.3,1-2.2c0-0.8-0.3-1.5-1-2s-1.6-0.7-2.9-0.7h-1.4v-0.8h1.4c1.1,0,1.9-0.3,2.5-0.8
			s0.9-1.2,0.9-2.1c0-0.7-0.3-1.3-0.8-1.7s-1.2-0.6-2-0.6c-0.6,0-1.2,0.1-1.7,0.3s-1.1,0.5-1.8,0.9l-0.4-0.6c0.5-0.4,1.1-0.7,1.8-1
			c0.7-0.2,1.4-0.4,2.1-0.4c1.2,0,2.1,0.3,2.7,0.8C986.8,838.3,987.1,839.1,987.1,840.1z"/>
		<path class="st2" d="M994.8,850h-0.9v-9.4c0-0.8,0-1.7,0.1-2.6c-0.1,0.1-0.2,0.2-0.3,0.3s-1,0.8-2.7,2.1l-0.5-0.6l3.5-2.6h0.8V850
			z"/>
	</g>
	<g>
		<path class="st2" d="M829,878.5v7h-12.8v-7h0.8v6.1h4.9v-5.8h0.8v5.8h5.5v-6.1H829z"/>
		<path class="st2" d="M828.2,876c-0.6,0-0.9-0.2-0.9-0.7s0.3-0.7,0.9-0.7s0.9,0.2,0.9,0.7C829.2,875.7,828.8,876,828.2,876z"/>
		<path class="st2" d="M829,862v0.9h-6.3v7.5h6.3v0.9h-12.8v-0.9h5.7v-7.5h-5.7V862H829z"/>
		<path class="st2" d="M822.5,853.3v-4.7h5.9c0.5,1.2,0.8,2.6,0.8,4.2c0,2-0.6,3.6-1.7,4.7c-1.1,1.1-2.8,1.6-4.9,1.6
			c-1.3,0-2.5-0.3-3.5-0.8s-1.8-1.3-2.3-2.3s-0.8-2.1-0.8-3.4c0-1.4,0.3-2.7,0.8-3.8l0.8,0.4c-0.5,1.1-0.8,2.3-0.8,3.5
			c0,1.7,0.5,3,1.6,4c1,1,2.5,1.5,4.2,1.5c1.9,0,3.4-0.5,4.4-1.4s1.5-2.3,1.5-4.2c0-1.2-0.2-2.2-0.5-3h-4.5v3.8L822.5,853.3
			L822.5,853.3z"/>
		<path class="st2" d="M828.2,845.7c-0.6,0-0.9-0.2-0.9-0.7s0.3-0.7,0.9-0.7s0.9,0.2,0.9,0.7S828.8,845.7,828.2,845.7z"/>
		<path class="st2" d="M829,833.8v8h-0.8l-3.6-3.4c-1-1-1.8-1.6-2.3-2s-1-0.7-1.5-0.9s-1-0.3-1.5-0.3c-0.8,0-1.4,0.3-1.9,0.8
			s-0.7,1.2-0.7,2c0,1.1,0.4,2.1,1.2,3.1l-0.6,0.5c-0.9-1.1-1.4-2.3-1.4-3.6c0-1.1,0.3-2,0.9-2.6c0.6-0.6,1.4-1,2.5-1
			c0.8,0,1.7,0.2,2.5,0.6c0.8,0.4,1.8,1.2,2.9,2.4l3.4,3.3l0,0v-6.9L829,833.8L829,833.8z"/>
		<path class="st2" d="M819.2,824c0.8,0,1.5,0.3,2,0.8s0.9,1.2,1,2h0.1c0.1-1,0.5-1.8,1-2.4s1.2-0.8,2.1-0.8c1.2,0,2.1,0.4,2.8,1.2
			s1,2,1,3.5c0,1.3-0.2,2.4-0.7,3.4h-0.9c0.3-0.5,0.5-1,0.6-1.7s0.2-1.2,0.2-1.7c0-1.3-0.3-2.3-0.8-2.9c-0.5-0.7-1.3-1-2.2-1
			c-0.8,0-1.5,0.3-2,1s-0.7,1.6-0.7,2.9v1.4h-0.8v-1.3c0-1.1-0.3-1.9-0.8-2.5s-1.2-0.9-2.1-0.9c-0.7,0-1.3,0.3-1.7,0.8
			s-0.6,1.2-0.6,2c0,0.6,0.1,1.2,0.3,1.7s0.5,1.1,0.9,1.8l-0.6,0.4c-0.4-0.5-0.7-1.1-1-1.8c-0.2-0.7-0.4-1.4-0.4-2.1
			c0-1.2,0.3-2.1,0.8-2.7C817.3,824.3,818,824,819.2,824z"/>
		<path class="st2" d="M819.2,813.7c0.8,0,1.5,0.3,2,0.8s0.9,1.2,1,2h0.1c0.1-1,0.5-1.8,1-2.4s1.2-0.8,2.1-0.8
			c1.2,0,2.1,0.4,2.8,1.2s1,2,1,3.5c0,1.3-0.2,2.4-0.7,3.4h-0.9c0.3-0.5,0.5-1,0.6-1.7s0.2-1.2,0.2-1.7c0-1.3-0.3-2.3-0.8-2.9
			c-0.5-0.7-1.3-1-2.2-1c-0.8,0-1.5,0.3-2,1s-0.7,1.6-0.7,2.9v1.4h-0.8V818c0-1.1-0.3-1.9-0.8-2.5s-1.2-0.9-2.1-0.9
			c-0.7,0-1.3,0.3-1.7,0.8s-0.6,1.2-0.6,2c0,0.6,0.1,1.2,0.3,1.7s0.5,1.1,0.9,1.8l-0.6,0.5c-0.4-0.5-0.7-1.1-1-1.8
			c-0.2-0.7-0.4-1.4-0.4-2.1c0-1.2,0.3-2.1,0.8-2.7C817.3,814,818,813.7,819.2,813.7z"/>
	</g>
	<g>
		<path class="st2" d="M885.2,878.5v7h-12.8v-7h0.8v6.1h4.9v-5.8h0.8v5.8h5.5v-6.1H885.2z"/>
		<path class="st2" d="M884.5,876c-0.6,0-0.9-0.2-0.9-0.7s0.3-0.7,0.9-0.7s0.9,0.2,0.9,0.7C885.5,875.7,885.2,876,884.5,876z"/>
		<path class="st2" d="M885.2,862v0.9H879v7.5h6.3v0.9h-12.8v-0.9h5.7v-7.5h-5.7V862H885.2z"/>
		<path class="st2" d="M878.8,853.3v-4.7h5.9c0.5,1.2,0.8,2.6,0.8,4.2c0,2-0.6,3.6-1.7,4.7c-1.1,1.1-2.8,1.6-4.9,1.6
			c-1.3,0-2.5-0.3-3.5-0.8s-1.8-1.3-2.3-2.3s-0.8-2.1-0.8-3.4c0-1.4,0.3-2.7,0.8-3.8l0.8,0.4c-0.5,1.1-0.8,2.3-0.8,3.5
			c0,1.7,0.5,3,1.6,4c1,1,2.5,1.5,4.2,1.5c1.9,0,3.4-0.5,4.4-1.4s1.5-2.3,1.5-4.2c0-1.2-0.2-2.2-0.5-3h-4.5v3.8L878.8,853.3
			L878.8,853.3z"/>
		<path class="st2" d="M884.5,845.7c-0.6,0-0.9-0.2-0.9-0.7s0.3-0.7,0.9-0.7s0.9,0.2,0.9,0.7S885.2,845.7,884.5,845.7z"/>
		<path class="st2" d="M885.2,833.8v8h-0.8l-3.6-3.4c-1-1-1.8-1.6-2.3-2s-1-0.7-1.5-0.9s-1-0.3-1.5-0.3c-0.8,0-1.4,0.3-1.9,0.8
			s-0.7,1.2-0.7,2c0,1.1,0.4,2.1,1.2,3.1l-0.6,0.5c-0.9-1.1-1.4-2.3-1.4-3.6c0-1.1,0.3-2,0.9-2.6c0.6-0.6,1.4-1,2.5-1
			c0.8,0,1.7,0.2,2.5,0.6c0.8,0.4,1.8,1.2,2.9,2.4l3.4,3.3l0,0v-6.9L885.2,833.8L885.2,833.8z"/>
		<path class="st2" d="M875.5,824c0.8,0,1.5,0.3,2,0.8s0.9,1.2,1,2h0.1c0.1-1,0.5-1.8,1-2.4s1.2-0.8,2.1-0.8c1.2,0,2.1,0.4,2.8,1.2
			s1,2,1,3.5c0,1.3-0.2,2.4-0.7,3.4h-0.9c0.3-0.5,0.5-1,0.6-1.7s0.2-1.2,0.2-1.7c0-1.3-0.3-2.3-0.8-2.9c-0.5-0.7-1.3-1-2.2-1
			c-0.8,0-1.5,0.3-2,1s-0.7,1.6-0.7,2.9v1.4h-0.8v-1.3c0-1.1-0.3-1.9-0.8-2.5s-1.2-0.9-2.1-0.9c-0.7,0-1.3,0.3-1.7,0.8
			s-0.6,1.2-0.6,2c0,0.6,0.1,1.2,0.3,1.7s0.5,1.1,0.9,1.8l-0.6,0.4c-0.4-0.5-0.7-1.1-1-1.8c-0.2-0.7-0.4-1.4-0.4-2.1
			c0-1.2,0.3-2.1,0.8-2.7C873.7,824.3,874.3,824,875.5,824z"/>
		<path class="st2" d="M885.2,813.3v8h-0.8l-3.6-3.4c-1-1-1.8-1.6-2.3-2s-1-0.7-1.5-0.9s-1-0.3-1.5-0.3c-0.8,0-1.4,0.3-1.9,0.8
			s-0.7,1.2-0.7,2c0,1.1,0.4,2.1,1.2,3.1l-0.6,0.5c-0.9-1.1-1.4-2.3-1.4-3.6c0-1.1,0.3-2,0.9-2.6c0.6-0.6,1.4-1,2.5-1
			c0.8,0,1.7,0.2,2.5,0.6c0.8,0.4,1.8,1.2,2.9,2.4l3.4,3.3l0,0v-6.9L885.2,813.3L885.2,813.3z"/>
	</g>
	<g>
		<path class="st2" d="M542,732.1v7h-12.8v-7h0.8v6.1h4.9v-5.8h0.8v5.8h5.5v-6.1H542z"/>
		<path class="st2" d="M541.2,729.6c-0.6,0-0.9-0.2-0.9-0.7s0.3-0.7,0.9-0.7s0.9,0.2,0.9,0.7S541.8,729.6,541.2,729.6z"/>
		<path class="st2" d="M542,715.6v0.9h-6.3v7.5h6.3v0.9h-12.8V724h5.7v-7.5h-5.7v-0.9H542z"/>
		<path class="st2" d="M535.5,707v-4.7h5.9c0.5,1.2,0.8,2.6,0.8,4.2c0,2-0.6,3.6-1.7,4.7c-1.1,1.1-2.8,1.6-4.9,1.6
			c-1.3,0-2.5-0.3-3.5-0.8s-1.8-1.3-2.3-2.3s-0.8-2.1-0.8-3.4c0-1.4,0.3-2.7,0.8-3.8l0.8,0.4c-0.5,1.1-0.8,2.3-0.8,3.5
			c0,1.7,0.5,3,1.6,4c1,1,2.5,1.5,4.2,1.5c1.9,0,3.4-0.5,4.4-1.4s1.5-2.3,1.5-4.2c0-1.2-0.2-2.2-0.5-3h-4.5v3.8L535.5,707L535.5,707
			z"/>
		<path class="st2" d="M541.2,699.4c-0.6,0-0.9-0.2-0.9-0.7s0.3-0.7,0.9-0.7s0.9,0.2,0.9,0.7S541.8,699.4,541.2,699.4z"/>
		<path class="st2" d="M542,687.5v8h-0.8l-3.6-3.4c-1-1-1.8-1.6-2.3-2s-1-0.7-1.5-0.9s-1-0.3-1.5-0.3c-0.8,0-1.4,0.3-1.9,0.8
			s-0.7,1.2-0.7,2c0,1.1,0.4,2.1,1.2,3.1l-0.6,0.5c-0.9-1.1-1.4-2.3-1.4-3.6c0-1.1,0.3-2,0.9-2.6c0.6-0.6,1.4-1,2.5-1
			c0.8,0,1.7,0.2,2.5,0.6c0.8,0.4,1.8,1.2,2.9,2.4l3.4,3.3l0,0v-6.9L542,687.5L542,687.5z"/>
		<path class="st2" d="M542,677.2v8h-0.8l-3.6-3.4c-1-1-1.8-1.6-2.3-2s-1-0.7-1.5-0.9s-1-0.3-1.5-0.3c-0.8,0-1.4,0.3-1.9,0.8
			s-0.7,1.2-0.7,2c0,1.1,0.4,2.1,1.2,3.1l-0.6,0.5c-0.9-1.1-1.4-2.3-1.4-3.6c0-1.1,0.3-2,0.9-2.6c0.6-0.6,1.4-1,2.5-1
			c0.8,0,1.7,0.2,2.5,0.6c0.8,0.4,1.8,1.2,2.9,2.4l3.4,3.3l0,0v-6.9L542,677.2L542,677.2z"/>
		<path class="st2" d="M532.2,667.4c0.8,0,1.5,0.3,2,0.8s0.9,1.2,1,2h0.1c0.1-1,0.5-1.8,1-2.4s1.2-0.8,2.1-0.8
			c1.2,0,2.1,0.4,2.8,1.2s1,2,1,3.5c0,1.3-0.2,2.4-0.7,3.4h-0.9c0.3-0.5,0.5-1,0.6-1.7s0.2-1.2,0.2-1.7c0-1.3-0.3-2.3-0.8-2.9
			c-0.5-0.7-1.3-1-2.2-1c-0.8,0-1.5,0.3-2,1s-0.7,1.6-0.7,2.9v1.4h-0.8v-1.4c0-1.1-0.3-1.9-0.8-2.5s-1.2-0.9-2.1-0.9
			c-0.7,0-1.3,0.3-1.7,0.8s-0.6,1.2-0.6,2c0,0.6,0.1,1.2,0.3,1.7s0.5,1.1,0.9,1.8l-0.6,0.4c-0.4-0.5-0.7-1.1-1-1.8
			c-0.2-0.7-0.4-1.4-0.4-2.1c0-1.2,0.3-2.1,0.8-2.7C530.3,667.7,531.2,667.4,532.2,667.4z"/>
	</g>
	<g>
		<path class="st2" d="M593,732.1v7h-12.8v-7h0.8v6.1h4.9v-5.8h0.8v5.8h5.5v-6.1H593z"/>
		<path class="st2" d="M592.5,729.6c-0.6,0-0.9-0.2-0.9-0.7s0.3-0.7,0.9-0.7s0.9,0.2,0.9,0.7C593.2,729.4,593,729.6,592.5,729.6z"/>
		<path class="st2" d="M593,715.6v0.9h-6.3v7.5h6.3v0.9h-12.8V724h5.7v-7.5h-5.7v-0.9H593z"/>
		<path class="st2" d="M586.7,707v-4.7h5.9c0.5,1.2,0.8,2.6,0.8,4.2c0,2-0.6,3.6-1.7,4.7c-1.1,1.1-2.8,1.6-4.9,1.6
			c-1.3,0-2.5-0.3-3.5-0.8s-1.8-1.3-2.3-2.3s-0.8-2.1-0.8-3.4c0-1.4,0.3-2.7,0.8-3.8l0.8,0.4c-0.5,1.1-0.8,2.3-0.8,3.5
			c0,1.7,0.5,3,1.6,4c1,1,2.5,1.5,4.2,1.5c1.9,0,3.4-0.5,4.4-1.4s1.5-2.3,1.5-4.2c0-1.2-0.2-2.2-0.5-3h-4.5v3.8L586.7,707L586.7,707
			z"/>
		<path class="st2" d="M592.5,699.4c-0.6,0-0.9-0.2-0.9-0.7s0.3-0.7,0.9-0.7s0.9,0.2,0.9,0.7C593.2,699.2,593,699.4,592.5,699.4z"/>
		<path class="st2" d="M593,687.5v8h-0.8l-3.6-3.4c-1-1-1.8-1.6-2.3-2s-1-0.7-1.5-0.9s-1-0.3-1.5-0.3c-0.8,0-1.4,0.3-1.9,0.8
			s-0.7,1.2-0.7,2c0,1.1,0.4,2.1,1.2,3.1l-0.6,0.5c-0.9-1.1-1.4-2.3-1.4-3.6c0-1.1,0.3-2,0.9-2.6c0.6-0.6,1.4-1,2.5-1
			c0.8,0,1.7,0.2,2.5,0.6c0.8,0.4,1.8,1.2,2.9,2.4l3.4,3.3l0,0v-6.9L593,687.5L593,687.5z"/>
		<path class="st2" d="M593,677.2v8h-0.8l-3.6-3.4c-1-1-1.8-1.6-2.3-2s-1-0.7-1.5-0.9s-1-0.3-1.5-0.3c-0.8,0-1.4,0.3-1.9,0.8
			s-0.7,1.2-0.7,2c0,1.1,0.4,2.1,1.2,3.1l-0.6,0.5c-0.9-1.1-1.4-2.3-1.4-3.6c0-1.1,0.3-2,0.9-2.6c0.6-0.6,1.4-1,2.5-1
			c0.8,0,1.7,0.2,2.5,0.6c0.8,0.4,1.8,1.2,2.9,2.4l3.4,3.3l0,0v-6.9L593,677.2L593,677.2z"/>
		<path class="st2" d="M589.8,666v2.2h3.3v0.8h-3.3v6.6h-0.6l-9.1-6.4v-1.1h8.9v-2.2h0.8L589.8,666L589.8,666z M589,669h-3.7
			c-1.8,0-3.3,0-4.5-0.1v0.1c0.2,0.1,0.8,0.5,1.7,1.1l6.5,4.5V669z"/>
	</g>
	<g>
		<path class="st2" d="M647.5,732.1v7h-12.8v-7h0.8v6.1h4.9v-5.8h0.8v5.8h5.5v-6.1H647.5z"/>
		<path class="st2" d="M646.8,729.6c-0.6,0-0.9-0.2-0.9-0.7s0.3-0.7,0.9-0.7s0.9,0.2,0.9,0.7C647.7,729.4,647.3,729.6,646.8,729.6z"
			/>
		<path class="st2" d="M647.5,715.7v0.9h-6.3v7.5h6.3v0.9h-12.8v-0.9h5.7v-7.5h-5.7v-0.9H647.5z"/>
		<path class="st2" d="M641,707v-4.7h5.9c0.5,1.2,0.8,2.6,0.8,4.2c0,2-0.6,3.6-1.7,4.7c-1.1,1.1-2.8,1.6-4.9,1.6
			c-1.3,0-2.5-0.3-3.5-0.8s-1.8-1.3-2.3-2.3s-0.8-2.1-0.8-3.4c0-1.4,0.3-2.7,0.8-3.8l0.8,0.4c-0.5,1.1-0.8,2.3-0.8,3.5
			c0,1.7,0.5,3,1.6,4c1,1,2.5,1.5,4.2,1.5c1.9,0,3.4-0.5,4.4-1.4s1.5-2.3,1.5-4.2c0-1.2-0.2-2.2-0.5-3H642v3.8L641,707L641,707z"/>
		<path class="st2" d="M646.8,699.4c-0.6,0-0.9-0.2-0.9-0.7s0.3-0.7,0.9-0.7s0.9,0.2,0.9,0.7S647.3,699.4,646.8,699.4z"/>
		<path class="st2" d="M647.5,687.5v8h-0.8l-3.6-3.4c-1-1-1.8-1.6-2.3-2s-1-0.7-1.5-0.9s-1-0.3-1.5-0.3c-0.8,0-1.4,0.3-1.9,0.8
			s-0.7,1.2-0.7,2c0,1.1,0.4,2.1,1.2,3.1l-0.6,0.5c-0.9-1.1-1.4-2.3-1.4-3.6c0-1.1,0.3-2,0.9-2.6c0.6-0.6,1.4-1,2.5-1
			c0.8,0,1.7,0.2,2.5,0.6c0.8,0.4,1.8,1.2,2.9,2.4l3.4,3.3l0,0v-6.9L647.5,687.5L647.5,687.5z"/>
		<path class="st2" d="M647.5,677.2v8h-0.8l-3.6-3.4c-1-1-1.8-1.6-2.3-2s-1-0.7-1.5-0.9s-1-0.3-1.5-0.3c-0.8,0-1.4,0.3-1.9,0.8
			s-0.7,1.2-0.7,2c0,1.1,0.4,2.1,1.2,3.1l-0.6,0.5c-0.9-1.1-1.4-2.3-1.4-3.6c0-1.1,0.3-2,0.9-2.6c0.6-0.6,1.4-1,2.5-1
			c0.8,0,1.7,0.2,2.5,0.6c0.8,0.4,1.8,1.2,2.9,2.4l3.4,3.3l0,0v-6.9L647.5,677.2L647.5,677.2z"/>
		<path class="st2" d="M639.8,671.3c0-1.4,0.3-2.5,1-3.2c0.7-0.8,1.6-1.2,2.7-1.2c1.3,0,2.3,0.4,3.1,1.2s1.1,2,1.1,3.4
			c0,0.6-0.1,1.2-0.2,1.8c-0.1,0.6-0.3,1.1-0.5,1.4h-1c0.3-0.6,0.5-1.2,0.7-1.7c0.1-0.5,0.2-1,0.2-1.6c0-1.1-0.3-2-0.9-2.7
			c-0.6-0.7-1.4-1-2.4-1s-1.7,0.3-2.2,1s-0.8,1.6-0.8,2.7c0,0.8,0.1,1.6,0.3,2.4l-0.3,0.5l-5.9-0.5v-6.2h0.8v5.4l4.5,0.4
			C639.8,672.5,639.8,671.8,639.8,671.3z"/>
	</g>
	<g>
		<path class="st2" d="M700.5,732.1v7h-12.8v-7h0.8v6.1h4.9v-5.8h0.8v5.8h5.5v-6.1H700.5z"/>
		<path class="st2" d="M699.8,729.6c-0.6,0-0.9-0.2-0.9-0.7s0.3-0.7,0.9-0.7s0.9,0.2,0.9,0.7S700.5,729.6,699.8,729.6z"/>
		<path class="st2" d="M700.5,715.7v0.9h-6.3v7.5h6.3v0.9h-12.8v-0.9h5.7v-7.5h-5.7v-0.9H700.5z"/>
		<path class="st2" d="M694,707v-4.7h5.9c0.5,1.2,0.8,2.6,0.8,4.2c0,2-0.6,3.6-1.7,4.7c-1.1,1.1-2.8,1.6-4.9,1.6
			c-1.3,0-2.5-0.3-3.5-0.8s-1.8-1.3-2.3-2.3s-0.8-2.1-0.8-3.4c0-1.4,0.3-2.7,0.8-3.8l0.8,0.4c-0.5,1.1-0.8,2.3-0.8,3.5
			c0,1.7,0.5,3,1.6,4c1,1,2.5,1.5,4.2,1.5c1.9,0,3.4-0.5,4.4-1.4s1.5-2.3,1.5-4.2c0-1.2-0.2-2.2-0.5-3H695v3.8L694,707L694,707z"/>
		<path class="st2" d="M699.8,699.4c-0.6,0-0.9-0.2-0.9-0.7s0.3-0.7,0.9-0.7s0.9,0.2,0.9,0.7S700.5,699.4,699.8,699.4z"/>
		<path class="st2" d="M700.5,687.5v8h-0.8l-3.6-3.4c-1-1-1.8-1.6-2.3-2s-1-0.7-1.5-0.9s-1-0.3-1.5-0.3c-0.8,0-1.4,0.3-1.9,0.8
			s-0.7,1.2-0.7,2c0,1.1,0.4,2.1,1.2,3.1l-0.6,0.5c-0.9-1.1-1.4-2.3-1.4-3.6c0-1.1,0.3-2,0.9-2.6c0.6-0.6,1.4-1,2.5-1
			c0.8,0,1.7,0.2,2.5,0.6c0.8,0.4,1.8,1.2,2.9,2.4l3.4,3.3l0,0v-6.9L700.5,687.5L700.5,687.5z"/>
		<path class="st2" d="M700.5,677.2v8h-0.8l-3.6-3.4c-1-1-1.8-1.6-2.3-2s-1-0.7-1.5-0.9s-1-0.3-1.5-0.3c-0.8,0-1.4,0.3-1.9,0.8
			s-0.7,1.2-0.7,2c0,1.1,0.4,2.1,1.2,3.1l-0.6,0.5c-0.9-1.1-1.4-2.3-1.4-3.6c0-1.1,0.3-2,0.9-2.6c0.6-0.6,1.4-1,2.5-1
			c0.8,0,1.7,0.2,2.5,0.6c0.8,0.4,1.8,1.2,2.9,2.4l3.4,3.3l0,0v-6.9L700.5,677.2L700.5,677.2z"/>
		<path class="st2" d="M695,674.9c-1.7,0-3.1-0.2-4.2-0.7s-2-1.1-2.5-1.9c-0.6-0.8-0.8-1.8-0.8-3c0-0.6,0.1-1.1,0.2-1.5h0.8
			c-0.2,0.4-0.2,0.9-0.2,1.5c0,1.4,0.5,2.6,1.6,3.4c1,0.8,2.6,1.3,4.6,1.4V674c-0.6-0.4-1-1-1.3-1.5s-0.4-1.2-0.4-1.8
			c0-1.2,0.3-2.1,1-2.8s1.6-1,2.8-1c1.3,0,2.3,0.4,3.1,1.1c0.8,0.7,1.1,1.7,1.1,2.9c0,1.3-0.5,2.3-1.5,3.1
			C698.2,674.5,696.8,674.9,695,674.9z M700,670.6c0-1-0.3-1.7-0.9-2.2s-1.5-0.8-2.6-0.8c-1,0-1.8,0.3-2.3,0.8s-0.8,1.2-0.8,2.2
			c0,0.6,0.1,1.2,0.4,1.7c0.3,0.5,0.6,0.9,1.1,1.2s0.9,0.5,1.3,0.5c0.7,0,1.3-0.1,1.9-0.4c0.6-0.3,1.1-0.7,1.4-1.2
			C699.8,671.8,700,671.2,700,670.6z"/>
	</g>
	<g>
		<path class="st2" d="M753.7,732.1v7h-12.8v-7h0.8v6.1h4.9v-5.8h0.8v5.8h5.5v-6.1H753.7z"/>
		<path class="st2" d="M753,729.6c-0.6,0-0.9-0.2-0.9-0.7s0.3-0.7,0.9-0.7s0.9,0.2,0.9,0.7C753.8,729.4,753.5,729.6,753,729.6z"/>
		<path class="st2" d="M753.7,715.6v0.9h-6.3v7.5h6.3v0.9h-12.8V724h5.7v-7.5h-5.7v-0.9H753.7z"/>
		<path class="st2" d="M747.2,707v-4.7h5.9c0.5,1.2,0.8,2.6,0.8,4.2c0,2-0.6,3.6-1.7,4.7c-1.1,1.1-2.8,1.6-4.9,1.6
			c-1.3,0-2.5-0.3-3.5-0.8s-1.8-1.3-2.3-2.3s-0.8-2.1-0.8-3.4c0-1.4,0.3-2.7,0.8-3.8l0.8,0.4c-0.5,1.1-0.8,2.3-0.8,3.5
			c0,1.7,0.5,3,1.6,4c1,1,2.5,1.5,4.2,1.5c1.9,0,3.4-0.5,4.4-1.4s1.5-2.3,1.5-4.2c0-1.2-0.2-2.2-0.5-3h-4.5v3.8L747.2,707L747.2,707
			z"/>
		<path class="st2" d="M753,699.4c-0.6,0-0.9-0.2-0.9-0.7s0.3-0.7,0.9-0.7s0.9,0.2,0.9,0.7C753.8,699.2,753.5,699.4,753,699.4z"/>
		<path class="st2" d="M753.7,687.5v8h-0.8l-3.6-3.4c-1-1-1.8-1.6-2.3-2s-1-0.7-1.5-0.9s-1-0.3-1.5-0.3c-0.8,0-1.4,0.3-1.9,0.8
			s-0.7,1.2-0.7,2c0,1.1,0.4,2.1,1.2,3.1l-0.6,0.5c-0.9-1.1-1.4-2.3-1.4-3.6c0-1.1,0.3-2,0.9-2.6c0.6-0.6,1.4-1,2.5-1
			c0.8,0,1.7,0.2,2.5,0.6c0.8,0.4,1.8,1.2,2.9,2.4l3.4,3.3l0,0v-6.9L753.7,687.5L753.7,687.5z"/>
		<path class="st2" d="M753.7,677.2v8h-0.8l-3.6-3.4c-1-1-1.8-1.6-2.3-2s-1-0.7-1.5-0.9s-1-0.3-1.5-0.3c-0.8,0-1.4,0.3-1.9,0.8
			s-0.7,1.2-0.7,2c0,1.1,0.4,2.1,1.2,3.1L742,685c-0.9-1.1-1.4-2.3-1.4-3.6c0-1.1,0.3-2,0.9-2.6c0.6-0.6,1.4-1,2.5-1
			c0.8,0,1.7,0.2,2.5,0.6c0.8,0.4,1.8,1.2,2.9,2.4l3.4,3.3l0,0v-6.9H753.7L753.7,677.2z"/>
		<path class="st2" d="M753.7,673l-12-5.3v7.3h-0.8v-8.3h0.6l12.2,5.3V673z"/>
	</g>
	<g>
		<path class="st2" d="M425.3,600.1h-32.1V597l13.7-14.3c3.8-4,6.5-7,8.1-9.1s2.7-4.1,3.4-6c0.7-1.9,1.1-3.9,1.1-6
			c0-3.1-1-5.6-3-7.5s-4.6-2.9-7.8-2.9c-4.3,0-8.4,1.6-12.3,4.7l-1.9-2.4c4.3-3.6,9-5.4,14.3-5.4c4.5,0,8,1.2,10.6,3.6
			s3.8,5.7,3.8,9.9c0,3.4-0.9,6.7-2.6,9.9s-4.9,7.1-9.4,11.8L398,596.8v0.1h27.5v3.2H425.3z"/>
		<path class="st2" d="M436.2,597.3c0-2.3,0.9-3.4,2.8-3.4s2.9,1.1,2.9,3.4s-1,3.4-2.9,3.4C437.2,600.8,436.2,599.6,436.2,597.3z"/>
		<path class="st2" d="M498.3,574.3c0,8.2-2,14.6-6.1,19.4s-9.7,7.1-16.9,7.1c-7.1,0-12.8-2.4-16.8-7.1s-6.1-11.2-6.1-19.4
			s2.1-14.6,6.2-19.3s9.7-7,16.9-7c7.2,0,12.8,2.4,16.8,7.1S498.3,566.1,498.3,574.3z M456.3,574.3c0,7.4,1.6,13,4.9,17.1
			s8,6,14.1,6c6.2,0,10.9-2,14.2-6s4.9-9.7,4.9-17.1c0-7.4-1.6-13.1-4.9-17s-8-5.9-14.1-5.9s-10.8,2-14.2,6S456.3,567,456.3,574.3z"
			/>
		<path class="st2" d="M530.7,574.2h18.9v23.4c-5,2.1-10.6,3.2-16.8,3.2c-8.1,0-14.3-2.3-18.7-6.9s-6.5-11.1-6.5-19.5
			c0-5.2,1.1-9.9,3.2-13.9s5.2-7.2,9.2-9.4s8.6-3.3,13.8-3.3c5.6,0,10.6,1,15.1,3.1l-1.4,3.2c-4.5-2.1-9.1-3.1-13.9-3.1
			c-6.8,0-12.1,2.1-16.1,6.3s-6,9.8-6,16.9c0,7.7,1.9,13.6,5.7,17.5s9.3,5.9,16.6,5.9c4.7,0,8.8-0.7,12.1-2v-18.1h-15.3v-3.3
			L530.7,574.2L530.7,574.2z"/>
	</g>
	<g>
		<path class="st2" d="M638.3,215.9h-0.7l-2.8-9.9c-0.2-0.8-0.4-1.5-0.5-2c-0.1,0.5-0.2,1.1-0.4,1.8s-1.1,4-2.8,10.2h-0.8l-3.5-12.8
			h0.9l2.2,8.3c0.1,0.3,0.2,0.6,0.2,0.9s0.1,0.6,0.2,0.8c0.1,0.2,0.1,0.5,0.2,0.7s0.1,0.5,0.1,0.7c0.1-0.8,0.4-2,0.9-3.6l2.2-7.8h1
			l2.6,8.9c0.3,1,0.5,1.9,0.6,2.5c0.1-0.4,0.2-0.9,0.3-1.3s1-3.8,2.7-10.1h0.9L638.3,215.9z"/>
		<path class="st2" d="M649.3,203.7c-1.6,0-2.9,0.5-3.8,1.5s-1.4,2.4-1.4,4.2s0.4,3.3,1.3,4.3s2.1,1.5,3.7,1.5c1.1,0,2.1-0.1,3-0.4
			v0.8c-0.8,0.3-1.9,0.4-3.2,0.4c-1.8,0-3.2-0.6-4.3-1.7s-1.6-2.8-1.6-4.9c0-1.3,0.2-2.5,0.7-3.5s1.2-1.8,2.1-2.3s2-0.8,3.2-0.8
			c1.3,0,2.4,0.2,3.4,0.7l-0.2,0.9C651.3,203.9,650.3,203.7,649.3,203.7z"/>
	</g>
	<g>
		<path class="st2" d="M687.3,215.9h-0.7l-2.8-9.9c-0.2-0.8-0.4-1.5-0.5-2c-0.1,0.5-0.2,1.1-0.4,1.8s-1.1,4-2.8,10.2h-0.8l-3.5-12.8
			h0.9l2.2,8.3c0.1,0.3,0.2,0.6,0.2,0.9s0.1,0.6,0.2,0.8c0.1,0.2,0.1,0.5,0.2,0.7s0.1,0.5,0.1,0.7c0.1-0.8,0.4-2,0.9-3.6l2.2-7.8h1
			l2.6,8.9c0.3,1,0.5,1.9,0.6,2.5c0.1-0.4,0.2-0.9,0.3-1.3s1-3.8,2.7-10.1h0.9L687.3,215.9z"/>
		<path class="st2" d="M698.3,203.7c-1.6,0-2.9,0.5-3.8,1.5s-1.4,2.4-1.4,4.2s0.4,3.3,1.3,4.3s2.1,1.5,3.7,1.5c1.1,0,2.1-0.1,3-0.4
			v0.8c-0.8,0.3-1.9,0.4-3.2,0.4c-1.8,0-3.2-0.6-4.3-1.7s-1.6-2.8-1.6-4.9c0-1.3,0.2-2.5,0.7-3.5s1.2-1.8,2.1-2.3s2-0.8,3.2-0.8
			c1.3,0,2.4,0.2,3.4,0.7l-0.2,0.9C700.3,203.9,699.3,203.7,698.3,203.7z"/>
	</g>
	<g>
		<path class="st2" d="M379,701.6h-0.7l-2.8-9.9c-0.2-0.8-0.4-1.5-0.5-2c-0.1,0.5-0.2,1.1-0.4,1.8c-0.2,0.7-1.1,4-2.8,10.2H371
			l-3.5-12.8h0.9l2.2,8.3c0.1,0.3,0.2,0.6,0.2,0.9s0.1,0.6,0.2,0.8s0.1,0.5,0.2,0.7s0.1,0.5,0.1,0.7c0.1-0.8,0.4-2,0.9-3.6l2.2-7.8
			h1l2.6,8.9c0.3,1,0.5,1.9,0.6,2.5c0.1-0.4,0.2-0.9,0.3-1.3s1-3.8,2.7-10.1h0.9L379,701.6z"/>
		<path class="st2" d="M389.9,689.4c-1.6,0-2.9,0.5-3.8,1.5s-1.4,2.4-1.4,4.2s0.4,3.3,1.3,4.3s2.1,1.5,3.7,1.5c1.1,0,2.1-0.1,3-0.4
			v0.8c-0.8,0.3-1.9,0.4-3.2,0.4c-1.8,0-3.2-0.6-4.3-1.7s-1.6-2.8-1.6-4.9c0-1.3,0.2-2.5,0.7-3.5s1.2-1.8,2.1-2.3s2-0.8,3.2-0.8
			c1.3,0,2.4,0.2,3.4,0.7l-0.4,0.8C391.9,689.6,390.9,689.4,389.9,689.4z"/>
	</g>
	<g>
		<path class="st2" d="M433,701.2h-0.7l-2.8-9.9c-0.2-0.8-0.4-1.5-0.5-2c-0.1,0.5-0.2,1.1-0.4,1.8s-1.1,4-2.8,10.2H425l-3.5-12.8
			h0.9l2.2,8.3c0.1,0.3,0.2,0.6,0.2,0.9s0.1,0.6,0.2,0.8s0.1,0.5,0.2,0.7s0.1,0.5,0.1,0.7c0.1-0.8,0.4-2,0.9-3.6l2.2-7.8h1l2.6,8.9
			c0.3,1,0.5,1.9,0.6,2.5c0.1-0.4,0.2-0.9,0.3-1.3s1-3.8,2.7-10.1h0.9L433,701.2z"/>
		<path class="st2" d="M443.8,688.9c-1.6,0-2.9,0.5-3.8,1.5s-1.4,2.4-1.4,4.2s0.4,3.3,1.3,4.3s2.1,1.5,3.7,1.5c1.1,0,2.1-0.1,3-0.4
			v0.8c-0.8,0.3-1.9,0.4-3.2,0.4c-1.8,0-3.2-0.6-4.3-1.7s-1.6-2.8-1.6-4.9c0-1.3,0.2-2.5,0.7-3.5s1.2-1.8,2.1-2.3s2-0.8,3.2-0.8
			c1.3,0,2.4,0.2,3.4,0.7l-0.4,0.8C445.8,689.2,444.8,688.9,443.8,688.9z"/>
	</g>
	<g>
		<path class="st2" d="M277.5,293.5v-12.8h0.9v12h6.1v0.8H277.5z"/>
		<path class="st2" d="M286.4,281.3c0-0.6,0.2-0.8,0.6-0.8c0.2,0,0.3,0.1,0.4,0.2s0.2,0.4,0.2,0.6c0,0.3-0.1,0.5-0.2,0.6
			s-0.2,0.2-0.4,0.2C286.5,282.1,286.4,281.8,286.4,281.3z M287.4,293.5h-0.9v-9.6h0.9V293.5z"/>
		<path class="st2" d="M294.1,284.7h-2.2v8.8H291v-8.8h-1.8v-0.5l1.8-0.3v-0.7c0-1.2,0.2-2,0.6-2.6s1.1-0.8,2.1-0.8
			c0.5,0,1.1,0.1,1.6,0.2l-0.2,0.8c-0.5-0.1-0.9-0.2-1.4-0.2c-0.7,0-1.2,0.2-1.4,0.6s-0.4,1.1-0.4,2v0.9h2.2L294.1,284.7
			L294.1,284.7z"/>
		<path class="st2" d="M298.5,292.9c0.6,0,1,0,1.4-0.1v0.7c-0.4,0.1-0.9,0.2-1.5,0.2c-0.8,0-1.5-0.2-1.9-0.7s-0.6-1.2-0.6-2.1v-6.2
			h-1.4v-0.5l1.4-0.4l0.4-2.2h0.4v2.3h2.8v0.8h-2.8v6c0,0.7,0.1,1.3,0.4,1.6S298,292.9,298.5,292.9z"/>
	</g>
	<g>
		<path class="st2" d="M1038.2,704.2h-7v-12.8h7v0.8h-6.1v4.9h5.8v0.8h-5.8v5.5h6.1V704.2z"/>
		<path class="st2" d="M1040.7,703.5c0-0.6,0.2-0.9,0.7-0.9s0.7,0.3,0.7,0.9s-0.2,0.9-0.7,0.9S1040.7,704.1,1040.7,703.5z"/>
		<path class="st2" d="M1054.7,704.2h-0.9v-6.3h-7.5v6.3h-0.9v-12.8h0.9v5.7h7.5v-5.7h0.9V704.2z"/>
		<path class="st2" d="M1063.3,697.8h4.7v5.9c-1.2,0.5-2.6,0.8-4.2,0.8c-2,0-3.6-0.6-4.7-1.7c-1.1-1.1-1.6-2.8-1.6-4.9
			c0-1.3,0.3-2.5,0.8-3.5s1.3-1.8,2.3-2.3s2.1-0.8,3.4-0.8c1.4,0,2.7,0.3,3.8,0.8l-0.4,0.8c-1.1-0.5-2.3-0.8-3.5-0.8
			c-1.7,0-3,0.5-4,1.6c-1,1-1.5,2.5-1.5,4.2c0,1.9,0.5,3.4,1.4,4.4s2.3,1.5,4.2,1.5c1.2,0,2.2-0.2,3-0.5v-4.5h-3.8L1063.3,697.8
			L1063.3,697.8z"/>
		<path class="st2" d="M1070.9,703.5c0-0.6,0.2-0.9,0.7-0.9s0.7,0.3,0.7,0.9s-0.2,0.9-0.7,0.9
			C1071.2,704.4,1070.9,704.1,1070.9,703.5z"/>
		<path class="st2" d="M1082.8,704.2h-8v-0.8l3.4-3.6c1-1,1.6-1.8,2-2.3s0.7-1,0.9-1.5s0.3-1,0.3-1.5c0-0.8-0.3-1.4-0.8-1.9
			s-1.2-0.7-2-0.7c-1.1,0-2.1,0.4-3.1,1.2l-0.5-0.6c1.1-0.9,2.3-1.4,3.6-1.4c1.1,0,2,0.3,2.6,0.9c0.6,0.6,1,1.4,1,2.5
			c0,0.8-0.2,1.7-0.6,2.5s-1.2,1.8-2.4,2.9l-3.3,3.4l0,0h6.9V704.2z"/>
		<path class="st2" d="M1093.1,704.2h-8v-0.8l3.4-3.6c1-1,1.6-1.8,2-2.3s0.7-1,0.9-1.5s0.3-1,0.3-1.5c0-0.8-0.3-1.4-0.8-1.9
			s-1.2-0.7-2-0.7c-1.1,0-2.1,0.4-3.1,1.2l-0.5-0.6c1.1-0.9,2.3-1.4,3.6-1.4c1.1,0,2,0.3,2.6,0.9c0.6,0.6,1,1.4,1,2.5
			c0,0.8-0.2,1.7-0.6,2.5s-1.2,1.8-2.4,2.9l-3.3,3.4l0,0h6.9V704.2z"/>
		<path class="st2" d="M1103.4,696.8c0,1.7-0.2,3.1-0.7,4.2s-1.1,2-1.9,2.5s-1.9,0.8-3.1,0.8c-0.6,0-1.2-0.1-1.7-0.2v-0.7
			c0.3,0.1,0.6,0.1,0.9,0.2c0.4,0,0.6,0.1,0.8,0.1c1.4,0,2.6-0.5,3.4-1.6c0.8-1,1.3-2.6,1.4-4.6h-0.1c-0.4,0.6-0.9,1-1.5,1.3
			s-1.2,0.5-1.9,0.5c-1.2,0-2.1-0.3-2.8-1s-1-1.6-1-2.8c0-1.3,0.4-2.3,1.1-3.1s1.7-1.2,2.8-1.2c0.8,0,1.6,0.2,2.2,0.7
			c0.6,0.4,1.1,1.1,1.5,1.9C1103.2,694.6,1103.4,695.7,1103.4,696.8z M1099.2,692c-0.9,0-1.7,0.3-2.2,0.9c-0.6,0.6-0.8,1.5-0.8,2.6
			c0,1,0.3,1.8,0.8,2.3s1.2,0.8,2.2,0.8c0.6,0,1.1-0.1,1.7-0.4c0.5-0.3,0.9-0.6,1.2-1.1c0.3-0.4,0.5-0.9,0.5-1.3
			c0-0.7-0.1-1.3-0.4-1.9c-0.3-0.6-0.7-1.1-1.1-1.4C1100.4,692.1,1099.8,692,1099.2,692z"/>
	</g>
	<g>
		<path class="st2" d="M1044.6,850h-7v-12.8h7v0.8h-6.1v4.9h5.8v0.8h-5.8v5.5h6.1V850z"/>
		<path class="st2" d="M1047.1,849.3c0-0.6,0.2-0.9,0.7-0.9s0.7,0.3,0.7,0.9s-0.2,0.9-0.7,0.9
			C1047.3,850.1,1047.1,849.8,1047.1,849.3z"/>
		<path class="st2" d="M1061.1,850h-0.9v-6.3h-7.5v6.3h-0.9v-12.8h0.9v5.7h7.5v-5.7h0.9V850z"/>
		<path class="st2" d="M1069.8,843.5h4.7v5.9c-1.2,0.5-2.6,0.8-4.2,0.8c-2,0-3.6-0.6-4.7-1.7c-1.1-1.1-1.6-2.8-1.6-4.9
			c0-1.3,0.3-2.5,0.8-3.5s1.3-1.8,2.3-2.3s2.1-0.8,3.4-0.8c1.4,0,2.7,0.3,3.8,0.8l-0.4,0.8c-1.1-0.5-2.3-0.8-3.5-0.8
			c-1.7,0-3,0.5-4,1.6c-1,1-1.5,2.5-1.5,4.2c0,1.9,0.5,3.4,1.4,4.4s2.3,1.5,4.2,1.5c1.2,0,2.2-0.2,3-0.5v-4.5h-3.8L1069.8,843.5
			L1069.8,843.5z"/>
		<path class="st2" d="M1077.3,849.3c0-0.6,0.2-0.9,0.7-0.9s0.7,0.3,0.7,0.9s-0.2,0.9-0.7,0.9
			C1077.6,850.1,1077.3,849.8,1077.3,849.3z"/>
		<path class="st2" d="M1089.2,850h-8v-0.8l3.4-3.6c1-1,1.6-1.8,2-2.3s0.7-1,0.9-1.5s0.3-1,0.3-1.5c0-0.8-0.3-1.4-0.8-1.9
			s-1.2-0.7-2-0.7c-1.1,0-2.1,0.4-3.1,1.2l-0.5-0.6c1.1-0.9,2.3-1.4,3.6-1.4c1.1,0,2,0.3,2.6,0.9c0.6,0.6,1,1.4,1,2.5
			c0,0.8-0.2,1.7-0.6,2.5s-1.2,1.8-2.4,2.9l-3.3,3.4l0,0h6.9V850z"/>
		<path class="st2" d="M1099.1,840.1c0,0.8-0.3,1.5-0.8,2s-1.2,0.9-2,1v0.1c1,0.1,1.8,0.5,2.4,1s0.8,1.2,0.8,2.1
			c0,1.2-0.4,2.1-1.2,2.8c-0.8,0.7-2,1-3.5,1c-1.3,0-2.4-0.2-3.4-0.7v-0.9c0.5,0.3,1,0.5,1.7,0.6s1.2,0.2,1.7,0.2
			c1.3,0,2.3-0.3,2.9-0.8c0.7-0.5,1-1.3,1-2.2c0-0.8-0.3-1.5-1-2s-1.6-0.7-2.9-0.7h-1.4v-0.8h1.4c1.1,0,1.9-0.3,2.5-0.8
			s0.9-1.2,0.9-2.1c0-0.7-0.3-1.3-0.8-1.7s-1.2-0.6-2-0.6c-0.6,0-1.2,0.1-1.7,0.3s-1.1,0.5-1.8,0.9l-0.4-0.6c0.5-0.4,1.1-0.7,1.8-1
			c0.7-0.2,1.4-0.4,2.1-0.4c1.2,0,2.1,0.3,2.7,0.8C1098.8,838.3,1099.1,839.1,1099.1,840.1z"/>
		<path class="st2" d="M1110.1,843.5c0,2.3-0.3,3.9-1,5s-1.7,1.6-3.1,1.6c-1.3,0-2.4-0.6-3.1-1.7c-0.7-1.1-1-2.8-1-5s0.3-3.9,1-5
			s1.7-1.6,3.1-1.6s2.4,0.6,3.1,1.7C1109.7,839.7,1110.1,841.3,1110.1,843.5z M1102.7,843.5c0,2,0.3,3.5,0.8,4.4s1.3,1.4,2.4,1.4
			s1.9-0.5,2.4-1.5s0.8-2.4,0.8-4.4c0-1.9-0.3-3.3-0.8-4.3s-1.3-1.5-2.4-1.5s-1.9,0.5-2.4,1.5S1102.7,841.6,1102.7,843.5z"/>
	</g>
	<g>
		<path class="st2" d="M607.5,850h-7v-12.8h7v0.8h-6.1v4.9h5.8v0.8h-5.8v5.5h6.1V850z"/>
		<path class="st2" d="M610,849.3c0-0.6,0.2-0.9,0.7-0.9s0.7,0.3,0.7,0.9s-0.2,0.9-0.7,0.9C610.3,850.1,610,849.9,610,849.3z"/>
		<path class="st2" d="M624,850h-0.9v-6.3h-7.5v6.3h-0.9v-12.8h0.9v5.7h7.5v-5.7h0.9V850z"/>
		<path class="st2" d="M632.8,843.5h4.7v5.9c-1.2,0.5-2.6,0.8-4.2,0.8c-2,0-3.6-0.6-4.7-1.7c-1.1-1.1-1.6-2.8-1.6-4.9
			c0-1.3,0.3-2.5,0.8-3.5s1.3-1.8,2.3-2.3s2.1-0.8,3.4-0.8c1.4,0,2.7,0.3,3.8,0.8l-0.4,0.8c-1.1-0.5-2.3-0.8-3.5-0.8
			c-1.7,0-3,0.5-4,1.6c-1,1-1.5,2.5-1.5,4.2c0,1.9,0.5,3.4,1.4,4.4s2.3,1.5,4.2,1.5c1.2,0,2.2-0.2,3-0.5v-4.5h-3.8L632.8,843.5
			L632.8,843.5z"/>
		<path class="st2" d="M640.3,849.3c0-0.6,0.2-0.9,0.7-0.9s0.7,0.3,0.7,0.9s-0.2,0.9-0.7,0.9C640.5,850.1,640.3,849.9,640.3,849.3z"
			/>
		<path class="st2" d="M652.2,850h-8v-0.8l3.4-3.6c1-1,1.6-1.8,2-2.3s0.7-1,0.9-1.5s0.3-1,0.3-1.5c0-0.8-0.3-1.4-0.8-1.9
			s-1.2-0.7-2-0.7c-1.1,0-2.1,0.4-3.1,1.2l-0.5-0.6c1.1-0.9,2.3-1.4,3.6-1.4c1.1,0,2,0.3,2.6,0.9s1,1.4,1,2.5c0,0.8-0.2,1.7-0.6,2.5
			c-0.4,0.8-1.2,1.8-2.4,2.9l-3.3,3.4l0,0h6.9L652.2,850L652.2,850z"/>
		<path class="st2" d="M662,840.1c0,0.8-0.2,1.5-0.8,2s-1.2,0.9-2,1v0.1c1,0.1,1.8,0.5,2.4,1s0.8,1.2,0.8,2.1c0,1.2-0.4,2.1-1.2,2.8
			s-2,1-3.5,1c-1.3,0-2.4-0.2-3.4-0.7v-0.9c0.5,0.3,1,0.5,1.7,0.6s1.2,0.2,1.7,0.2c1.3,0,2.3-0.3,2.9-0.8c0.7-0.5,1-1.3,1-2.2
			c0-0.8-0.3-1.5-1-2s-1.6-0.7-2.9-0.7h-1.5v-0.8h1.4c1.1,0,1.9-0.3,2.5-0.8s0.9-1.2,0.9-2.1c0-0.7-0.3-1.3-0.8-1.7s-1.2-0.6-2-0.6
			c-0.6,0-1.2,0.1-1.7,0.3s-1.1,0.5-1.8,0.9l-0.4-0.6c0.5-0.4,1.1-0.7,1.8-1c0.7-0.2,1.4-0.4,2.1-0.4c1.2,0,2.1,0.3,2.7,0.8
			C661.8,838.3,662,839.1,662,840.1z"/>
		<path class="st2" d="M668.5,842.2c1.4,0,2.5,0.3,3.2,1c0.8,0.7,1.2,1.6,1.2,2.7c0,1.3-0.4,2.3-1.2,3.1s-2,1.1-3.4,1.1
			c-0.6,0-1.2-0.1-1.8-0.2c-0.6-0.1-1.1-0.3-1.4-0.5v-0.9c0.6,0.3,1.2,0.5,1.7,0.7c0.5,0.1,1,0.2,1.6,0.2c1.1,0,2-0.3,2.7-0.9
			c0.7-0.6,1-1.4,1-2.4s-0.3-1.7-1-2.2s-1.6-0.8-2.7-0.8c-0.8,0-1.6,0.1-2.4,0.3l-0.5-0.3l0.5-5.9h6.2v0.8h-5.4l-0.4,4.5
			C667.2,842.3,668,842.2,668.5,842.2z"/>
	</g>
	<g>
		<path class="st2" d="M398,464.2h-7v-12.8h7v0.8h-6.1v4.9h5.8v0.8h-5.8v5.5h6.1V464.2z"/>
		<path class="st2" d="M400.5,463.6c0-0.6,0.2-0.9,0.7-0.9s0.7,0.3,0.7,0.9s-0.2,0.9-0.7,0.9C400.9,464.4,400.5,464.1,400.5,463.6z"
			/>
		<path class="st2" d="M414.5,464.2h-0.9v-6.3h-7.5v6.3h-0.9v-12.8h0.9v5.7h7.5v-5.7h0.9V464.2z"/>
		<path class="st2" d="M423.2,457.8h4.7v5.9c-1.2,0.5-2.6,0.8-4.2,0.8c-2,0-3.6-0.6-4.7-1.7s-1.6-2.8-1.6-4.9c0-1.3,0.3-2.5,0.8-3.5
			s1.3-1.8,2.3-2.3s2.1-0.8,3.4-0.8c1.4,0,2.7,0.3,3.8,0.8l-0.4,0.8c-1.1-0.5-2.3-0.8-3.5-0.8c-1.7,0-3,0.5-4,1.6s-1.5,2.5-1.5,4.2
			c0,1.9,0.5,3.4,1.4,4.4s2.3,1.5,4.2,1.5c1.2,0,2.2-0.2,3-0.5v-4.5h-3.7L423.2,457.8L423.2,457.8z"/>
		<path class="st2" d="M430.8,463.6c0-0.6,0.2-0.9,0.7-0.9s0.7,0.3,0.7,0.9s-0.2,0.9-0.7,0.9C431,464.4,430.8,464.1,430.8,463.6z"/>
		<path class="st2" d="M442.8,464.2h-8v-0.8l3.4-3.6c1-1,1.6-1.8,2-2.3s0.7-1,0.9-1.5s0.3-1,0.3-1.5c0-0.8-0.3-1.4-0.8-1.9
			s-1.2-0.7-2-0.7c-1.1,0-2.1,0.4-3.1,1.2l-0.5-0.6c1.1-0.9,2.3-1.4,3.6-1.4c1.1,0,2,0.3,2.6,0.9s1,1.4,1,2.5c0,0.8-0.2,1.7-0.6,2.5
			s-1.2,1.8-2.4,2.9l-3.3,3.4l0,0h6.9V464.2L442.8,464.2z"/>
		<path class="st2" d="M453,464.2h-8v-0.8l3.4-3.6c1-1,1.6-1.8,2-2.3s0.7-1,0.9-1.5s0.3-1,0.3-1.5c0-0.8-0.3-1.4-0.8-1.9
			s-1.2-0.7-2-0.7c-1.1,0-2.1,0.4-3.1,1.2l-0.5-0.6c1.1-0.9,2.3-1.4,3.6-1.4c1.1,0,2,0.3,2.6,0.9s1,1.4,1,2.5c0,0.8-0.2,1.7-0.6,2.5
			s-1.2,1.8-2.4,2.9l-3.3,3.4l0,0h6.9V464.2L453,464.2z"/>
		<path class="st2" d="M460.2,464.2h-0.9v-9.4c0-0.8,0-1.7,0.1-2.6c-0.1,0.1-0.2,0.2-0.3,0.3s-1,0.8-2.7,2.1l-0.5-0.6l3.5-2.6h0.8
			V464.2L460.2,464.2z"/>
	</g>
	<g>
		<path class="st2" d="M510.8,464.2h-7v-12.8h7v0.8h-6.1v4.9h5.8v0.8h-5.8v5.5h6.1V464.2z"/>
		<path class="st2" d="M513.2,463.6c0-0.6,0.2-0.9,0.7-0.9s0.7,0.3,0.7,0.9s-0.2,0.9-0.7,0.9C513.5,464.4,513.2,464.1,513.2,463.6z"
			/>
		<path class="st2" d="M527.2,464.2h-0.9v-6.3h-7.5v6.3h-0.9v-12.8h0.9v5.7h7.5v-5.7h0.9V464.2z"/>
		<path class="st2" d="M536,457.8h4.7v5.9c-1.2,0.5-2.6,0.8-4.2,0.8c-2,0-3.6-0.6-4.7-1.7s-1.6-2.8-1.6-4.9c0-1.3,0.3-2.5,0.8-3.5
			s1.3-1.8,2.3-2.3s2.1-0.8,3.4-0.8c1.4,0,2.7,0.3,3.8,0.8l-0.4,0.8c-1.1-0.5-2.3-0.8-3.5-0.8c-1.7,0-3,0.5-4,1.6s-1.5,2.5-1.5,4.2
			c0,1.9,0.5,3.4,1.4,4.4s2.3,1.5,4.2,1.5c1.2,0,2.2-0.2,3-0.5v-4.5h-3.8L536,457.8L536,457.8z"/>
		<path class="st2" d="M543.5,463.6c0-0.6,0.2-0.9,0.7-0.9s0.7,0.3,0.7,0.9s-0.2,0.9-0.7,0.9C543.8,464.4,543.5,464.1,543.5,463.6z"
			/>
		<path class="st2" d="M555.5,464.2h-8v-0.8l3.4-3.6c1-1,1.6-1.8,2-2.3s0.7-1,0.9-1.5s0.3-1,0.3-1.5c0-0.8-0.3-1.4-0.8-1.9
			s-1.2-0.7-2-0.7c-1.1,0-2.1,0.4-3.1,1.2l-0.5-0.6c1.1-0.9,2.3-1.4,3.6-1.4c1.1,0,2,0.3,2.6,0.9s1,1.4,1,2.5c0,0.8-0.2,1.7-0.6,2.5
			s-1.2,1.8-2.4,2.9l-3.3,3.4l0,0h6.9L555.5,464.2L555.5,464.2z"/>
		<path class="st2" d="M565.7,464.2h-8v-0.8l3.4-3.6c1-1,1.6-1.8,2-2.3s0.7-1,0.9-1.5s0.3-1,0.3-1.5c0-0.8-0.3-1.4-0.8-1.9
			s-1.2-0.7-2-0.7c-1.1,0-2.1,0.4-3.1,1.2l-0.5-0.6c1.1-0.9,2.3-1.4,3.6-1.4c1.1,0,2,0.3,2.6,0.9s1,1.4,1,2.5c0,0.8-0.2,1.7-0.6,2.5
			s-1.2,1.8-2.4,2.9l-3.3,3.4l0,0h6.9L565.7,464.2L565.7,464.2z"/>
		<path class="st2" d="M576.2,457.8c0,2.3-0.3,3.9-1,5s-1.7,1.6-3.1,1.6c-1.3,0-2.4-0.6-3.1-1.7s-1-2.8-1-5s0.3-3.9,1-5
			s1.7-1.6,3.1-1.6c1.4,0,2.4,0.6,3.1,1.7S576.2,455.6,576.2,457.8z M568.8,457.8c0,2,0.3,3.5,0.8,4.4s1.3,1.4,2.4,1.4
			c1.1,0,1.9-0.5,2.4-1.5s0.8-2.4,0.8-4.4c0-1.9-0.3-3.3-0.8-4.3s-1.3-1.5-2.4-1.5s-1.9,0.5-2.4,1.5S568.8,455.9,568.8,457.8z"/>
	</g>
	<g>
		<path class="st2" d="M639.8,464.2h-7v-12.8h7v0.8h-6.1v4.9h5.8v0.8h-5.8v5.5h6.1V464.2z"/>
		<path class="st2" d="M642.3,463.6c0-0.6,0.2-0.9,0.7-0.9s0.7,0.3,0.7,0.9s-0.2,0.9-0.7,0.9C642.5,464.4,642.3,464.1,642.3,463.6z"
			/>
		<path class="st2" d="M656.3,464.2h-0.9v-6.3h-7.5v6.3H647v-12.8h0.9v5.7h7.5v-5.7h0.9L656.3,464.2L656.3,464.2z"/>
		<path class="st2" d="M665,457.8h4.7v5.9c-1.2,0.5-2.6,0.8-4.2,0.8c-2,0-3.6-0.6-4.7-1.7s-1.6-2.8-1.6-4.9c0-1.3,0.3-2.5,0.8-3.5
			s1.3-1.8,2.3-2.3s2.1-0.8,3.4-0.8c1.4,0,2.7,0.3,3.8,0.8l-0.4,0.8c-1.1-0.5-2.3-0.8-3.5-0.8c-1.7,0-3,0.5-4,1.6s-1.5,2.5-1.5,4.2
			c0,1.9,0.5,3.4,1.4,4.4s2.3,1.5,4.2,1.5c1.2,0,2.2-0.2,3-0.5v-4.5H665V457.8L665,457.8z"/>
		<path class="st2" d="M672.5,463.6c0-0.6,0.2-0.9,0.7-0.9s0.7,0.3,0.7,0.9s-0.2,0.9-0.7,0.9C672.8,464.4,672.5,464.1,672.5,463.6z"
			/>
		<path class="st2" d="M684.5,464.2h-8v-0.8l3.4-3.6c1-1,1.6-1.8,2-2.3s0.7-1,0.9-1.5s0.3-1,0.3-1.5c0-0.8-0.3-1.4-0.8-1.9
			s-1.2-0.7-2-0.7c-1.1,0-2.1,0.4-3.1,1.2l-0.5-0.6c1.1-0.9,2.3-1.4,3.6-1.4c1.1,0,2,0.3,2.6,0.9s1,1.4,1,2.5c0,0.8-0.2,1.7-0.6,2.5
			s-1.2,1.8-2.4,2.9l-3.3,3.4l0,0h6.9L684.5,464.2L684.5,464.2z"/>
		<path class="st2" d="M691.7,464.2h-0.9v-9.4c0-0.8,0-1.7,0.1-2.6c-0.1,0.1-0.2,0.2-0.3,0.3s-1,0.8-2.7,2.1l-0.5-0.6l3.5-2.6h0.8
			L691.7,464.2L691.7,464.2z"/>
		<path class="st2" d="M705,456.8c0,1.7-0.2,3.1-0.7,4.2s-1.1,2-1.9,2.5s-1.9,0.8-3.1,0.8c-0.6,0-1.2-0.1-1.7-0.2v-0.7
			c0.3,0.1,0.6,0.1,0.9,0.2s0.6,0.1,0.8,0.1c1.4,0,2.6-0.5,3.4-1.6s1.3-2.6,1.4-4.6H704c-0.4,0.6-0.9,1-1.5,1.3s-1.2,0.5-1.9,0.5
			c-1.2,0-2.1-0.3-2.8-1s-1-1.6-1-2.8c0-1.3,0.4-2.3,1.1-3.1s1.7-1.2,2.8-1.2c0.8,0,1.6,0.2,2.2,0.7s1.1,1.1,1.5,1.9
			S705,455.7,705,456.8z M700.8,452c-0.9,0-1.7,0.3-2.2,0.9s-0.8,1.5-0.8,2.6c0,1,0.3,1.8,0.8,2.3s1.2,0.8,2.2,0.8
			c0.6,0,1.1-0.1,1.7-0.4s0.9-0.6,1.2-1.1s0.5-0.9,0.5-1.3c0-0.7-0.1-1.3-0.4-1.9s-0.7-1.1-1.1-1.4S701.5,452,700.8,452z"/>
	</g>
	<g>
		<path class="st2" d="M766.5,464.2h-7v-12.8h7v0.8h-6.1v4.9h5.8v0.8h-5.8v5.5h6.1V464.2z"/>
		<path class="st2" d="M769,463.6c0-0.6,0.2-0.9,0.7-0.9s0.7,0.3,0.7,0.9s-0.2,0.9-0.7,0.9C769.2,464.4,769,464.1,769,463.6z"/>
		<path class="st2" d="M783,464.2h-1v-6.3h-7.5v6.3h-0.9v-12.8h0.9v5.7h7.5v-5.7h0.9L783,464.2L783,464.2z"/>
		<path class="st2" d="M791.7,457.8h4.7v5.9c-1.2,0.5-2.6,0.8-4.2,0.8c-2,0-3.6-0.6-4.7-1.7s-1.6-2.8-1.6-4.9c0-1.3,0.3-2.5,0.8-3.5
			s1.3-1.8,2.3-2.3s2.1-0.8,3.4-0.8c1.4,0,2.7,0.3,3.8,0.8l-0.4,0.8c-1.1-0.5-2.3-0.8-3.5-0.8c-1.7,0-3,0.5-4,1.6s-1.5,2.5-1.5,4.2
			c0,1.9,0.5,3.4,1.4,4.4s2.3,1.5,4.2,1.5c1.2,0,2.2-0.2,3-0.5v-4.5h-3.8L791.7,457.8L791.7,457.8z"/>
		<path class="st2" d="M799.2,463.6c0-0.6,0.2-0.9,0.7-0.9s0.7,0.3,0.7,0.9s-0.2,0.9-0.7,0.9C799.5,464.4,799.2,464.1,799.2,463.6z"
			/>
		<path class="st2" d="M811.2,464.2h-8v-0.8l3.4-3.6c1-1,1.6-1.8,2-2.3s0.7-1,0.9-1.5s0.3-1,0.3-1.5c0-0.8-0.3-1.4-0.8-1.9
			s-1.2-0.7-2-0.7c-1.1,0-2.1,0.4-3.1,1.2l-0.5-0.6c1.1-0.9,2.3-1.4,3.6-1.4c1.1,0,2,0.3,2.6,0.9s1,1.4,1,2.5c0,0.8-0.2,1.7-0.6,2.5
			s-1.2,1.8-2.4,2.9l-3.3,3.5l0,0h6.9L811.2,464.2L811.2,464.2z"/>
		<path class="st2" d="M818.3,464.2h-0.9v-9.4c0-0.8,0-1.7,0.1-2.6c-0.1,0.1-0.2,0.2-0.3,0.3s-1,0.8-2.7,2.1L814,454l3.5-2.6h0.8
			V464.2L818.3,464.2z"/>
		<path class="st2" d="M827.8,451.2c1.1,0,2,0.3,2.6,0.8s1,1.3,1,2.3c0,0.7-0.2,1.2-0.6,1.7s-1.1,1-2,1.4c1.1,0.5,1.9,1,2.4,1.5
			s0.7,1.2,0.7,2c0,1.1-0.4,1.9-1.1,2.5s-1.7,0.9-3,0.9s-2.3-0.3-3-0.9s-1-1.5-1-2.6c0-0.8,0.2-1.4,0.7-2s1.2-1.1,2.3-1.5
			c-0.9-0.4-1.6-0.9-2-1.4s-0.6-1.1-0.6-1.8c0-0.6,0.2-1.2,0.5-1.6s0.7-0.8,1.3-1.1S827,451.2,827.8,451.2z M824.7,461.1
			c0,0.8,0.3,1.4,0.8,1.9s1.3,0.7,2.3,0.7s1.7-0.2,2.3-0.7s0.9-1.1,0.9-1.9c0-0.7-0.2-1.3-0.7-1.8s-1.3-0.9-2.7-1.4
			c-1.1,0.4-1.8,0.9-2.3,1.4S824.7,460.3,824.7,461.1z M827.8,452c-0.8,0-1.5,0.2-2,0.6s-0.8,1-0.8,1.7c0,0.4,0.1,0.8,0.3,1.1
			s0.5,0.6,0.8,0.9s0.9,0.6,1.8,0.9c1-0.4,1.6-0.8,2.1-1.2s0.6-1,0.6-1.6c0-0.7-0.2-1.3-0.7-1.7S828.5,452,827.8,452z"/>
	</g>
	<g>
		<path class="st2" d="M930,464.2h-7v-12.8h7v0.8h-6.1v4.9h5.8v0.8h-5.8v5.5h6.1V464.2z"/>
		<path class="st2" d="M932.6,463.6c0-0.6,0.2-0.9,0.7-0.9s0.7,0.3,0.7,0.9s-0.2,0.9-0.7,0.9C932.8,464.4,932.6,464.1,932.6,463.6z"
			/>
		<path class="st2" d="M946.4,464.2h-0.9v-6.3H938v6.3h-0.9v-12.8h0.9v5.7h7.5v-5.7h0.9V464.2z"/>
		<path class="st2" d="M955.2,457.8h4.7v5.9c-1.2,0.5-2.6,0.8-4.2,0.8c-2,0-3.6-0.6-4.7-1.7s-1.6-2.8-1.6-4.9c0-1.3,0.3-2.5,0.8-3.5
			s1.3-1.8,2.3-2.3s2.1-0.8,3.4-0.8c1.4,0,2.7,0.3,3.8,0.8l-0.4,0.8c-1.1-0.5-2.3-0.8-3.5-0.8c-1.7,0-3,0.5-4,1.6s-1.5,2.5-1.5,4.2
			c0,1.9,0.5,3.4,1.4,4.4s2.3,1.5,4.2,1.5c1.2,0,2.2-0.2,3-0.5v-4.5h-3.8L955.2,457.8L955.2,457.8z"/>
		<path class="st2" d="M962.8,463.6c0-0.6,0.2-0.9,0.7-0.9s0.7,0.3,0.7,0.9s-0.2,0.9-0.7,0.9C962.9,464.4,962.8,464.1,962.8,463.6z"
			/>
		<path class="st2" d="M974.7,464.2h-8v-0.8l3.4-3.6c1-1,1.6-1.8,2-2.3s0.7-1,0.9-1.5s0.3-1,0.3-1.5c0-0.8-0.3-1.4-0.8-1.9
			s-1.2-0.7-2-0.7c-1.1,0-2.1,0.4-3.1,1.2l-0.5-0.6c1.1-0.9,2.3-1.4,3.6-1.4c1.1,0,2,0.3,2.6,0.9s1,1.4,1,2.5c0,0.8-0.2,1.7-0.6,2.5
			s-1.2,1.8-2.4,2.9l-3.3,3.4l0,0h6.9L974.7,464.2L974.7,464.2z"/>
		<path class="st2" d="M981.8,464.2h-0.9v-9.4c0-0.8,0-1.7,0.1-2.6c-0.1,0.1-0.2,0.2-0.3,0.3s-1,0.8-2.7,2.1l-0.5-0.6l3.5-2.6h0.8
			L981.8,464.2L981.8,464.2z"/>
		<path class="st2" d="M989.1,464.2l5.3-12h-7.3v-0.8h8.3v0.6l-5.3,12.2L989.1,464.2L989.1,464.2z"/>
		<path class="st2" d="M1002.1,454.5c1.3,0,2.3,0.4,3,1.3s1,2.1,1,3.7s-0.4,2.8-1.1,3.7s-1.7,1.3-3,1.3c-0.7,0-1.3-0.1-1.8-0.4
			s-1-0.7-1.3-1.2h-0.1l-0.2,1.4h-0.5v-13.7h0.9v3.4c0,0.5,0,1,0,1.4v0.7h0.1c0.4-0.6,0.8-1,1.3-1.3S1001.3,454.5,1002.1,454.5z
			 M1002.1,455.3c-1.1,0-1.9,0.3-2.4,1s-0.7,1.7-0.7,3.2v0.1c0,1.4,0.3,2.5,0.8,3.1s1.3,0.9,2.4,0.9c1,0,1.8-0.4,2.4-1.1
			s0.8-1.8,0.8-3.1C1005.2,456.7,1004.2,455.3,1002.1,455.3z"/>
	</g>
	<g>
		<path class="st2" d="M1041.3,464.2h-7v-12.8h7v0.8h-6.1v4.9h5.8v0.8h-5.8v5.5h6.1V464.2z"/>
		<path class="st2" d="M1043.8,463.6c0-0.6,0.2-0.9,0.7-0.9s0.7,0.3,0.7,0.9s-0.2,0.9-0.7,0.9
			C1044.1,464.4,1043.8,464.1,1043.8,463.6z"/>
		<path class="st2" d="M1057.8,464.2h-0.9v-6.3h-7.5v6.3h-0.9v-12.8h0.9v5.7h7.5v-5.7h0.9V464.2z"/>
		<path class="st2" d="M1066.6,457.8h4.7v5.9c-1.2,0.5-2.6,0.8-4.2,0.8c-2,0-3.6-0.6-4.7-1.7s-1.6-2.8-1.6-4.9
			c0-1.3,0.3-2.5,0.8-3.5s1.3-1.8,2.3-2.3s2.1-0.8,3.4-0.8c1.4,0,2.7,0.3,3.8,0.8l-0.4,0.8c-1.1-0.5-2.3-0.8-3.5-0.8
			c-1.7,0-3,0.5-4,1.6s-1.5,2.5-1.5,4.2c0,1.9,0.5,3.4,1.4,4.4s2.3,1.5,4.2,1.5c1.2,0,2.2-0.2,3-0.5v-4.5h-3.8L1066.6,457.8
			L1066.6,457.8z"/>
		<path class="st2" d="M1074.1,463.6c0-0.6,0.2-0.9,0.7-0.9s0.7,0.3,0.7,0.9s-0.2,0.9-0.7,0.9
			C1074.3,464.4,1074.1,464.1,1074.1,463.6z"/>
		<path class="st2" d="M1085.9,464.2h-8v-0.8l3.4-3.6c1-1,1.6-1.8,2-2.3s0.7-1,0.9-1.5s0.3-1,0.3-1.5c0-0.8-0.3-1.4-0.8-1.9
			s-1.2-0.7-2-0.7c-1.1,0-2.1,0.4-3.1,1.2l-0.5-0.6c1.1-0.9,2.3-1.4,3.6-1.4c1.1,0,2,0.3,2.6,0.9s1,1.4,1,2.5c0,0.8-0.2,1.7-0.6,2.5
			s-1.2,1.8-2.4,2.9l-3.3,3.4l0,0h6.9V464.2z"/>
		<path class="st2" d="M1093.2,464.2h-0.9v-9.4c0-0.8,0-1.7,0.1-2.6c-0.1,0.1-0.2,0.2-0.3,0.3s-1,0.8-2.7,2.1l-0.5-0.6l3.5-2.6h0.8
			V464.2z"/>
		<path class="st2" d="M1100.4,464.2l5.3-12h-7.3v-0.8h8.3v0.6l-5.3,12.2L1100.4,464.2L1100.4,464.2z"/>
		<path class="st2" d="M1115.2,464.2l-0.2-1.5h-0.1c-0.5,0.6-1,1-1.5,1.3s-1.1,0.4-1.8,0.4c-0.9,0-1.7-0.2-2.2-0.7s-0.8-1.1-0.8-2
			s0.4-1.7,1.2-2.2s1.9-0.8,3.4-0.8l1.8-0.1V458c0-0.9-0.2-1.6-0.6-2.1s-1-0.7-1.8-0.7c-0.9,0-1.8,0.2-2.8,0.7l-0.3-0.8
			c1-0.5,2.1-0.7,3.1-0.7s1.8,0.3,2.4,0.8s0.8,1.4,0.8,2.5v6.4L1115.2,464.2L1115.2,464.2z M1111.7,463.6c1,0,1.8-0.3,2.4-0.9
			s0.9-1.4,0.9-2.4v-0.9l-1.7,0.1c-1.3,0.1-2.3,0.3-2.9,0.6s-0.9,0.9-0.9,1.7c0,0.6,0.2,1.1,0.5,1.4S1110.9,463.6,1111.7,463.6z"/>
	</g>
	<g>
		<path class="st2" d="M823.5,332.5h-7v-12.8h7v0.8h-6.1v4.9h5.8v0.8h-5.8v5.5h6.1V332.5z"/>
		<path class="st2" d="M826,331.8c0-0.6,0.2-0.9,0.7-0.9s0.7,0.3,0.7,0.9s-0.2,0.9-0.7,0.9C826.3,332.6,826,332.4,826,331.8z"/>
		<path class="st2" d="M840,332.5h-0.9v-6.3h-7.5v6.3h-0.9v-12.8h0.9v5.7h7.5v-5.7h0.9V332.5z"/>
		<path class="st2" d="M848.8,326h4.7v5.9c-1.2,0.5-2.6,0.8-4.2,0.8c-2,0-3.6-0.6-4.7-1.7s-1.6-2.8-1.6-4.9c0-1.3,0.3-2.5,0.8-3.5
			s1.3-1.8,2.3-2.3s2.1-0.8,3.4-0.8c1.4,0,2.7,0.3,3.8,0.8l-0.4,0.8c-1.1-0.5-2.3-0.8-3.5-0.8c-1.7,0-3,0.5-4,1.6s-1.5,2.5-1.5,4.2
			c0,1.9,0.5,3.4,1.4,4.4s2.3,1.5,4.2,1.5c1.2,0,2.2-0.2,3-0.5V327h-3.8L848.8,326L848.8,326z"/>
		<path class="st2" d="M856.3,331.8c0-0.6,0.2-0.9,0.7-0.9s0.7,0.3,0.7,0.9s-0.2,0.9-0.7,0.9C856.5,332.6,856.3,332.4,856.3,331.8z"
			/>
		<path class="st2" d="M868.2,332.5h-8v-0.8l3.4-3.6c1-1,1.6-1.8,2-2.3s0.7-1,0.9-1.5s0.3-1,0.3-1.5c0-0.8-0.3-1.4-0.8-1.9
			s-1.2-0.7-2-0.7c-1.1,0-2.1,0.4-3.1,1.2l-0.5-0.6c1.1-0.9,2.3-1.4,3.6-1.4c1.1,0,2,0.3,2.6,0.9s1,1.4,1,2.5c0,0.8-0.2,1.7-0.6,2.5
			s-1.2,1.8-2.4,2.9l-3.3,3.4l0,0h6.9L868.2,332.5L868.2,332.5z"/>
		<path class="st2" d="M875.5,332.5h-0.9v-9.4c0-0.8,0-1.7,0.1-2.6c-0.1,0.1-0.2,0.2-0.3,0.3s-1,0.8-2.7,2.1l-0.5-0.6l3.5-2.6h0.8
			L875.5,332.5L875.5,332.5z"/>
		<path class="st2" d="M889.8,329.2h-2.2v3.3h-0.8v-3.3h-6.6v-0.6l6.4-9.1h1.1v8.9h2.2v0.8L889.8,329.2L889.8,329.2z M886.8,328.4
			v-3.7c0-1.8,0-3.3,0.1-4.5h-0.1c-0.1,0.2-0.5,0.8-1.1,1.7l-4.5,6.5H886.8z"/>
	</g>
	<g>
		<path class="st2" d="M909.5,332.5h-7v-12.8h7v0.8h-6.1v4.9h5.8v0.8h-5.8v5.5h6.1V332.5z"/>
		<path class="st2" d="M912,331.8c0-0.6,0.2-0.9,0.7-0.9s0.7,0.3,0.7,0.9s-0.2,0.9-0.7,0.9C912.3,332.6,912,332.4,912,331.8z"/>
		<path class="st2" d="M926,332.5h-0.9v-6.3h-7.5v6.3h-0.9v-12.8h0.9v5.7h7.5v-5.7h0.9V332.5z"/>
		<path class="st2" d="M934.8,326h4.7v5.9c-1.2,0.5-2.6,0.8-4.2,0.8c-2,0-3.6-0.6-4.7-1.7s-1.6-2.8-1.6-4.9c0-1.3,0.3-2.5,0.8-3.5
			s1.3-1.8,2.3-2.3c1-0.6,2.1-0.8,3.4-0.8c1.4,0,2.7,0.3,3.8,0.8l-0.4,0.8c-1.1-0.5-2.3-0.8-3.5-0.8c-1.7,0-3,0.5-4,1.6
			c-1,1-1.5,2.5-1.5,4.2c0,1.9,0.5,3.4,1.4,4.4s2.3,1.5,4.2,1.5c1.2,0,2.2-0.2,3-0.5V327h-3.8L934.8,326L934.8,326z"/>
		<path class="st2" d="M942.3,331.8c0-0.6,0.2-0.9,0.7-0.9s0.7,0.3,0.7,0.9s-0.2,0.9-0.7,0.9C942.6,332.6,942.3,332.4,942.3,331.8z"
			/>
		<path class="st2" d="M954.2,332.5h-8v-0.8l3.4-3.6c1-1,1.6-1.8,2-2.3s0.7-1,0.9-1.5s0.3-1,0.3-1.5c0-0.8-0.3-1.4-0.8-1.9
			s-1.2-0.7-2-0.7c-1.1,0-2.1,0.4-3.1,1.2l-0.5-0.6c1.1-0.9,2.3-1.4,3.6-1.4c1.1,0,2,0.3,2.6,0.9s1,1.4,1,2.5c0,0.8-0.2,1.7-0.6,2.5
			s-1.2,1.8-2.4,2.9l-3.3,3.4l0,0h6.9L954.2,332.5L954.2,332.5z"/>
		<path class="st2" d="M961.4,332.5h-0.9v-9.4c0-0.8,0-1.7,0.1-2.6c-0.1,0.1-0.2,0.2-0.3,0.3s-1,0.8-2.7,2.1l-0.5-0.6l3.5-2.6h0.8
			L961.4,332.5L961.4,332.5z"/>
		<path class="st2" d="M970.4,324.7c1.4,0,2.5,0.3,3.2,1s1.2,1.6,1.2,2.7c0,1.3-0.4,2.3-1.2,3.1s-2,1.1-3.4,1.1
			c-0.6,0-1.2-0.1-1.8-0.2s-1.1-0.3-1.4-0.5V331c0.6,0.3,1.2,0.5,1.7,0.7s1,0.2,1.6,0.2c1.1,0,2-0.3,2.7-0.9s1-1.4,1-2.4
			s-0.3-1.7-1-2.2s-1.6-0.8-2.7-0.8c-0.8,0-1.6,0.1-2.4,0.3l-0.5-0.3l0.5-5.9h6.2v0.8h-5.4l-0.4,4.5
			C969.2,324.8,969.9,324.7,970.4,324.7z"/>
	</g>
	<g>
		<path class="st2" d="M1023.2,332.5h-7v-12.8h7v0.8h-6.1v4.9h5.8v0.8h-5.8v5.5h6.1V332.5z"/>
		<path class="st2" d="M1025.7,331.8c0-0.6,0.2-0.9,0.7-0.9s0.7,0.3,0.7,0.9s-0.2,0.9-0.7,0.9
			C1025.8,332.6,1025.7,332.4,1025.7,331.8z"/>
		<path class="st2" d="M1039.7,332.5h-0.9v-6.3h-7.5v6.3h-0.9v-12.8h0.9v5.7h7.5v-5.7h0.9V332.5z"/>
		<path class="st2" d="M1048.3,326h4.7v5.9c-1.2,0.5-2.6,0.8-4.2,0.8c-2,0-3.6-0.6-4.7-1.7s-1.6-2.8-1.6-4.9c0-1.3,0.3-2.5,0.8-3.5
			s1.3-1.8,2.3-2.3s2.1-0.8,3.4-0.8c1.4,0,2.7,0.3,3.8,0.8l-0.4,0.8c-1.1-0.5-2.3-0.8-3.5-0.8c-1.7,0-3,0.5-4,1.6s-1.5,2.5-1.5,4.2
			c0,1.9,0.5,3.4,1.4,4.4s2.3,1.5,4.2,1.5c1.2,0,2.2-0.2,3-0.5V327h-3.8L1048.3,326L1048.3,326z"/>
		<path class="st2" d="M1055.9,331.8c0-0.6,0.2-0.9,0.7-0.9s0.7,0.3,0.7,0.9s-0.2,0.9-0.7,0.9
			C1056.2,332.6,1055.9,332.4,1055.9,331.8z"/>
		<path class="st2" d="M1067.8,332.5h-8v-0.8l3.4-3.6c1-1,1.6-1.8,2-2.3s0.7-1,0.9-1.5s0.3-1,0.3-1.5c0-0.8-0.3-1.4-0.8-1.9
			s-1.2-0.7-2-0.7c-1.1,0-2.1,0.4-3.1,1.2l-0.5-0.6c1.1-0.9,2.3-1.4,3.6-1.4c1.1,0,2,0.3,2.6,0.9s1,1.4,1,2.5c0,0.8-0.2,1.7-0.6,2.5
			s-1.2,1.8-2.4,2.9l-3.3,3.4l0,0h6.9V332.5z"/>
		<path class="st2" d="M1075.1,332.5h-0.9v-9.4c0-0.8,0-1.7,0.1-2.6c-0.1,0.1-0.2,0.2-0.3,0.3s-1,0.8-2.7,2.1l-0.5-0.6l3.5-2.6h0.8
			V332.5z"/>
		<path class="st2" d="M1080.4,327c0-1.7,0.2-3.1,0.7-4.2s1.1-2,1.9-2.5s1.8-0.8,3-0.8c0.6,0,1.1,0.1,1.5,0.2v0.8
			c-0.4-0.2-0.9-0.2-1.5-0.2c-1.4,0-2.6,0.5-3.4,1.6s-1.3,2.6-1.4,4.6h0.1c0.4-0.6,1-1,1.5-1.3s1.2-0.4,1.8-0.4c1.2,0,2.1,0.3,2.8,1
			s1,1.6,1,2.8c0,1.3-0.4,2.3-1.1,3.1s-1.7,1.1-2.9,1.1c-1.3,0-2.3-0.5-3.1-1.5S1080.4,328.8,1080.4,327z M1084.7,331.9
			c1,0,1.7-0.3,2.2-0.9s0.8-1.5,0.8-2.6c0-1-0.3-1.8-0.8-2.3s-1.2-0.8-2.2-0.8c-0.6,0-1.2,0.1-1.7,0.4s-0.9,0.6-1.2,1.1
			s-0.5,0.9-0.5,1.3c0,0.7,0.1,1.3,0.4,1.9s0.7,1.1,1.2,1.4S1084.1,331.9,1084.7,331.9z"/>
	</g>
	<g>
		<path class="st2" d="M359.8,239.1h-7v-12.8h7v0.8h-6.1v4.9h5.8v0.8h-5.8v5.5h6.1V239.1z"/>
		<path class="st2" d="M362.2,238.5c0-0.6,0.2-0.9,0.7-0.9s0.7,0.3,0.7,0.9s-0.2,0.9-0.7,0.9C362.5,239.3,362.2,239,362.2,238.5z"/>
		<path class="st2" d="M376.2,239.1h-0.9v-6.3h-7.5v6.3H367v-12.8h0.9v5.7h7.5v-5.7h0.9L376.2,239.1L376.2,239.1z"/>
		<path class="st2" d="M385,232.7h4.7v5.9c-1.2,0.5-2.6,0.8-4.2,0.8c-2,0-3.6-0.6-4.7-1.7s-1.6-2.8-1.6-4.9c0-1.3,0.3-2.5,0.8-3.5
			s1.3-1.8,2.3-2.3s2.1-0.8,3.4-0.8c1.4,0,2.7,0.3,3.8,0.8l-0.4,0.8c-1.1-0.5-2.3-0.8-3.5-0.8c-1.7,0-3,0.5-4,1.6s-1.5,2.5-1.5,4.2
			c0,1.9,0.5,3.4,1.4,4.4s2.3,1.5,4.2,1.5c1.2,0,2.2-0.2,3-0.5v-4.5h-3.8v-1H385z"/>
		<path class="st2" d="M392.5,238.5c0-0.6,0.2-0.9,0.7-0.9s0.7,0.3,0.7,0.9s-0.2,0.9-0.7,0.9C392.8,239.3,392.5,239,392.5,238.5z"/>
		<path class="st2" d="M404.5,239.1h-8v-0.7l3.4-3.6c1-1,1.6-1.8,2-2.3s0.7-1,0.9-1.5s0.3-1,0.3-1.5c0-0.8-0.3-1.4-0.8-1.9
			s-1.2-0.7-2-0.7c-1.1,0-2.1,0.4-3.1,1.2l-0.5-0.6c1.1-0.9,2.3-1.4,3.6-1.4c1.1,0,2,0.3,2.6,0.9s1,1.4,1,2.5c0,0.8-0.2,1.7-0.6,2.5
			s-1.2,1.8-2.4,2.9l-3.3,3.4l0,0h6.9V239.1z"/>
		<path class="st2" d="M411.6,239.1h-0.9v-9.4c0-0.8,0-1.7,0.1-2.6c-0.1,0.1-0.2,0.2-0.3,0.3s-1,0.8-2.7,2.1l-0.5-0.6l3.5-2.6h0.8
			V239.1z"/>
		<path class="st2" d="M425.2,232.7c0,2.3-0.3,3.9-1,5s-1.7,1.6-3.1,1.6c-1.3,0-2.4-0.6-3.1-1.7s-1-2.8-1-5s0.3-3.9,1-5
			s1.7-1.6,3.1-1.6s2.4,0.6,3.1,1.7S425.2,230.5,425.2,232.7z M418,232.7c0,2,0.3,3.5,0.8,4.4s1.3,1.4,2.4,1.4s1.9-0.5,2.4-1.5
			s0.8-2.4,0.8-4.4c0-1.9-0.3-3.3-0.8-4.3s-1.3-1.5-2.4-1.5s-1.9,0.5-2.4,1.5S418,230.8,418,232.7z"/>
	</g>
	<g>
		<path class="st2" d="M445.8,239.1h-7v-12.8h7v0.8h-6.1v4.9h5.8v0.8h-5.8v5.5h6.1V239.1z"/>
		<path class="st2" d="M448.2,238.5c0-0.6,0.2-0.9,0.7-0.9s0.7,0.3,0.7,0.9s-0.2,0.9-0.7,0.9C448.5,239.3,448.2,239,448.2,238.5z"/>
		<path class="st2" d="M462.2,239.1h-0.9v-6.3h-7.5v6.3h-0.9v-12.8h0.9v5.7h7.5v-5.7h0.9V239.1z"/>
		<path class="st2" d="M471,232.7h4.7v5.9c-1.2,0.5-2.6,0.8-4.2,0.8c-2,0-3.6-0.6-4.7-1.7s-1.6-2.8-1.6-4.9c0-1.3,0.3-2.5,0.8-3.5
			s1.3-1.8,2.3-2.3s2.1-0.8,3.4-0.8c1.4,0,2.7,0.3,3.8,0.8l-0.4,0.8c-1.1-0.5-2.3-0.8-3.5-0.8c-1.7,0-3,0.5-4,1.6s-1.5,2.5-1.5,4.2
			c0,1.9,0.5,3.4,1.4,4.4s2.3,1.5,4.2,1.5c1.2,0,2.2-0.2,3-0.5v-4.5h-3.8L471,232.7L471,232.7z"/>
		<path class="st2" d="M478.5,238.5c0-0.6,0.2-0.9,0.7-0.9s0.7,0.3,0.7,0.9s-0.2,0.9-0.7,0.9C478.8,239.3,478.5,239,478.5,238.5z"/>
		<path class="st2" d="M490.5,239.1h-8v-0.7l3.4-3.6c1-1,1.6-1.8,2-2.3s0.7-1,0.9-1.5s0.3-1,0.3-1.5c0-0.8-0.3-1.4-0.8-1.9
			s-1.2-0.7-2-0.7c-1.1,0-2.1,0.4-3.1,1.2l-0.5-0.6c1.1-0.9,2.3-1.4,3.6-1.4c1.1,0,2,0.3,2.6,0.9s1,1.4,1,2.5c0,0.8-0.2,1.7-0.6,2.5
			s-1.2,1.8-2.4,2.9l-3.3,3.4l0,0h6.9L490.5,239.1L490.5,239.1z"/>
		<path class="st2" d="M501,232.7c0,2.3-0.3,3.9-1,5s-1.7,1.6-3.1,1.6c-1.3,0-2.4-0.6-3.1-1.7s-1-2.8-1-5s0.3-3.9,1-5
			s1.7-1.6,3.1-1.6c1.4,0,2.4,0.6,3.1,1.7S501,230.5,501,232.7z M493.7,232.7c0,2,0.3,3.5,0.8,4.4s1.3,1.4,2.4,1.4
			c1.1,0,1.9-0.5,2.4-1.5s0.8-2.4,0.8-4.4c0-1.9-0.3-3.3-0.8-4.3s-1.3-1.5-2.4-1.5s-1.9,0.5-2.4,1.5S493.7,230.8,493.7,232.7z"/>
		<path class="st2" d="M511,231.7c0,1.7-0.2,3.1-0.7,4.2s-1.1,2-1.9,2.5s-1.9,0.8-3.1,0.8c-0.6,0-1.2-0.1-1.7-0.2v-0.8
			c0.3,0.1,0.6,0.1,0.9,0.2s0.6,0.1,0.8,0.1c1.4,0,2.6-0.5,3.4-1.6s1.3-2.6,1.4-4.6H510c-0.4,0.6-0.9,1-1.5,1.3s-1.2,0.5-1.9,0.5
			c-1.2,0-2.1-0.3-2.8-1s-1-1.6-1-2.8c0-1.3,0.4-2.3,1.1-3.1s1.7-1.2,2.8-1.2c0.8,0,1.6,0.2,2.2,0.7s1.1,1.1,1.5,1.9
			S511,230.6,511,231.7z M506.8,226.9c-0.9,0-1.7,0.3-2.2,0.9s-0.8,1.5-0.8,2.6c0,1,0.3,1.8,0.8,2.3s1.2,0.8,2.2,0.8
			c0.6,0,1.1-0.1,1.7-0.4s0.9-0.6,1.2-1.1s0.5-0.9,0.5-1.3c0-0.7-0.1-1.3-0.4-1.9s-0.7-1.1-1.1-1.4S507.5,226.9,506.8,226.9z"/>
	</g>
	<g>
		<path class="st2" d="M537.3,239.1h-7v-12.8h7v0.8h-6.1v4.9h5.8v0.8h-5.8v5.5h6.1V239.1z"/>
		<path class="st2" d="M539.8,238.5c0-0.6,0.2-0.9,0.7-0.9s0.7,0.3,0.7,0.9s-0.2,0.9-0.7,0.9C540.2,239.3,539.8,239,539.8,238.5z"/>
		<path class="st2" d="M553.8,239.1h-0.9v-6.3h-7.5v6.3h-0.9v-12.8h0.9v5.7h7.5v-5.7h0.9V239.1z"/>
		<path class="st2" d="M562.5,232.7h4.7v5.9c-1.2,0.5-2.6,0.8-4.2,0.8c-2,0-3.6-0.6-4.7-1.7s-1.6-2.8-1.6-4.9c0-1.3,0.3-2.5,0.8-3.5
			s1.3-1.8,2.3-2.3s2.1-0.8,3.4-0.8c1.4,0,2.7,0.3,3.8,0.8l-0.4,0.8c-1.1-0.5-2.3-0.8-3.5-0.8c-1.7,0-3,0.5-4,1.6s-1.5,2.5-1.5,4.2
			c0,1.9,0.5,3.4,1.4,4.4s2.3,1.5,4.2,1.5c1.2,0,2.2-0.2,3-0.5v-4.5h-3.8L562.5,232.7L562.5,232.7z"/>
		<path class="st2" d="M570.2,238.5c0-0.6,0.2-0.9,0.7-0.9s0.7,0.3,0.7,0.9s-0.2,0.9-0.7,0.9C570.3,239.3,570.2,239,570.2,238.5z"/>
		<path class="st2" d="M582,239.1h-8v-0.7l3.4-3.6c1-1,1.6-1.8,2-2.3s0.7-1,0.9-1.5s0.3-1,0.3-1.5c0-0.8-0.3-1.4-0.8-1.9
			s-1.2-0.7-2-0.7c-1.1,0-2.1,0.4-3.1,1.2l-0.5-0.6c1.1-0.9,2.3-1.4,3.6-1.4c1.1,0,2,0.3,2.6,0.9s1,1.4,1,2.5c0,0.8-0.2,1.7-0.6,2.5
			s-1.2,1.8-2.4,2.9l-3.3,3.4l0,0h6.9L582,239.1L582,239.1z"/>
		<path class="st2" d="M592.5,232.7c0,2.3-0.3,3.9-1,5s-1.7,1.6-3.1,1.6c-1.3,0-2.4-0.6-3.1-1.7s-1-2.8-1-5s0.3-3.9,1-5
			s1.7-1.6,3.1-1.6c1.4,0,2.4,0.6,3.1,1.7S592.5,230.5,592.5,232.7z M585.2,232.7c0,2,0.3,3.5,0.8,4.4s1.3,1.4,2.4,1.4
			c1.1,0,1.9-0.5,2.4-1.5s0.8-2.4,0.8-4.4c0-1.9-0.3-3.3-0.8-4.3s-1.3-1.5-2.4-1.5s-1.9,0.5-2.4,1.5S585.2,230.8,585.2,232.7z"/>
		<path class="st2" d="M598.7,226.1c1.1,0,2,0.3,2.6,0.8s1,1.3,1,2.3c0,0.7-0.2,1.2-0.6,1.7s-1.1,1-2,1.4c1.1,0.5,1.9,1,2.4,1.5
			s0.7,1.2,0.7,2c0,1.1-0.4,1.9-1.1,2.5s-1.7,0.9-3,0.9s-2.3-0.3-3-0.9s-1-1.5-1-2.6c0-0.8,0.2-1.4,0.7-2s1.2-1.1,2.3-1.5
			c-0.9-0.4-1.6-0.9-2-1.4s-0.6-1.1-0.6-1.8c0-0.6,0.2-1.2,0.5-1.6s0.7-0.8,1.3-1.1S598,226.1,598.7,226.1z M595.5,236
			c0,0.8,0.3,1.4,0.8,1.9s1.3,0.7,2.3,0.7s1.7-0.2,2.3-0.7s0.9-1.1,0.9-1.9c0-0.7-0.2-1.3-0.7-1.8s-1.3-0.9-2.7-1.4
			c-1.1,0.4-1.8,0.9-2.3,1.4S595.5,235.2,595.5,236z M598.7,226.9c-0.8,0-1.5,0.2-2,0.6s-0.8,1-0.8,1.7c0,0.4,0.1,0.8,0.3,1.1
			s0.5,0.6,0.8,0.9s0.9,0.6,1.8,0.9c1-0.4,1.6-0.8,2.1-1.2s0.6-1,0.6-1.6c0-0.7-0.2-1.3-0.7-1.7S599.5,226.9,598.7,226.9z"/>
	</g>
	<g>
		<path class="st2" d="M435.8,61.9h-7V49.1h7v0.8h-6.1v4.9h5.8v0.8h-5.8v5.5h6.1V61.9z"/>
		<path class="st2" d="M438.2,61.2c0-0.6,0.2-0.9,0.7-0.9s0.7,0.3,0.7,0.9s-0.2,0.9-0.7,0.9C438.5,62.1,438.2,61.8,438.2,61.2z"/>
		<path class="st2" d="M452.2,61.9h-0.9v-6.3h-7.5v6.3h-0.9V49.1h0.9v5.7h7.5v-5.7h0.9V61.9z"/>
		<path class="st2" d="M461,55.4h4.7v5.9c-1.2,0.5-2.6,0.8-4.2,0.8c-2,0-3.6-0.6-4.7-1.7s-1.6-2.8-1.6-4.9c0-1.3,0.3-2.5,0.8-3.5
			s1.3-1.8,2.3-2.3s2.1-0.8,3.4-0.8c1.4,0,2.7,0.3,3.8,0.8l-0.4,0.8c-1.1-0.5-2.3-0.8-3.5-0.8c-1.7,0-3,0.5-4,1.6s-1.5,2.5-1.5,4.2
			c0,1.9,0.5,3.4,1.4,4.4s2.3,1.5,4.2,1.5c1.2,0,2.2-0.2,3-0.5v-4.5h-3.8L461,55.4L461,55.4z"/>
		<path class="st2" d="M468.5,61.2c0-0.6,0.2-0.9,0.7-0.9s0.7,0.3,0.7,0.9s-0.2,0.9-0.7,0.9S468.5,61.8,468.5,61.2z"/>
		<path class="st2" d="M480.5,61.9h-8v-0.8l3.4-3.6c1-1,1.6-1.8,2-2.3s0.7-1,0.9-1.5s0.3-1,0.3-1.5c0-0.8-0.3-1.4-0.8-1.9
			s-1.2-0.7-2-0.7c-1.1,0-2.1,0.4-3.1,1.2l-0.5-0.6c1.1-0.9,2.3-1.4,3.6-1.4c1.1,0,2,0.3,2.6,0.9s1,1.4,1,2.5c0,0.8-0.2,1.7-0.6,2.5
			s-1.2,1.8-2.4,2.9l-3.3,3.4l0,0h6.9L480.5,61.9L480.5,61.9z"/>
		<path class="st2" d="M491,55.4c0,2.3-0.3,3.9-1,5s-1.7,1.6-3.1,1.6c-1.3,0-2.4-0.6-3.1-1.7s-1-2.8-1-5s0.3-3.9,1-5
			s1.7-1.6,3.1-1.6c1.4,0,2.4,0.6,3.1,1.7S491,53.3,491,55.4z M483.7,55.4c0,2,0.3,3.5,0.8,4.4s1.3,1.4,2.4,1.4
			c1.1,0,1.9-0.5,2.4-1.5s0.8-2.4,0.8-4.4c0-1.9-0.3-3.3-0.8-4.3s-1.3-1.5-2.4-1.5S485,50,484.5,51S483.7,53.5,483.7,55.4z"/>
		<path class="st2" d="M501,61.9h-8v-0.8l3.4-3.6c1-1,1.6-1.8,2-2.3s0.7-1,0.9-1.5s0.3-1,0.3-1.5c0-0.8-0.3-1.4-0.8-1.9
			s-1.2-0.7-2-0.7c-1.1,0-2.1,0.4-3.1,1.2l-0.5-0.6c1.1-0.9,2.3-1.4,3.6-1.4c1.1,0,2,0.3,2.6,0.9s1,1.4,1,2.5c0,0.8-0.2,1.7-0.6,2.5
			s-1.2,1.8-2.4,2.9l-3.3,3.4l0,0h6.9L501,61.9L501,61.9z"/>
	</g>
	<g>
		<path class="st2" d="M541.8,61.9h-7V49.1h7v0.8h-6.1v4.9h5.8v0.8h-5.8v5.5h6.1V61.9z"/>
		<path class="st2" d="M544.2,61.2c0-0.6,0.2-0.9,0.7-0.9s0.7,0.3,0.7,0.9s-0.2,0.9-0.7,0.9C544.5,62.1,544.2,61.8,544.2,61.2z"/>
		<path class="st2" d="M558.2,61.9h-0.9v-6.3h-7.5v6.3h-0.9V49.1h0.9v5.7h7.5v-5.7h0.9V61.9z"/>
		<path class="st2" d="M567,55.4h4.7v5.9c-1.2,0.5-2.6,0.8-4.2,0.8c-2,0-3.6-0.6-4.7-1.7s-1.6-2.8-1.6-4.9c0-1.3,0.3-2.5,0.8-3.5
			s1.3-1.8,2.3-2.3s2.1-0.8,3.4-0.8c1.4,0,2.7,0.3,3.8,0.8l-0.4,0.8c-1.1-0.5-2.3-0.8-3.5-0.8c-1.7,0-3,0.5-4,1.6s-1.5,2.5-1.5,4.2
			c0,1.9,0.5,3.4,1.4,4.4s2.3,1.5,4.2,1.5c1.2,0,2.2-0.2,3-0.5v-4.5h-3.8L567,55.4L567,55.4z"/>
		<path class="st2" d="M574.5,61.2c0-0.6,0.2-0.9,0.7-0.9s0.7,0.3,0.7,0.9s-0.2,0.9-0.7,0.9S574.5,61.8,574.5,61.2z"/>
		<path class="st2" d="M586.5,61.9h-8v-0.8l3.4-3.6c1-1,1.6-1.8,2-2.3s0.7-1,0.9-1.5s0.3-1,0.3-1.5c0-0.8-0.3-1.4-0.8-1.9
			s-1.2-0.7-2-0.7c-1.1,0-2.1,0.4-3.1,1.2l-0.5-0.6c1.1-0.9,2.3-1.4,3.6-1.4c1.1,0,2,0.3,2.6,0.9s1,1.4,1,2.5c0,0.8-0.2,1.7-0.6,2.5
			s-1.2,1.8-2.4,2.9l-3.3,3.4l0,0h6.9L586.5,61.9L586.5,61.9z"/>
		<path class="st2" d="M597,55.4c0,2.3-0.3,3.9-1,5s-1.7,1.6-3.1,1.6c-1.3,0-2.4-0.6-3.1-1.7s-1-2.8-1-5s0.3-3.9,1-5
			s1.7-1.6,3.1-1.6c1.4,0,2.4,0.6,3.1,1.7S597,53.3,597,55.4z M589.7,55.4c0,2,0.3,3.5,0.8,4.4s1.3,1.4,2.4,1.4
			c1.1,0,1.9-0.5,2.4-1.5s0.8-2.4,0.8-4.4c0-1.9-0.3-3.3-0.8-4.3s-1.3-1.5-2.4-1.5S591,50,590.5,51S589.7,53.5,589.7,55.4z"/>
		<path class="st2" d="M606.5,52.1c0,0.8-0.2,1.5-0.8,2s-1.2,0.9-2,1v0.1c1,0.1,1.8,0.5,2.4,1s0.8,1.2,0.8,2.1
			c0,1.2-0.4,2.1-1.2,2.8s-2,1-3.5,1c-1.3,0-2.4-0.2-3.4-0.7v-0.9c0.5,0.3,1,0.5,1.7,0.6s1.2,0.2,1.7,0.2c1.3,0,2.3-0.3,2.9-0.8
			s1-1.3,1-2.2c0-0.8-0.3-1.5-1-2s-1.6-0.7-2.9-0.7h-1.4v-0.8h1.4c1.1,0,1.9-0.3,2.5-0.8s0.9-1.2,0.9-2.1c0-0.7-0.3-1.3-0.8-1.7
			s-1.2-0.6-2-0.6c-0.6,0-1.2,0.1-1.7,0.3s-1.1,0.5-1.8,0.9l-0.4-0.6c0.5-0.4,1.1-0.7,1.8-1s1.4-0.4,2.1-0.4c1.2,0,2.1,0.3,2.7,0.8
			S606.5,51,606.5,52.1z"/>
	</g>
	<g>
		<path class="st2" d="M647.8,61.9h-7V49.1h7v0.8h-6.1v4.9h5.8v0.8h-5.8v5.5h6.1V61.9z"/>
		<path class="st2" d="M650.2,61.2c0-0.6,0.2-0.9,0.7-0.9s0.7,0.3,0.7,0.9s-0.2,0.9-0.7,0.9C650.5,62.1,650.2,61.8,650.2,61.2z"/>
		<path class="st2" d="M664.2,61.9h-0.9v-6.3h-7.5v6.3h-0.9V49.1h0.9v5.7h7.5v-5.7h0.9V61.9z"/>
		<path class="st2" d="M673,55.4h4.7v5.9c-1.2,0.5-2.6,0.8-4.2,0.8c-2,0-3.6-0.6-4.7-1.7s-1.6-2.8-1.6-4.9c0-1.3,0.3-2.5,0.8-3.5
			s1.3-1.8,2.3-2.3s2.1-0.8,3.4-0.8c1.4,0,2.7,0.3,3.8,0.8l-0.4,0.8c-1.1-0.5-2.3-0.8-3.5-0.8c-1.7,0-3,0.5-4,1.6s-1.5,2.5-1.5,4.2
			c0,1.9,0.5,3.4,1.4,4.4s2.3,1.5,4.2,1.5c1.2,0,2.2-0.2,3-0.5v-4.5h-3.8L673,55.4L673,55.4z"/>
		<path class="st2" d="M680.5,61.2c0-0.6,0.2-0.9,0.7-0.9s0.7,0.3,0.7,0.9s-0.2,0.9-0.7,0.9S680.5,61.8,680.5,61.2z"/>
		<path class="st2" d="M692.5,61.9h-8v-0.8l3.4-3.6c1-1,1.6-1.8,2-2.3s0.7-1,0.9-1.5s0.3-1,0.3-1.5c0-0.8-0.3-1.4-0.8-1.9
			s-1.2-0.7-2-0.7c-1.1,0-2.1,0.4-3.1,1.2l-0.5-0.6c1.1-0.9,2.3-1.4,3.6-1.4c1.1,0,2,0.3,2.6,0.9s1,1.4,1,2.5c0,0.8-0.2,1.7-0.6,2.5
			s-1.2,1.8-2.4,2.9l-3.3,3.4l0,0h6.9L692.5,61.9L692.5,61.9z"/>
		<path class="st2" d="M703,55.4c0,2.3-0.3,3.9-1,5s-1.7,1.6-3.1,1.6c-1.3,0-2.4-0.6-3.1-1.7s-1-2.8-1-5s0.3-3.9,1-5
			s1.7-1.6,3.1-1.6c1.4,0,2.4,0.6,3.1,1.7S703,53.3,703,55.4z M695.7,55.4c0,2,0.3,3.5,0.8,4.4s1.3,1.4,2.4,1.4
			c1.1,0,1.9-0.5,2.4-1.5s0.8-2.4,0.8-4.4c0-1.9-0.3-3.3-0.8-4.3s-1.3-1.5-2.4-1.5S697,50,696.5,51S695.7,53.5,695.7,55.4z"/>
		<path class="st2" d="M714,58.6h-2.2v3.3H711v-3.3h-6.6V58l6.4-9.1h1.1v8.9h2.2v0.8C714.1,58.6,714,58.6,714,58.6z M711,57.8v-3.7
			c0-1.8,0-3.3,0.1-4.5H711c-0.1,0.2-0.5,0.8-1.1,1.7l-4.5,6.5H711z"/>
	</g>
	<g>
		<path class="st2" d="M909.7,61.9h-7V49.1h7v0.8h-6.1v4.9h5.8v0.8h-5.8v5.5h6.1V61.9z"/>
		<path class="st2" d="M912.2,61.2c0-0.6,0.2-0.9,0.7-0.9s0.7,0.3,0.7,0.9s-0.2,0.9-0.7,0.9C912.5,62.1,912.2,61.8,912.2,61.2z"/>
		<path class="st2" d="M926.2,61.9h-0.9v-6.3h-7.5v6.3h-0.9V49.1h0.9v5.7h7.5v-5.7h0.9V61.9z"/>
		<path class="st2" d="M934.8,55.4h4.7v5.9c-1.2,0.5-2.6,0.8-4.2,0.8c-2,0-3.6-0.6-4.7-1.7s-1.6-2.8-1.6-4.9c0-1.3,0.3-2.5,0.8-3.5
			s1.3-1.8,2.3-2.3c1-0.6,2.1-0.8,3.4-0.8c1.4,0,2.7,0.3,3.8,0.8l-0.4,0.8c-1.1-0.5-2.3-0.8-3.5-0.8c-1.7,0-3,0.5-4,1.6
			c-1,1-1.5,2.5-1.5,4.2c0,1.9,0.5,3.4,1.4,4.4s2.3,1.5,4.2,1.5c1.2,0,2.2-0.2,3-0.5v-4.5h-3.8L934.8,55.4L934.8,55.4z"/>
		<path class="st2" d="M942.4,61.2c0-0.6,0.2-0.9,0.7-0.9s0.7,0.3,0.7,0.9s-0.2,0.9-0.7,0.9C942.7,62.1,942.4,61.8,942.4,61.2z"/>
		<path class="st2" d="M954.3,61.9h-8v-0.8l3.4-3.6c1-1,1.6-1.8,2-2.3s0.7-1,0.9-1.5s0.3-1,0.3-1.5c0-0.8-0.3-1.4-0.8-1.9
			s-1.2-0.7-2-0.7c-1.1,0-2.1,0.4-3.1,1.2l-0.5-0.6c1.1-0.9,2.3-1.4,3.6-1.4c1.1,0,2,0.3,2.6,0.9s1,1.4,1,2.5c0,0.8-0.2,1.7-0.6,2.5
			s-1.2,1.8-2.4,2.9l-3.3,3.4l0,0h6.9L954.3,61.9L954.3,61.9z"/>
		<path class="st2" d="M964.8,55.4c0,2.3-0.3,3.9-1,5s-1.7,1.6-3.1,1.6c-1.3,0-2.4-0.6-3.1-1.7s-1-2.8-1-5s0.3-3.9,1-5
			s1.7-1.6,3.1-1.6s2.4,0.6,3.1,1.7S964.8,53.3,964.8,55.4z M957.6,55.4c0,2,0.3,3.5,0.8,4.4s1.3,1.4,2.4,1.4s1.9-0.5,2.4-1.5
			s0.8-2.4,0.8-4.4c0-1.9-0.3-3.3-0.8-4.3s-1.3-1.5-2.4-1.5s-1.9,0.5-2.4,1.5S957.6,53.5,957.6,55.4z"/>
		<path class="st2" d="M966.9,56.4c0-1.7,0.2-3.1,0.7-4.2s1.1-2,1.9-2.5s1.8-0.8,3-0.8c0.6,0,1.1,0.1,1.5,0.2v0.8
			c-0.4-0.2-0.9-0.2-1.5-0.2c-1.4,0-2.6,0.5-3.4,1.6s-1.3,2.6-1.4,4.6h0.1c0.4-0.6,1-1,1.5-1.3s1.2-0.4,1.8-0.4c1.2,0,2.1,0.3,2.8,1
			s1,1.6,1,2.8c0,1.3-0.4,2.3-1.1,3.1s-1.7,1.1-2.9,1.1c-1.3,0-2.3-0.5-3.1-1.5S966.9,58.2,966.9,56.4z M971.2,61.3
			c1,0,1.7-0.3,2.2-0.9s0.8-1.5,0.8-2.6c0-1-0.3-1.8-0.8-2.3s-1.2-0.8-2.2-0.8c-0.6,0-1.2,0.1-1.7,0.4s-0.9,0.6-1.2,1.1
			s-0.5,0.9-0.5,1.3c0,0.7,0.1,1.3,0.4,1.9s0.7,1.1,1.2,1.4S970.7,61.3,971.2,61.3z"/>
	</g>
	<g>
		<path class="st2" d="M1038.2,61.9h-7V49.1h7v0.8h-6.1v4.9h5.8v0.8h-5.8v5.5h6.1V61.9z"/>
		<path class="st2" d="M1040.7,61.2c0-0.6,0.2-0.9,0.7-0.9s0.7,0.3,0.7,0.9s-0.2,0.9-0.7,0.9S1040.7,61.8,1040.7,61.2z"/>
		<path class="st2" d="M1054.7,61.9h-0.9v-6.3h-7.5v6.3h-0.9V49.1h0.9v5.7h7.5v-5.7h0.9V61.9z"/>
		<path class="st2" d="M1063.3,55.4h4.7v5.9c-1.2,0.5-2.6,0.8-4.2,0.8c-2,0-3.6-0.6-4.7-1.7s-1.6-2.8-1.6-4.9c0-1.3,0.3-2.5,0.8-3.5
			s1.3-1.8,2.3-2.3s2.1-0.8,3.4-0.8c1.4,0,2.7,0.3,3.8,0.8l-0.4,0.8c-1.1-0.5-2.3-0.8-3.5-0.8c-1.7,0-3,0.5-4,1.6s-1.5,2.5-1.5,4.2
			c0,1.9,0.5,3.4,1.4,4.4s2.3,1.5,4.2,1.5c1.2,0,2.2-0.2,3-0.5v-4.5h-3.8L1063.3,55.4L1063.3,55.4z"/>
		<path class="st2" d="M1070.9,61.2c0-0.6,0.2-0.9,0.7-0.9s0.7,0.3,0.7,0.9s-0.2,0.9-0.7,0.9C1071.2,62.1,1070.9,61.8,1070.9,61.2z"
			/>
		<path class="st2" d="M1082.8,61.9h-8v-0.8l3.4-3.6c1-1,1.6-1.8,2-2.3s0.7-1,0.9-1.5s0.3-1,0.3-1.5c0-0.8-0.3-1.4-0.8-1.9
			s-1.2-0.7-2-0.7c-1.1,0-2.1,0.4-3.1,1.2l-0.5-0.6c1.1-0.9,2.3-1.4,3.6-1.4c1.1,0,2,0.3,2.6,0.9s1,1.4,1,2.5c0,0.8-0.2,1.7-0.6,2.5
			s-1.2,1.8-2.4,2.9l-3.3,3.4l0,0h6.9V61.9z"/>
		<path class="st2" d="M1093.3,55.4c0,2.3-0.3,3.9-1,5s-1.7,1.6-3.1,1.6c-1.3,0-2.4-0.6-3.1-1.7s-1-2.8-1-5s0.3-3.9,1-5
			s1.7-1.6,3.1-1.6s2.4,0.6,3.1,1.7S1093.3,53.3,1093.3,55.4z M1085.9,55.4c0,2,0.3,3.5,0.8,4.4s1.3,1.4,2.4,1.4s1.9-0.5,2.4-1.5
			s0.8-2.4,0.8-4.4c0-1.9-0.3-3.3-0.8-4.3s-1.3-1.5-2.4-1.5s-1.9,0.5-2.4,1.5S1085.9,53.5,1085.9,55.4z"/>
		<path class="st2" d="M1097.2,61.9l5.3-12h-7.3v-0.8h8.3v0.6l-5.3,12.2H1097.2z"/>
	</g>
</g>
</svg>
