<?xml version="1.0" encoding="utf-8"?>
<!-- Generator: Adobe Illustrator 21.0.0, SVG Export Plug-In . SVG Version: 6.00 Build 0)  -->
<svg version="1.1" id="Ebene_5" xmlns="http://www.w3.org/2000/svg" xmlns:xlink="http://www.w3.org/1999/xlink" x="0px" y="0px"
	 viewBox="0 0 1126 901" style="enable-background:new 0 0 1126 901;" xml:space="preserve">
<style type="text/css">
	.st0{fill:none;stroke:#005081;stroke-width:1.5;stroke-miterlimit:10;}
	.st1{fill:#004570;fill-opacity:0.15;stroke:#0071AA;stroke-width:1.5;stroke-miterlimit:10;}
	.st2{fill:#004570;fill-opacity:5.000000e-02;stroke:#0071AA;stroke-width:1.5;stroke-miterlimit:10;}
	.st3{fill:#004570;stroke:#0071AA;stroke-width:1.5;stroke-miterlimit:10;}
	.st4{fill:#005081;}
</style>
<polygon class="st0" points="821.7,898.6 821.7,3.1 304.3,3.1 304.3,169.6 623.7,169.6 623.7,262.6 304.3,262.6 304.3,413.6 
	623.7,413.6 623.7,507.1 304.3,507.1 304.3,670.6 623.7,670.6 623.7,718.1 304.3,718.1 304.3,898.6 "/>
<rect x="715" y="475" class="st1" width="106.7" height="88.3"/>
<rect x="715" y="3.1" class="st2" width="106.7" height="471.9"/>
<rect x="715" y="669" class="st2" width="106.7" height="229.6"/>
<polygon class="st2" points="304.3,507.1 643,507.2 643,562.4 675.2,562.4 675.2,718 624,718 624,670.6 304.3,670.6 "/>
<polygon class="st2" points="304.3,3.1 676.2,3.1 676.2,413.5 304.3,413.5 304.3,262.6 623.7,262.6 623.7,169.6 304.3,169.6 "/>
<rect x="715" y="600.4" class="st1" width="106.7" height="68.6"/>
<rect x="643" y="442.9" class="st1" width="32.2" height="64.2"/>
<rect x="715" y="563.4" class="st2" width="106.7" height="37"/>
<rect x="304.3" y="826" class="st2" width="383.9" height="72.6"/>
<rect x="432.7" y="718" class="st2" width="191.5" height="69.5"/>
<rect x="304.3" y="718.2" class="st1" width="59.9" height="69.6"/>
<rect x="364.2" y="718.2" class="st1" width="68.5" height="69.6"/>
<circle class="st1" cx="821.6" cy="319.6" r="31.5"/>
<g>
	<line class="st0" x1="671.4" y1="456.9" x2="646.7" y2="456.9"/>
	<line class="st0" x1="671.4" y1="461.4" x2="646.7" y2="461.4"/>
	<line class="st0" x1="671.4" y1="466" x2="646.7" y2="466"/>
	<line class="st0" x1="671.4" y1="470.4" x2="646.7" y2="470.4"/>
	<line class="st0" x1="671.4" y1="475.2" x2="646.7" y2="475.2"/>
	<line class="st0" x1="671.4" y1="479.8" x2="646.7" y2="479.8"/>
	<line class="st0" x1="671.4" y1="484.5" x2="646.7" y2="484.5"/>
	<line class="st0" x1="671.4" y1="488.9" x2="646.7" y2="488.9"/>
	<line class="st0" x1="671.4" y1="493.7" x2="646.7" y2="493.7"/>
	<line class="st0" x1="671.4" y1="447.5" x2="646.7" y2="447.5"/>
	<line class="st0" x1="671.4" y1="452.2" x2="646.7" y2="452.2"/>
	<line class="st0" x1="671.4" y1="456.6" x2="646.7" y2="456.6"/>
	<line class="st0" x1="671.4" y1="498.1" x2="646.7" y2="498.1"/>
	<line class="st0" x1="671.4" y1="502.7" x2="646.7" y2="502.7"/>
	<polyline class="st0" points="671.4,498.5 659.1,502.7 646.7,498.5 	"/>
</g>
<path class="st3" d="M643,507.1"/>
<g>
	<path class="st4" d="M742.2,523.2h-7v-12.8h7v0.8h-6.1v4.9h5.8v0.8h-5.8v5.5h6.1V523.2z"/>
	<path class="st4" d="M744.7,522.5c0-0.6,0.2-0.9,0.7-0.9c0.5,0,0.7,0.3,0.7,0.9s-0.2,0.9-0.7,0.9
		C745,523.4,744.7,523.1,744.7,522.5z"/>
	<path class="st4" d="M752.7,523.2h-0.9v-12h-4.2v-0.8h9.3v0.8h-4.2V523.2z"/>
	<path class="st4" d="M758.8,523.2v-12.8h0.9v12h6.1v0.8H758.8z"/>
	<path class="st4" d="M767.7,522.5c0-0.6,0.2-0.9,0.7-0.9c0.5,0,0.7,0.3,0.7,0.9s-0.2,0.9-0.7,0.9
		C767.9,523.4,767.7,523.1,767.7,522.5z"/>
	<path class="st4" d="M776.5,523.2h-0.9v-9.4c0-0.8,0-1.7,0.1-2.6c-0.1,0.1-0.2,0.2-0.3,0.3s-1,0.8-2.7,2.1l-0.5-0.6l3.5-2.6h0.8
		V523.2z"/>
	<path class="st4" d="M790.1,516.7c0,2.3-0.3,3.9-1,5s-1.7,1.6-3.1,1.6c-1.3,0-2.4-0.6-3.1-1.7s-1-2.8-1-5c0-2.2,0.3-3.9,1-5
		s1.7-1.6,3.1-1.6c1.4,0,2.4,0.6,3.1,1.7S790.1,514.6,790.1,516.7z M782.8,516.7c0,2,0.3,3.5,0.8,4.4s1.3,1.4,2.4,1.4
		c1.1,0,1.9-0.5,2.4-1.5s0.8-2.4,0.8-4.4c0-1.9-0.3-3.3-0.8-4.3s-1.3-1.5-2.4-1.5s-1.9,0.5-2.4,1.5S782.8,514.8,782.8,516.7z"/>
	<path class="st4" d="M792.2,517.7c0-1.7,0.2-3.1,0.7-4.2s1.1-2,1.9-2.5s1.8-0.8,3-0.8c0.6,0,1.1,0.1,1.5,0.2v0.8
		c-0.4-0.2-0.9-0.2-1.5-0.2c-1.4,0-2.6,0.5-3.4,1.6s-1.3,2.6-1.4,4.6h0.1c0.4-0.6,1-1,1.5-1.3s1.2-0.4,1.8-0.4c1.2,0,2.1,0.3,2.8,1
		s1,1.6,1,2.8c0,1.3-0.4,2.3-1.1,3.1s-1.7,1.1-2.9,1.1c-1.3,0-2.3-0.5-3.1-1.5S792.2,519.5,792.2,517.7z M796.4,522.6
		c1,0,1.7-0.3,2.2-0.9s0.8-1.5,0.8-2.6c0-1-0.3-1.8-0.8-2.3s-1.2-0.8-2.2-0.8c-0.6,0-1.2,0.1-1.7,0.4s-0.9,0.6-1.2,1.1
		s-0.5,0.9-0.5,1.3c0,0.7,0.1,1.3,0.4,1.9s0.7,1.1,1.2,1.4S795.8,522.6,796.4,522.6z"/>
</g>
<g>
	<path class="st4" d="M742.2,639.7h-7v-12.8h7v0.8h-6.1v4.9h5.8v0.8h-5.8v5.5h6.1V639.7z"/>
	<path class="st4" d="M744.7,639c0-0.6,0.2-0.9,0.7-0.9c0.5,0,0.7,0.3,0.7,0.9s-0.2,0.9-0.7,0.9C745,639.9,744.7,639.6,744.7,639z"
		/>
	<path class="st4" d="M752.7,639.7h-0.9v-12h-4.2v-0.8h9.3v0.8h-4.2V639.7z"/>
	<path class="st4" d="M758.8,639.7v-12.8h0.9v12h6.1v0.8H758.8z"/>
	<path class="st4" d="M767.7,639c0-0.6,0.2-0.9,0.7-0.9c0.5,0,0.7,0.3,0.7,0.9s-0.2,0.9-0.7,0.9C767.9,639.9,767.7,639.6,767.7,639z
		"/>
	<path class="st4" d="M776.5,639.7h-0.9v-9.4c0-0.8,0-1.7,0.1-2.6c-0.1,0.1-0.2,0.2-0.3,0.3s-1,0.8-2.7,2.1l-0.5-0.6l3.5-2.6h0.8
		V639.7z"/>
	<path class="st4" d="M790.1,633.2c0,2.3-0.3,3.9-1,5s-1.7,1.6-3.1,1.6c-1.3,0-2.4-0.6-3.1-1.7s-1-2.8-1-5c0-2.2,0.3-3.9,1-5
		s1.7-1.6,3.1-1.6c1.4,0,2.4,0.6,3.1,1.7S790.1,631.1,790.1,633.2z M782.8,633.2c0,2,0.3,3.5,0.8,4.4s1.3,1.4,2.4,1.4
		c1.1,0,1.9-0.5,2.4-1.5s0.8-2.4,0.8-4.4c0-1.9-0.3-3.3-0.8-4.3s-1.3-1.5-2.4-1.5s-1.9,0.5-2.4,1.5S782.8,631.3,782.8,633.2z"/>
	<path class="st4" d="M801.1,636.4h-2.2v3.3h-0.8v-3.3h-6.6v-0.6l6.4-9.1h1.1v8.9h2.2V636.4z M798.1,635.7V632c0-1.8,0-3.3,0.1-4.5
		h-0.1c-0.1,0.2-0.5,0.8-1.1,1.7l-4.5,6.5H798.1z"/>
</g>
<g>
	<path class="st4" d="M401.6,775.9v6.2h-11.4v-6.2h0.7v5.4h4.3v-5.1h0.7v5.1h4.9v-5.4H401.6z"/>
	<path class="st4" d="M401,773.6c-0.5,0-0.8-0.2-0.8-0.6c0-0.4,0.3-0.6,0.8-0.6c0.5,0,0.8,0.2,0.8,0.6
		C401.7,773.4,401.5,773.6,401,773.6z"/>
	<path class="st4" d="M401.6,766.5v0.8h-10.7v3.7h-0.8v-8.2h0.8v3.7H401.6z"/>
	<path class="st4" d="M401.6,761.1h-11.4v-0.8h10.7v-5.4h0.8V761.1z"/>
	<path class="st4" d="M401,753.2c-0.5,0-0.8-0.2-0.8-0.6c0-0.4,0.3-0.6,0.8-0.6c0.5,0,0.8,0.2,0.8,0.6
		C401.7,753,401.5,753.2,401,753.2z"/>
	<path class="st4" d="M401.6,745.4v0.8h-8.3c-0.8,0-1.5,0-2.4-0.1c0.1,0.1,0.2,0.2,0.2,0.2c0.1,0.1,0.7,0.9,1.9,2.4l-0.6,0.4
		l-2.3-3.1v-0.7H401.6z"/>
	<path class="st4" d="M395.8,733.3c2,0,3.5,0.3,4.5,0.9c1,0.6,1.4,1.5,1.4,2.8c0,1.2-0.5,2.1-1.5,2.7s-2.5,0.9-4.4,0.9
		c-2,0-3.5-0.3-4.4-0.9c-1-0.6-1.4-1.5-1.4-2.7c0-1.2,0.5-2.1,1.5-2.8S393.9,733.3,395.8,733.3z M395.8,739.8c1.8,0,3.1-0.2,3.9-0.7
		c0.8-0.5,1.3-1.2,1.3-2.1c0-1-0.4-1.7-1.3-2.2s-2.2-0.7-3.9-0.7c-1.7,0-3,0.2-3.8,0.7s-1.3,1.2-1.3,2.2s0.4,1.7,1.3,2.1
		S394.1,739.8,395.8,739.8z"/>
	<path class="st4" d="M401.6,724.4v7.1h-0.7l-3.2-3c-0.9-0.9-1.6-1.5-2-1.8s-0.9-0.6-1.3-0.8c-0.4-0.2-0.9-0.2-1.3-0.2
		c-0.7,0-1.2,0.2-1.7,0.7c-0.4,0.4-0.6,1-0.6,1.7c0,1,0.3,1.9,1,2.7l-0.5,0.4c-0.8-1-1.2-2-1.2-3.2c0-1,0.3-1.8,0.8-2.3
		s1.3-0.9,2.2-0.9c0.8,0,1.5,0.2,2.2,0.6c0.7,0.4,1.6,1.1,2.6,2.1l3,2.9h0v-6.1H401.6z"/>
</g>
<g>
	<path class="st4" d="M343.5,775.9v6.2h-11.4v-6.2h0.7v5.4h4.3v-5.1h0.7v5.1h4.9v-5.4H343.5z"/>
	<path class="st4" d="M342.9,773.6c-0.5,0-0.8-0.2-0.8-0.6c0-0.4,0.3-0.6,0.8-0.6c0.5,0,0.8,0.2,0.8,0.6
		C343.7,773.4,343.4,773.6,342.9,773.6z"/>
	<path class="st4" d="M343.5,766.5v0.8h-10.7v3.7h-0.8v-8.2h0.8v3.7H343.5z"/>
	<path class="st4" d="M343.5,761.1h-11.4v-0.8h10.7v-5.4h0.8V761.1z"/>
	<path class="st4" d="M342.9,753.2c-0.5,0-0.8-0.2-0.8-0.6c0-0.4,0.3-0.6,0.8-0.6c0.5,0,0.8,0.2,0.8,0.6
		C343.7,753,343.4,753.2,342.9,753.2z"/>
	<path class="st4" d="M343.5,745.4v0.8h-8.3c-0.8,0-1.5,0-2.4-0.1c0.1,0.1,0.2,0.2,0.2,0.2c0.1,0.1,0.7,0.9,1.9,2.4l-0.6,0.4
		l-2.3-3.1v-0.7H343.5z"/>
	<path class="st4" d="M337.8,733.3c2,0,3.5,0.3,4.5,0.9c1,0.6,1.4,1.5,1.4,2.8c0,1.2-0.5,2.1-1.5,2.7s-2.5,0.9-4.4,0.9
		c-2,0-3.5-0.3-4.4-0.9c-1-0.6-1.4-1.5-1.4-2.7c0-1.2,0.5-2.1,1.5-2.8S335.9,733.3,337.8,733.3z M337.8,739.8c1.8,0,3.1-0.2,3.9-0.7
		c0.8-0.5,1.3-1.2,1.3-2.1c0-1-0.4-1.7-1.3-2.2s-2.2-0.7-3.9-0.7c-1.7,0-3,0.2-3.8,0.7s-1.3,1.2-1.3,2.2s0.4,1.7,1.3,2.1
		S336.1,739.8,337.8,739.8z"/>
	<path class="st4" d="M334.8,724.8c0.7,0,1.3,0.2,1.8,0.7s0.8,1,0.9,1.8h0c0.1-0.9,0.4-1.6,0.9-2.1s1.1-0.7,1.9-0.7
		c1.1,0,1.9,0.4,2.5,1.1s0.9,1.8,0.9,3.1c0,1.2-0.2,2.2-0.6,3h-0.8c0.2-0.4,0.4-0.9,0.5-1.5c0.1-0.5,0.2-1.1,0.2-1.5
		c0-1.2-0.2-2-0.7-2.6c-0.5-0.6-1.1-0.9-2-0.9c-0.8,0-1.3,0.3-1.7,0.9s-0.6,1.5-0.6,2.6v1.2h-0.8v-1.2c0-0.9-0.2-1.7-0.7-2.3
		c-0.5-0.6-1.1-0.8-1.8-0.8c-0.6,0-1.1,0.2-1.5,0.7s-0.6,1-0.6,1.8c0,0.6,0.1,1.1,0.2,1.6c0.2,0.5,0.4,1,0.8,1.6l-0.5,0.4
		c-0.4-0.4-0.7-1-0.9-1.6c-0.2-0.6-0.3-1.3-0.3-1.9c0-1.1,0.2-1.9,0.7-2.4C333.2,725.1,333.9,724.8,334.8,724.8z"/>
</g>
<g>
	<path class="st4" d="M369.1,362.4h-3.6v-48h-16.7V311h37v3.4h-16.7V362.4z"/>
	<path class="st4" d="M408.2,363.1c-5.6,0-9.9-1.7-13-5.1c-3.1-3.4-4.7-8.2-4.7-14.4c0-6.1,1.5-11,4.5-14.6c3-3.7,7-5.5,12.1-5.5
		c4.5,0,8.1,1.6,10.7,4.7s3.9,7.4,3.9,12.8v2.8h-27.5c0,5.2,1.3,9.3,3.7,12c2.4,2.8,5.8,4.1,10.3,4.1c2.2,0,4.1-0.2,5.7-0.5
		s3.7-1,6.3-2v3.2c-2.2,0.9-4.1,1.6-6,1.9S410.4,363.1,408.2,363.1z M407.2,326.5c-3.7,0-6.6,1.2-8.9,3.6c-2.2,2.4-3.5,5.9-3.9,10.5
		h23.6c0-4.4-1-7.9-2.9-10.4S410.6,326.5,407.2,326.5z"/>
	<path class="st4" d="M447.8,363.1c-5.5,0-9.7-1.7-12.8-5.2s-4.6-8.2-4.6-14.4c0-6.3,1.6-11.3,4.8-14.8s7.6-5.3,13.2-5.3
		c3.3,0,6.5,0.6,9.5,1.7l-0.9,3.1c-3.3-1.1-6.2-1.7-8.6-1.7c-4.7,0-8.2,1.4-10.7,4.3s-3.6,7.1-3.6,12.5c0,5.2,1.2,9.2,3.6,12.1
		s5.8,4.4,10.1,4.4c3.5,0,6.7-0.6,9.7-1.9v3.2C454.9,362.5,451.7,363.1,447.8,363.1z"/>
	<path class="st4" d="M493.6,362.4v-24.8c0-3.8-0.8-6.6-2.4-8.4s-4.1-2.6-7.5-2.6c-4.6,0-7.9,1.2-10,3.5s-3.2,6.1-3.2,11.2v21.1
		h-3.5v-54.7h3.5v17.4l-0.2,4.9h0.2c1.4-2.3,3.2-4,5.4-5s4.9-1.5,8.1-1.5c8.7,0,13,4.7,13,14v25H493.6z"/>
	<path class="st4" d="M510.5,362.4V311h3.6v48h24.5v3.4H510.5z"/>
	<path class="st4" d="M570,362.4l-0.9-6h-0.3c-1.9,2.5-3.9,4.2-5.9,5.2s-4.4,1.5-7.2,1.5c-3.8,0-6.7-1-8.8-2.9s-3.1-4.6-3.1-8
		c0-3.7,1.6-6.6,4.7-8.7s7.6-3.2,13.5-3.3l7.3-0.2v-2.5c0-3.6-0.7-6.4-2.2-8.2s-3.9-2.8-7.1-2.8c-3.5,0-7.2,1-11,3l-1.3-3
		c4.2-2,8.3-3,12.4-3c4.2,0,7.3,1.1,9.4,3.3s3.1,5.6,3.1,10.2v25.4H570z M555.9,359.9c4.1,0,7.3-1.2,9.7-3.5s3.5-5.6,3.5-9.7v-3.8
		l-6.7,0.3c-5.4,0.3-9.2,1.1-11.5,2.5s-3.4,3.6-3.4,6.6c0,2.4,0.7,4.2,2.2,5.6S553.3,359.9,555.9,359.9z"/>
	<path class="st4" d="M601.3,323.4c5.3,0,9.4,1.7,12.1,5s4.1,8.3,4.1,14.7c0,6.4-1.4,11.2-4.3,14.7s-6.8,5.2-12,5.2
		c-2.7,0-5.2-0.6-7.3-1.7s-3.9-2.7-5.2-4.8h-0.3l-1,5.8h-2.2v-54.7h3.5v13.7c0,2.1,0,4-0.1,5.7l-0.1,3h0.2c1.5-2.3,3.2-4,5.3-5.1
		S598.4,323.4,601.3,323.4z M601.2,326.6c-4.5,0-7.7,1.3-9.7,3.9s-2.9,6.8-2.9,12.8v0.6c0,5.8,1,9.9,3,12.4s5.2,3.8,9.5,3.8
		c4.2,0,7.3-1.5,9.4-4.4s3.2-7.1,3.2-12.5C613.7,332.1,609.6,326.6,601.2,326.6z"/>
</g>
<g>
	<path class="st4" d="M372.4,617.8H369v-37.4c0-3.4,0.1-6.9,0.4-10.6c-0.4,0.4-0.7,0.7-1.1,1c-0.4,0.3-4,3.2-10.9,8.5l-2-2.5
		l14-10.4h3V617.8z"/>
	<path class="st4" d="M395.5,615c0-2.3,0.9-3.4,2.8-3.4c1.9,0,2.9,1.1,2.9,3.4s-1,3.4-2.9,3.4C396.4,618.5,395.5,617.3,395.5,615z"
		/>
	<path class="st4" d="M457.6,592c0,8.2-2,14.6-6.1,19.4s-9.7,7.1-16.9,7.1c-7.1,0-12.8-2.4-16.8-7.1s-6.1-11.2-6.1-19.4
		c0-8.2,2.1-14.6,6.2-19.3c4.1-4.7,9.7-7,16.9-7c7.2,0,12.8,2.4,16.8,7.1S457.6,583.8,457.6,592z M415.5,592c0,7.4,1.6,13,4.9,17.1
		s8,6,14.1,6c6.2,0,10.9-2,14.2-6s4.9-9.7,4.9-17.1c0-7.4-1.6-13.1-4.9-17s-8-5.9-14.1-5.9c-6.1,0-10.8,2-14.2,6
		S415.5,584.6,415.5,592z"/>
	<path class="st4" d="M489.8,591.8h18.9v23.4c-5,2.1-10.6,3.2-16.8,3.2c-8.1,0-14.3-2.3-18.7-6.9s-6.5-11.1-6.5-19.5
		c0-5.2,1.1-9.9,3.2-13.9s5.2-7.2,9.2-9.4c4-2.2,8.6-3.3,13.8-3.3c5.6,0,10.6,1,15.1,3.1l-1.4,3.2c-4.5-2.1-9.1-3.1-13.9-3.1
		c-6.8,0-12.1,2.1-16.1,6.3s-6,9.8-6,16.9c0,7.7,1.9,13.6,5.7,17.5s9.3,5.9,16.6,5.9c4.7,0,8.8-0.7,12.1-2v-18.1h-15.3V591.8z"/>
</g>
<g>
	<path class="st4" d="M865.4,260.1h-9.8v-17.8h9.8v1.1h-8.5v6.8h8v1.1h-8v7.7h8.5V260.1z"/>
	<path class="st4" d="M869,243.1c0-0.8,0.3-1.2,0.8-1.2c0.3,0,0.5,0.1,0.6,0.3c0.1,0.2,0.2,0.5,0.2,0.9c0,0.4-0.1,0.7-0.2,0.9
		c-0.1,0.2-0.3,0.3-0.6,0.3C869.3,244.3,869,243.9,869,243.1z M870.4,260.1h-1.2v-13.3h1.2V260.1z"/>
	<path class="st4" d="M884.1,260.1v-8.6c0-1.3-0.3-2.3-0.8-2.9c-0.6-0.6-1.4-0.9-2.6-0.9c-1.6,0-2.7,0.4-3.5,1.2
		c-0.7,0.8-1.1,2.1-1.1,3.9v7.3h-1.2v-13.3h1l0.2,1.8h0.1c0.9-1.4,2.4-2.1,4.6-2.1c3,0,4.5,1.6,4.5,4.8v8.7H884.1z"/>
	<path class="st4" d="M900.1,246.8v0.8l-2.7,0.2c0.7,0.9,1.1,1.9,1.1,3c0,1.3-0.4,2.3-1.3,3.1c-0.9,0.8-2,1.2-3.4,1.2
		c-0.6,0-1,0-1.3-0.1c-0.5,0.3-0.8,0.5-1.1,0.9c-0.3,0.3-0.4,0.7-0.4,1.1c0,0.4,0.2,0.7,0.5,0.9s0.9,0.3,1.6,0.3h2.3
		c1.4,0,2.5,0.3,3.3,0.9c0.8,0.6,1.1,1.4,1.1,2.6c0,1.4-0.6,2.5-1.7,3.2c-1.1,0.8-2.8,1.1-4.9,1.1c-1.7,0-3-0.3-3.9-1
		c-0.9-0.6-1.4-1.5-1.4-2.7c0-0.9,0.3-1.7,0.8-2.3c0.6-0.6,1.3-1,2.3-1.2c-0.4-0.2-0.7-0.4-1-0.7c-0.2-0.3-0.4-0.7-0.4-1.1
		c0-0.9,0.6-1.7,1.7-2.3c-0.8-0.3-1.4-0.8-1.8-1.5c-0.4-0.7-0.6-1.5-0.6-2.3c0-1.3,0.4-2.4,1.3-3.2c0.8-0.8,2-1.2,3.4-1.2
		c0.9,0,1.5,0.1,2,0.3H900.1z M889.3,262.3c0,1.8,1.4,2.7,4.1,2.7c3.5,0,5.2-1.1,5.2-3.3c0-0.8-0.3-1.4-0.8-1.7
		c-0.5-0.4-1.4-0.5-2.6-0.5H893C890.5,259.5,889.3,260.4,889.3,262.3z M890.3,251c0,1,0.3,1.8,0.9,2.4c0.6,0.6,1.5,0.8,2.5,0.8
		c1.1,0,2-0.3,2.5-0.8s0.9-1.4,0.9-2.4c0-1.1-0.3-2-0.9-2.5s-1.5-0.8-2.5-0.8c-1.1,0-1.9,0.3-2.5,0.9
		C890.6,249,890.3,249.9,890.3,251z"/>
	<path class="st4" d="M910.9,260.1l-0.3-2.1h-0.1c-0.7,0.9-1.4,1.5-2.1,1.8c-0.7,0.4-1.5,0.5-2.5,0.5c-1.3,0-2.3-0.3-3-1
		s-1.1-1.6-1.1-2.8c0-1.3,0.5-2.3,1.6-3s2.6-1.1,4.7-1.1l2.5-0.1v-0.9c0-1.3-0.3-2.2-0.8-2.9c-0.5-0.6-1.3-1-2.5-1
		c-1.2,0-2.5,0.3-3.8,1l-0.5-1c1.5-0.7,2.9-1,4.3-1c1.5,0,2.5,0.4,3.3,1.1c0.7,0.8,1.1,1.9,1.1,3.5v8.8H910.9z M906,259.2
		c1.4,0,2.5-0.4,3.3-1.2c0.8-0.8,1.2-1.9,1.2-3.4v-1.3l-2.3,0.1c-1.9,0.1-3.2,0.4-4,0.9c-0.8,0.5-1.2,1.3-1.2,2.3
		c0,0.8,0.3,1.5,0.8,1.9C904.4,259,905.1,259.2,906,259.2z"/>
	<path class="st4" d="M925.4,260.1v-8.6c0-1.3-0.3-2.3-0.8-2.9c-0.6-0.6-1.4-0.9-2.6-0.9c-1.6,0-2.7,0.4-3.5,1.2
		c-0.7,0.8-1.1,2.1-1.1,3.9v7.3h-1.2v-13.3h1l0.2,1.8h0.1c0.9-1.4,2.4-2.1,4.6-2.1c3,0,4.5,1.6,4.5,4.8v8.7H925.4z"/>
	<path class="st4" d="M941.4,246.8v0.8l-2.7,0.2c0.7,0.9,1.1,1.9,1.1,3c0,1.3-0.4,2.3-1.3,3.1c-0.9,0.8-2,1.2-3.4,1.2
		c-0.6,0-1,0-1.3-0.1c-0.5,0.3-0.8,0.5-1.1,0.9s-0.4,0.7-0.4,1.1c0,0.4,0.2,0.7,0.5,0.9s0.9,0.3,1.6,0.3h2.3c1.4,0,2.5,0.3,3.3,0.9
		s1.1,1.4,1.1,2.6c0,1.4-0.6,2.5-1.7,3.2c-1.1,0.8-2.8,1.1-4.9,1.1c-1.7,0-3-0.3-3.9-1c-0.9-0.6-1.4-1.5-1.4-2.7
		c0-0.9,0.3-1.7,0.8-2.3c0.6-0.6,1.3-1,2.3-1.2c-0.4-0.2-0.7-0.4-1-0.7c-0.2-0.3-0.4-0.7-0.4-1.1c0-0.9,0.6-1.7,1.7-2.3
		c-0.8-0.3-1.4-0.8-1.8-1.5s-0.6-1.5-0.6-2.3c0-1.3,0.4-2.4,1.3-3.2c0.8-0.8,2-1.2,3.4-1.2c0.9,0,1.5,0.1,2,0.3H941.4z M930.6,262.3
		c0,1.8,1.4,2.7,4.1,2.7c3.5,0,5.2-1.1,5.2-3.3c0-0.8-0.3-1.4-0.8-1.7c-0.5-0.4-1.4-0.5-2.6-0.5h-2.2
		C931.8,259.5,930.6,260.4,930.6,262.3z M931.6,251c0,1,0.3,1.8,0.9,2.4c0.6,0.6,1.5,0.8,2.5,0.8c1.1,0,2-0.3,2.5-0.8
		s0.9-1.4,0.9-2.4c0-1.1-0.3-2-0.9-2.5s-1.5-0.8-2.5-0.8c-1.1,0-1.9,0.3-2.5,0.9C931.9,249,931.6,249.9,931.6,251z"/>
	<path class="st4" d="M855.1,273.1c0-0.8,0.3-1.2,0.8-1.2c0.3,0,0.5,0.1,0.6,0.3c0.1,0.2,0.2,0.5,0.2,0.9c0,0.4-0.1,0.7-0.2,0.9
		c-0.1,0.2-0.3,0.3-0.6,0.3C855.4,274.3,855.1,273.9,855.1,273.1z M856.5,290.1h-1.2v-13.3h1.2V290.1z"/>
	<path class="st4" d="M877.6,290.1v-8.7c0-1.3-0.3-2.2-0.8-2.8c-0.5-0.6-1.3-0.9-2.3-0.9c-1.4,0-2.4,0.4-3,1.1c-0.7,0.7-1,1.9-1,3.5
		v7.8h-1.2V281c0-2.2-1-3.4-3.1-3.4c-1.4,0-2.4,0.4-3,1.2s-1,2.1-1,3.9v7.3H861v-13.3h1l0.3,1.8h0.1c0.4-0.7,0.9-1.2,1.6-1.5
		c0.7-0.4,1.4-0.5,2.2-0.5c2.1,0,3.4,0.8,4,2.4h0c0.4-0.8,1-1.3,1.7-1.7c0.7-0.4,1.6-0.6,2.5-0.6c1.4,0,2.5,0.4,3.3,1.2
		c0.7,0.8,1.1,2,1.1,3.7v8.7H877.6z"/>
	<path class="st4" d="M899.8,290.1H890v-17.8h9.8v1.1h-8.5v6.8h8v1.1h-8v7.7h8.5V290.1z"/>
	<path class="st4" d="M910.9,281.1h6.6v8.1c-1.7,0.7-3.7,1.1-5.8,1.1c-2.8,0-5-0.8-6.5-2.4c-1.5-1.6-2.3-3.8-2.3-6.8
		c0-1.8,0.4-3.4,1.1-4.8c0.7-1.4,1.8-2.5,3.2-3.3c1.4-0.8,3-1.1,4.8-1.1c1.9,0,3.7,0.4,5.2,1.1l-0.5,1.1c-1.5-0.7-3.1-1.1-4.8-1.1
		c-2.4,0-4.2,0.7-5.6,2.2c-1.4,1.5-2.1,3.4-2.1,5.9c0,2.7,0.7,4.7,2,6.1c1.3,1.4,3.2,2,5.8,2c1.6,0,3-0.2,4.2-0.7v-6.3h-5.3V281.1z"
		/>
</g>
<g>
	<path class="st4" d="M548.8,465.8c0,1.5-0.5,2.7-1.6,3.5c-1.1,0.9-2.5,1.3-4.4,1.3c-2.2,0-3.9-0.2-5-0.7v-1.2
		c1.3,0.5,2.9,0.8,4.9,0.8c1.5,0,2.6-0.3,3.5-1c0.9-0.7,1.3-1.6,1.3-2.6c0-0.7-0.1-1.2-0.4-1.7c-0.3-0.4-0.7-0.8-1.4-1.2
		c-0.6-0.4-1.6-0.8-2.8-1.2c-1.8-0.6-3.1-1.3-3.8-2c-0.7-0.7-1-1.7-1-2.9c0-1.3,0.5-2.4,1.6-3.3c1-0.8,2.4-1.3,4-1.3
		c1.7,0,3.3,0.3,4.7,1l-0.5,1.1c-1.5-0.6-2.9-0.9-4.2-0.9c-1.3,0-2.4,0.3-3.1,0.9s-1.2,1.4-1.2,2.5c0,0.7,0.1,1.2,0.4,1.6
		c0.2,0.4,0.6,0.8,1.2,1.1c0.5,0.3,1.5,0.7,2.8,1.2c1.4,0.5,2.4,0.9,3.1,1.4c0.7,0.5,1.2,1,1.5,1.5
		C548.6,464.3,548.8,465,548.8,465.8z"/>
	<path class="st4" d="M555.8,469.6c0.8,0,1.4-0.1,2-0.2v1c-0.6,0.2-1.3,0.3-2,0.3c-1.2,0-2-0.3-2.6-0.9c-0.6-0.6-0.8-1.6-0.8-3v-8.6
		h-2v-0.7l2-0.5l0.6-3h0.6v3.2h3.9v1.1h-3.9v8.4c0,1,0.2,1.8,0.5,2.3C554.5,469.4,555.1,469.6,555.8,469.6z"/>
	<path class="st4" d="M560.6,453.5c0-0.8,0.3-1.2,0.8-1.2c0.3,0,0.4,0.1,0.6,0.3c0.1,0.2,0.2,0.5,0.2,0.9c0,0.4-0.1,0.7-0.2,0.9
		c-0.1,0.2-0.3,0.3-0.6,0.3C560.9,454.7,560.6,454.3,560.6,453.5z M562,470.4h-1.2v-13.3h1.2V470.4z"/>
	<path class="st4" d="M571.9,470.7c-1.9,0-3.4-0.6-4.5-1.8c-1.1-1.2-1.6-2.9-1.6-5c0-2.1,0.5-3.8,1.6-5.1c1-1.3,2.4-1.9,4.2-1.9
		c1.6,0,2.8,0.5,3.7,1.6s1.4,2.6,1.4,4.4v1H567c0,1.8,0.4,3.2,1.3,4.2c0.8,1,2,1.4,3.6,1.4c0.8,0,1.4-0.1,2-0.2
		c0.6-0.1,1.3-0.3,2.2-0.7v1.1c-0.7,0.3-1.4,0.5-2.1,0.7C573.3,470.6,572.6,470.7,571.9,470.7z M571.5,458c-1.3,0-2.3,0.4-3.1,1.3
		c-0.8,0.8-1.2,2.1-1.4,3.6h8.2c0-1.5-0.3-2.7-1-3.6C573.6,458.4,572.7,458,571.5,458z"/>
	<path class="st4" d="M590.7,457.2v0.8l-2.7,0.2c0.7,0.9,1.1,1.9,1.1,3c0,1.3-0.4,2.3-1.3,3.1c-0.8,0.8-2,1.2-3.4,1.2
		c-0.6,0-1,0-1.3-0.1c-0.5,0.3-0.8,0.5-1.1,0.9s-0.4,0.7-0.4,1.1c0,0.4,0.2,0.7,0.5,0.9c0.3,0.2,0.9,0.3,1.6,0.3h2.3
		c1.4,0,2.5,0.3,3.3,0.9s1.1,1.4,1.1,2.6c0,1.4-0.6,2.5-1.7,3.2c-1.1,0.8-2.8,1.1-4.9,1.1c-1.7,0-3-0.3-3.9-1
		c-0.9-0.6-1.4-1.5-1.4-2.7c0-0.9,0.3-1.7,0.8-2.3c0.6-0.6,1.3-1,2.3-1.2c-0.4-0.2-0.7-0.4-1-0.7c-0.2-0.3-0.4-0.7-0.4-1.1
		c0-0.9,0.6-1.7,1.7-2.3c-0.8-0.3-1.4-0.8-1.8-1.5s-0.6-1.5-0.6-2.3c0-1.3,0.4-2.4,1.3-3.2c0.8-0.8,2-1.2,3.4-1.2
		c0.9,0,1.5,0.1,2,0.3H590.7z M579.9,472.7c0,1.8,1.4,2.7,4.1,2.7c3.5,0,5.2-1.1,5.2-3.3c0-0.8-0.3-1.4-0.8-1.7
		c-0.5-0.4-1.4-0.5-2.6-0.5h-2.2C581.1,469.8,579.9,470.8,579.9,472.7z M580.9,461.3c0,1,0.3,1.8,0.9,2.4c0.6,0.6,1.5,0.8,2.5,0.8
		c1.1,0,2-0.3,2.5-0.8c0.6-0.6,0.9-1.4,0.9-2.4c0-1.1-0.3-2-0.9-2.5c-0.6-0.6-1.5-0.8-2.5-0.8c-1.1,0-1.9,0.3-2.5,0.9
		C581.2,459.4,580.9,460.2,580.9,461.3z"/>
	<path class="st4" d="M598.8,470.7c-1.9,0-3.4-0.6-4.5-1.8c-1.1-1.2-1.6-2.9-1.6-5c0-2.1,0.5-3.8,1.6-5.1c1-1.3,2.4-1.9,4.2-1.9
		c1.6,0,2.8,0.5,3.7,1.6c0.9,1.1,1.4,2.6,1.4,4.4v1H594c0,1.8,0.4,3.2,1.3,4.2c0.8,1,2,1.4,3.6,1.4c0.8,0,1.4-0.1,2-0.2
		c0.6-0.1,1.3-0.3,2.2-0.7v1.1c-0.7,0.3-1.4,0.5-2.1,0.7C600.3,470.6,599.6,470.7,598.8,470.7z M598.5,458c-1.3,0-2.3,0.4-3.1,1.3
		c-0.8,0.8-1.2,2.1-1.4,3.6h8.2c0-1.5-0.3-2.7-1-3.6C600.6,458.4,599.6,458,598.5,458z"/>
</g>
<line class="st3" x1="643" y1="442.9" x2="643" y2="413.5"/>
</svg>
