<?xml version="1.0" encoding="utf-8"?>
<!-- Generator: Adobe Illustrator 21.0.0, SVG Export Plug-In . SVG Version: 6.00 Build 0)  -->
<svg version="1.1" id="Ebene_2" xmlns="http://www.w3.org/2000/svg" xmlns:xlink="http://www.w3.org/1999/xlink" x="0px" y="0px"
	 viewBox="0 0 280 200" style="enable-background:new 0 0 280 200;" xml:space="preserve">
<style type="text/css">
	.st0{fill:#FFFFFF;}
</style>
<g>
	<g>
		<path class="st0" d="M148.2,198.2l18.7-55.5h9.1l18.7,55.5h-7.8l-5-15.5h-21.2l-5,15.5H148.2z M179.8,176.4l-8.6-26.2l-8.5,26.2
			H179.8z"/>
		<path class="st0" d="M235,159.4c0,2.4-0.4,4.7-1.3,6.8c-0.9,2.1-2,4-3.6,5.5c-1.9,1.9-4.2,3.3-6.7,4.3c-2.6,1-5.8,1.5-9.8,1.5
			h-6.3v20.7h-7.4v-55.5h13.9c3.3,0,6.1,0.3,8.4,0.8c2.3,0.5,4.3,1.4,6.1,2.6c2.1,1.4,3.7,3.2,4.8,5.4
			C234.4,153.7,235,156.4,235,159.4z M227.3,159.6c0-1.9-0.3-3.6-1-5c-0.7-1.4-1.7-2.6-3-3.5c-1.2-0.8-2.5-1.3-4.1-1.6
			s-3.5-0.5-5.8-0.5h-6.1v22.2h5c3,0,5.4-0.2,7.2-0.7c1.8-0.5,3.4-1.3,4.6-2.6c1.1-1.1,1.9-2.3,2.4-3.7S227.3,161.4,227.3,159.6z"/>
		<path class="st0" d="M277,159.4c0,2.4-0.4,4.7-1.3,6.8c-0.9,2.1-2,4-3.6,5.5c-1.9,1.9-4.2,3.3-6.7,4.3c-2.6,1-5.8,1.5-9.8,1.5
			h-6.3v20.7H242v-55.5h13.9c3.3,0,6.1,0.3,8.4,0.8c2.3,0.5,4.3,1.4,6.1,2.6c2.1,1.4,3.7,3.2,4.8,5.4
			C276.5,153.7,277,156.4,277,159.4z M269.4,159.6c0-1.9-0.3-3.6-1-5c-0.7-1.4-1.7-2.6-3-3.5c-1.2-0.8-2.5-1.3-4.1-1.6
			s-3.5-0.5-5.8-0.5h-6.1v22.2h5c3,0,5.4-0.2,7.2-0.7c1.8-0.5,3.4-1.3,4.6-2.6c1.1-1.1,1.9-2.3,2.4-3.7
			C269.1,162.9,269.4,161.4,269.4,159.6z"/>
	</g>
	<g>
		<g>
			<polygon class="st0" points="42.3,112.8 32.2,112.8 32.2,100.2 26.6,100.2 26.6,129.6 32.2,129.6 32.2,118 42.3,118 42.3,129.6 
				47.9,129.6 47.9,100.2 42.3,100.2 			"/>
		</g>
		<g>
			<path class="st0" d="M97.6,124.5c-3.2,1.6-5,2.4-8.3,2.4c-2.6,0-4.3-1.7-4.3-4.5v-16h-3v16c0,3.7,2.5,7.5,7.3,7.5
				c3.3,0,5.8-1.3,8.5-2.9l0.7,2.5h2.2v-23.1h-3V124.5z"/>
		</g>
		<g>
			<path class="st0" d="M161.8,116.8h-9.5c0-7.1,1.8-7.4,6.8-7.4c4.8,0,5.9,0.5,5.9,5.3C164.9,116.2,164,116.8,161.8,116.8
				 M167.8,114.6c0-7.7-3.5-8.3-8.9-8.3c-6.6,0-9.7,1.1-9.7,11.6c0,9,1.9,11.8,7.7,11.9c3.2,0,6.6-0.1,10.3-1.2l0.2-0.1v-2.3
				l-0.3,0.1c-3.1,0.5-6.2,0.5-10.2,0.5c-3.1,0-4.7-1.1-4.7-7.2h9.5C165.9,119.7,167.8,118.1,167.8,114.6"/>
		</g>
		<g>
			<path class="st0" d="M184.2,106.2c-3.3,0-5.8,1.3-8.5,2.9l-0.7-2.5h-2.2v23.1h3v-18.2c3.1-1.5,4.9-2.4,8.3-2.4
				c2.6,0,4.3,1.7,4.3,4.5v16h3v-16C191.4,110,189,106.2,184.2,106.2"/>
		</g>
		<g>
			<path class="st0" d="M206.5,127.5c-0.2,0-2-0.4-3.5-0.8c-1.1-0.2-2.7-0.6-2.7-5.3v-21.1h-3v21.1c0,5.6,1.9,8.3,5.8,8.3h3.7v-1.9
				v-0.3L206.5,127.5z"/>
		</g>
		<g>
			<path class="st0" d="M213.4,121.7c0-1.9,1-3,3-3.1l9.4-0.6v6.8c-1.1,0.4-6.3,2.2-9.3,2.2h-0.1c-1.3,0-3-0.5-3-3.1V121.7z
				 M222.2,106.2h-0.1c-4.1,0-7.7,0.5-10.7,1.3l-0.2,0.1v2.3l0.3,0c4.5-0.5,7.6-0.7,10.4-0.7c2.6,0,3.9,1.3,3.9,3.9v0.1l0,0
				c0,0.3,0,1.4,0,2.4c-0.3,0-0.9,0-2.2,0c-2.9,0-7.2,0-7.2,0c-3.7,0-5.9,2.3-5.9,5.9v2.6c0,3.5,2.4,5.9,5.9,5.9
				c2.3,0,5.5-1,9.5-2.9l0.6,2.6h2.3V113C228.8,108.7,226.3,106.2,222.2,106.2"/>
		</g>
		<g>
			<path class="st0" d="M245.4,106.2c-3.3,0-5.8,1.3-8.5,2.9l-0.7-2.5h-2.2v23.1h3v-18.2c3.1-1.5,4.9-2.4,8.4-2.4
				c2.6,0,4.3,1.7,4.3,4.5v16h3v-16C252.7,110,250.2,106.2,245.4,106.2"/>
		</g>
		<g>
			<path class="st0" d="M117.6,106.3c-3.4,0-5.9,1.4-8.3,2.8l-0.2,0.1l-0.7-2.7h-2.2v23.1h3v-17.9l0.4-0.2c3-1.4,4.8-2.3,8.1-2.3
				c1.3,0,2.5,0.1,3.1,0.2l0.4,0.1v-2.9l-0.2-0.1C120.1,106.4,118.7,106.3,117.6,106.3"/>
		</g>
		<g>
			<path class="st0" d="M131.9,108.8h4.6c2.6,0,3.8,1.6,3.9,5.3c0,0.8-0.1,2.8-1.4,4.1c-0.8,0.8-1.8,1.2-3.2,1.2h-4.2
				c-3.9,0-4.4-3.7-4.4-5.2C127.3,110.5,128.8,108.8,131.9,108.8 M124.4,114.1c0,1.7,0.3,4.7,2.4,6.2c-1.6,0.5-2.4,2-2.4,3.4
				c0,1,0.5,2.2,1.1,2.8c0.6,0.5,0.8,0.7,1.7,1.1c0.2,0.1,1.3,0.5,2.3,0.5h8.5c2.8,0,3.4,1.2,3.4,3.2v0.6c0,2.5-1.2,3.7-3.7,3.7
				h-5.8c-0.9,0-3.1-0.2-4-1.8l-0.1-0.2l-2,0l0,0.3c0.2,2.6,2.8,4.6,6,4.6h5.8c5.5,0,6.7-3.6,6.7-6.7v-0.7c0-3.7-2.3-6.1-6-6.1h-9
				c-0.2,0-2,0-2-1.5c0-1.3,1.6-1.4,2.1-1.4h6.6c6.9,0,7.3-6.9,7.3-8.2c0-3.2-0.9-4.6-1.5-5.4l3.7-0.6v-2.3H132
				C126.9,105.8,124.4,108.6,124.4,114.1"/>
		</g>
		<g>
			<path class="st0" d="M260.2,114.8c0-1.9,1-3,3-3.1l9.4-0.6v13.6c-1.1,0.4-6.4,2.2-9.4,2.2l-0.1,0c-1.3,0-3-0.5-3-3.1V114.8z
				 M272.6,100.3L272.6,100.3c0,0.3,0,4.2,0,8.4c-0.3,0-0.9,0-2.2,0c-2.9,0-7.2,0-7.2,0c-3.7,0-5.9,2.3-5.9,5.9v9.4
				c0,3.5,2.4,5.9,5.9,5.9c2.3,0,5.5-1,9.5-2.9l0.6,2.6h2.3v-29.3H272.6z"/>
		</g>
		<g>
			<path class="st0" d="M62.4,103.1h8.2c1.3,0,2.1,0.2,2.6,0.8c0.7,0.7,1,2,1,4.1c0,3.3-0.6,4.9-3.5,4.9h-8.2 M70.6,115.8
				L70.6,115.8c2.7,0,4.1,1.9,4.1,5.6c0,5.2-2.1,5.6-4.1,5.6h-8.2v-11.2 M74.8,114.4c2.2-1,2.2-3.5,2.2-6.4c0-3.9-0.5-7.7-6.3-7.7
				h-11v29.4h11c6.3,0,6.9-4.3,6.9-8.3C77.5,116.7,75.9,115,74.8,114.4"/>
		</g>
		<g>
			<path class="st0" d="M198.2,58.7C193.6,56.7,54,3.9,51.8,3.1c-5.9-2.2-5.4-1.2-3.2,0.3c5,3.5,25.7,17.6,7.8,38.4
				C39.9,61.1,12.9,77.4,8.7,80.2c-8.4,5.5-7.2,5.6,1.6,5.6c9.5,0,152.1,0,155.7,0c5.9,0,8.8,0.5,24-9.5
				C207.2,65,202.7,60.7,198.2,58.7"/>
		</g>
		<g>
			<path class="st0" d="M3,106.3v23.3h5.7v-11.9l12-0.4v-4.7l-12-0.4v-4.6c0-1.1,0-2.3,2.1-2.3l11.7-0.6v-4.6H9.7
				C6.6,100.1,3,101.5,3,106.3"/>
		</g>
	</g>
</g>
</svg>
